<?xml version="1.0" standalone="no"?>
<!DOCTYPE svg PUBLIC "-//W3C//DTD SVG 1.1//EN" "http://www.w3.org/Graphics/SVG/1.1/DTD/svg11.dtd" >
<svg xmlns="http://www.w3.org/2000/svg" xmlns:xlink="http://www.w3.org/1999/xlink" version="1.1">
<metadata>
Created by FontForge 20170731 at Fri Dec 15 17:11:50 2017
 By Aleksey,,,
Copyright (c) 2017 by Ericsson. All rights reserved.
</metadata>
<defs>
<font id="EricssonHilda-Bold" horiz-adv-x="560" >
  <font-face 
    font-family="Ericsson Hilda"
    font-weight="700"
    font-stretch="normal"
    units-per-em="1000"
    panose-1="0 0 8 0 0 0 0 0 0 0"
    ascent="750"
    descent="-250"
    x-height="507"
    cap-height="700"
    bbox="-659 -241 1169 936"
    underline-thickness="74"
    underline-position="-278"
    unicode-range="U+0020-FB02"
  />
<missing-glyph 
d="M478 760v-860h-396v860h396zM134 -50h292v760h-292v-760z" />
    <glyph glyph-name="fi" unicode="fi" horiz-adv-x="616" 
d="M104 577q0 82 42 122.5t116 40.5q48 0 74 -13v-99q-19 8 -50 8q-36 0 -54 -17.5t-18 -59.5v-52h112v-97h-112v-410h-110v410h-76v97h76v70zM483 592q-28 0 -48.5 20t-20.5 48t20.5 48t48.5 20q29 0 49 -20t20 -48t-20 -48t-49 -20zM428 0v507h110v-507h-110z" />
    <glyph glyph-name="fl" unicode="fl" horiz-adv-x="616" 
d="M104 577q0 82 42 122.5t116 40.5q48 0 74 -13v-99q-19 8 -50 8q-36 0 -54 -17.5t-18 -59.5v-52h112v-97h-112v-410h-110v410h-76v97h76v70zM428 730h110v-730h-110v730z" />
    <glyph glyph-name=".notdef" 
d="M478 760v-860h-396v860h396zM134 -50h292v760h-292v-760z" />
    <glyph glyph-name=".null" horiz-adv-x="0" 
 />
    <glyph glyph-name="nonmarkingreturn" horiz-adv-x="333" 
 />
    <glyph glyph-name="space" unicode=" " horiz-adv-x="213" 
 />
    <glyph glyph-name="exclam" unicode="!" horiz-adv-x="321" 
d="M104 215v485h114v-485h-114zM161 -10q-31 0 -53 21.5t-22 52.5t22 52.5t53 21.5t52.5 -21.5t21.5 -52.5t-21.5 -52.5t-52.5 -21.5z" />
    <glyph glyph-name="quotedbl" unicode="&#x22;" horiz-adv-x="381" 
d="M43 465v235h109v-235h-109zM229 465v235h109v-235h-109z" />
    <glyph glyph-name="numbersign" unicode="#" 
d="M553 410h-116l-34 -120h94v-79h-117l-60 -211h-83l60 211h-113l-60 -211h-83l60 211h-94v79h117l34 120h-94v78h116l61 212h83l-61 -212h113l61 212h83l-61 -212h94v-78zM320 290l34 120h-113l-34 -120h113z" />
    <glyph glyph-name="dollar" unicode="$" 
d="M515 193q0 -86 -53 -139t-145 -64v-100h-67v97q-61 3 -115.5 20t-84.5 40v108q82 -61 200 -67v224l-8 3q-95 33 -140.5 75.5t-45.5 124.5q0 81 53 132t141 63v80h67v-77q97 -5 156 -41v-105q-68 41 -156 44v-206l16 -6q88 -33 135 -78t47 -128zM163 520q0 -33 20.5 -52
t66.5 -38v178q-87 -15 -87 -88zM317 92q89 17 89 97q0 36 -21.5 58.5t-67.5 40.5v-196z" />
    <glyph glyph-name="percent" unicode="%" horiz-adv-x="838" 
d="M209 390q-70 0 -116.5 45t-46.5 116t46.5 116t116.5 45t116 -45t46 -116t-46 -116t-116 -45zM128 0l485 700h98l-485 -700h-98zM208 466q36 0 57.5 24.5t21.5 60.5t-21.5 60.5t-57.5 24.5t-57 -24t-21 -61t21 -61t57 -24zM630 -13q-70 0 -116.5 45t-46.5 116t46.5 116
t116.5 45t116 -45t46 -116t-46 -116t-116 -45zM629 63q36 0 57.5 24.5t21.5 60.5t-21.5 60.5t-57.5 24.5t-57 -24t-21 -61t21 -61t57 -24z" />
    <glyph glyph-name="ampersand" unicode="&#x26;" horiz-adv-x="660" 
d="M680 0h-145l-58 61q-86 -74 -213 -74q-109 0 -170 52t-61 135q0 69 40 115.5t110 85.5q-74 88 -74 170q0 71 52 118.5t143 47.5q86 0 139.5 -43t53.5 -120q0 -65 -40 -109.5t-110 -83.5l122 -131q20 40 34 91h114q-24 -99 -71 -173zM301 619q-39 0 -61 -20t-22 -54
q0 -46 64 -120q53 28 79.5 54.5t26.5 64.5q0 75 -87 75zM272 81q78 0 135 54l-159 168q-48 -27 -74.5 -56t-26.5 -68q0 -46 34 -72t91 -26z" />
    <glyph glyph-name="quotesingle" unicode="'" horiz-adv-x="195" 
d="M43 465v235h109v-235h-109z" />
    <glyph glyph-name="parenleft" unicode="(" horiz-adv-x="371" 
d="M235 -122q-75 90 -114.5 200.5t-39.5 225.5t39.5 225.5t114.5 200.5h123q-80 -91 -123.5 -201t-43.5 -225t43.5 -225t123.5 -201h-123z" />
    <glyph glyph-name="parenright" unicode=")" horiz-adv-x="371" 
d="M13 -122q80 91 123.5 201t43.5 225t-43.5 225t-123.5 201h123q75 -90 114.5 -200.5t39.5 -225.5t-39.5 -225.5t-114.5 -200.5h-123z" />
    <glyph glyph-name="asterisk" unicode="*" horiz-adv-x="411" 
d="M174 391l7 127l-107 -69l-31 54l114 57l-114 58l31 54l107 -69l-7 127h63l-7 -128l107 70l31 -54l-113 -58l113 -57l-31 -54l-107 70l7 -128h-63z" />
    <glyph glyph-name="plus" unicode="+" 
d="M489 392v-90h-161v-164h-96v164h-161v90h161v164h96v-164h161z" />
    <glyph glyph-name="comma" unicode="," horiz-adv-x="235" 
d="M14 -116l64 215h111l-72 -215h-103z" />
    <glyph glyph-name="hyphen" unicode="-" horiz-adv-x="387" 
d="M41 257v107h305v-107h-305z" />
    <glyph glyph-name="period" unicode="." horiz-adv-x="235" 
d="M117 -10q-31 0 -52.5 21.5t-21.5 52.5t21.5 52.5t52.5 21.5t53 -21.5t22 -52.5t-22 -52.5t-53 -21.5z" />
    <glyph glyph-name="slash" unicode="/" horiz-adv-x="458" 
d="M21 -92l305 842h111l-305 -842h-111z" />
    <glyph glyph-name="zero" unicode="0" 
d="M280 713q123 0 180.5 -92.5t57.5 -248.5v-44q0 -156 -57.5 -248.5t-180.5 -92.5t-180.5 92.5t-57.5 248.5v44q0 156 57.5 248.5t180.5 92.5zM152 371v-42q0 -27 1 -40l236 236q-31 87 -109 87q-128 0 -128 -241zM408 329v42q0 27 -1 40l-236 -236q31 -87 109 -87
q128 0 128 241z" />
    <glyph glyph-name="one" unicode="1" 
d="M365 92h163v-92h-443v92h170v480l-162 -48v103l220 74h52v-609z" />
    <glyph glyph-name="two" unicode="2" 
d="M174 103h327v-103h-452v44q0 74 36 132t122 127l56 45q68 55 96.5 91.5t28.5 76.5q0 43 -32.5 67t-91.5 24q-98 0 -186 -69v112q70 63 194 63q110 0 168 -54.5t58 -142.5q0 -61 -35.5 -113.5t-127.5 -128.5l-49 -40q-52 -42 -77 -71.5t-35 -59.5z" />
    <glyph glyph-name="three" unicode="3" 
d="M305 424q89 -5 145 -59t56 -147q0 -102 -69.5 -166.5t-184.5 -64.5q-118 0 -197 49v112q84 -55 196 -55q69 0 107 35.5t38 87.5q0 50 -34 80t-97 30q-48 0 -74 -13l-49 70l201 214h-277v103h406v-99z" />
    <glyph glyph-name="four" unicode="4" 
d="M445 243h97v-103h-97v-140h-110v140h-309v98l257 462h162v-457zM141 243h194v348z" />
    <glyph glyph-name="five" unicode="5" 
d="M285 436q100 0 163.5 -57t63.5 -158q0 -104 -70 -169t-189 -65q-113 0 -192 49v112q83 -55 191 -55q75 0 112.5 35.5t37.5 90.5q0 51 -33 81.5t-98 30.5q-61 0 -103 -25l-89 31l44 363h360v-103h-268l-21 -175q44 14 91 14z" />
    <glyph glyph-name="six" unicode="6" 
d="M304 458q107 0 163 -59t56 -167q0 -103 -60.5 -174t-172.5 -71q-115 0 -178.5 68.5t-63.5 182.5v30q0 69 23.5 137.5t61.5 124t77 97.5t79 73h159q-183 -141 -246 -266q48 24 102 24zM290 90q61 0 92 36.5t31 99.5q0 130 -126 130q-76 0 -126 -51q-3 -21 -3 -42v-20
q0 -71 33.5 -112t98.5 -41z" />
    <glyph glyph-name="seven" unicode="7" 
d="M55 700h459v-101q-94 -123 -159.5 -281t-86.5 -318h-125q14 137 82.5 301.5t161.5 295.5h-332v103z" />
    <glyph glyph-name="eight" unicode="8" 
d="M425 371q100 -56 100 -173q0 -93 -64 -152t-181 -59t-181 59t-64 152q0 117 100 173q-75 54 -75 146q0 84 59.5 140t160.5 56t160.5 -56t59.5 -140q0 -92 -75 -146zM280 615q-53 0 -81.5 -28t-28.5 -71t28.5 -71.5t81.5 -28.5t81.5 28.5t28.5 71.5t-28 71t-82 28zM280 85
q65 0 100 32t35 84q0 54 -34 86t-101 32q-65 0 -100 -33t-35 -85t35 -84t100 -32z" />
    <glyph glyph-name="nine" unicode="9" 
d="M273 713q112 0 175.5 -69t63.5 -182v-30q0 -69 -23.5 -137.5t-61.5 -124t-77 -97.5t-79 -73h-155q180 138 243 266q-46 -24 -106 -24q-97 0 -156.5 60t-59.5 164q0 105 60 176t176 71zM270 344q81 0 129 51q3 21 3 42v20q0 71 -33.5 112t-98.5 41q-61 0 -92 -36.5
t-31 -100.5q0 -129 123 -129z" />
    <glyph glyph-name="colon" unicode=":" horiz-adv-x="275" 
d="M137 354q-31 0 -52.5 21.5t-21.5 52.5t21.5 52.5t52.5 21.5t53 -21.5t22 -52.5t-22 -52.5t-53 -21.5zM137 -10q-31 0 -52.5 21.5t-21.5 52.5t21.5 52.5t52.5 21.5t53 -21.5t22 -52.5t-22 -52.5t-53 -21.5z" />
    <glyph glyph-name="semicolon" unicode=";" horiz-adv-x="275" 
d="M137 354q-31 0 -52.5 21.5t-21.5 52.5t21.5 52.5t52.5 21.5t53 -21.5t22 -52.5t-22 -52.5t-53 -21.5zM16 -116l64 215h111l-72 -215h-103z" />
    <glyph glyph-name="less" unicode="&#x3c;" 
d="M489 537v-99l-298 -96l298 -95v-99l-418 150v89z" />
    <glyph glyph-name="equal" unicode="=" 
d="M71 391v90h418v-90h-418zM71 213v90h418v-90h-418z" />
    <glyph glyph-name="greater" unicode="&#x3e;" 
d="M71 537l418 -150v-89l-418 -150v99l298 95l-298 96v99z" />
    <glyph glyph-name="question" unicode="?" horiz-adv-x="461" 
d="M127 215q0 54 17 91t62 83l31 33q34 35 50 60t16 52q0 37 -29 54t-76 17q-89 0 -152 -42v110q23 18 67.5 29t86.5 11q100 0 162.5 -41.5t62.5 -125.5q0 -52 -23.5 -91.5t-80.5 -98.5l-44 -46q-33 -33 -37 -95h-113zM181 -10q-31 0 -52.5 21.5t-21.5 52.5t21.5 52.5
t52.5 21.5t53 -21.5t22 -52.5t-22 -52.5t-53 -21.5z" />
    <glyph glyph-name="at" unicode="@" horiz-adv-x="974" 
d="M705 442l-44 -210q-30 -147 64 -147q50 0 83.5 53t33.5 145q0 151 -92.5 235.5t-248.5 84.5t-262 -109t-106 -271q0 -155 96.5 -252t269.5 -97q141 0 228 57v-76q-83 -54 -227 -54q-206 0 -326.5 116.5t-120.5 307.5q0 192 127 321.5t322 129.5q191 0 305.5 -109
t114.5 -283q0 -122 -58 -196.5t-146 -74.5q-60 0 -93.5 24t-45.5 58q-51 -82 -151 -82q-73 0 -117 48.5t-44 133.5q0 104 60 183t164 79q72 0 110 -45l6 30h98zM445 96q58 0 90 63t49 168q-8 20 -32 35t-57 15q-60 0 -94.5 -54.5t-34.5 -127.5q0 -47 21.5 -73t57.5 -26z" />
    <glyph glyph-name="A" unicode="A" horiz-adv-x="674" 
d="M539 0l-60 177h-287l-60 -177h-119l244 700h160l244 -700h-122zM230 287h211l-105 311z" />
    <glyph glyph-name="B" unicode="B" horiz-adv-x="646" 
d="M501 369q97 -53 97 -166q0 -92 -61.5 -147.5t-158.5 -55.5h-292v700h283q93 0 152 -52t59 -139q0 -92 -79 -140zM367 590h-167v-175h167q48 0 73.5 24.5t25.5 63.5q0 38 -25.5 62.5t-73.5 24.5zM376 110q52 0 80.5 27.5t28.5 70.5t-28.5 70t-80.5 27h-176v-195h176z" />
    <glyph glyph-name="C" unicode="C" horiz-adv-x="608" 
d="M168 330q0 -107 52 -170t160 -63q91 0 170 42v-112q-61 -40 -172 -40q-160 0 -242.5 95.5t-82.5 244.5v46q0 149 82.5 244.5t242.5 95.5q111 0 172 -40v-112q-79 42 -170 42q-108 0 -160 -63t-52 -170v-40z" />
    <glyph glyph-name="D" unicode="D" horiz-adv-x="679" 
d="M321 700q148 0 226.5 -91.5t78.5 -240.5v-36q0 -149 -78.5 -240.5t-226.5 -91.5h-235v700h235zM511 333v34q0 101 -47.5 162t-142.5 61h-121v-482h121q95 0 142.5 61.5t47.5 163.5z" />
    <glyph glyph-name="E" unicode="E" horiz-adv-x="599" 
d="M200 110h343v-110h-457v700h455v-110h-341v-173h309v-110h-309v-197z" />
    <glyph glyph-name="F" unicode="F" horiz-adv-x="574" 
d="M86 0v700h449v-110h-335v-183h302v-110h-302v-297h-114z" />
    <glyph glyph-name="G" unicode="G" horiz-adv-x="690" 
d="M353 390h269v-318q-40 -40 -103.5 -62.5t-137.5 -22.5q-158 0 -243 95.5t-85 244.5v46q0 147 87.5 243.5t246.5 96.5q125 0 200 -53v-113q-98 56 -199 56q-107 0 -163.5 -64t-56.5 -169v-40q0 -106 53.5 -169.5t156.5 -63.5q74 0 131 30v153h-156v110z" />
    <glyph glyph-name="H" unicode="H" horiz-adv-x="690" 
d="M490 700h114v-700h-114v307h-290v-307h-114v700h114v-283h290v283z" />
    <glyph glyph-name="I" unicode="I" horiz-adv-x="412" 
d="M357 603h-94v-506h94v-97h-302v97h94v506h-94v97h302v-97z" />
    <glyph glyph-name="J" unicode="J" horiz-adv-x="461" 
d="M383 700v-494q0 -102 -57 -158t-167 -56q-82 0 -139 23v116q60 -29 138 -29q60 0 85.5 29.5t25.5 91.5v477h114z" />
    <glyph glyph-name="K" unicode="K" horiz-adv-x="654" 
d="M664 0h-153l-311 333v-333h-114v700h114v-315l293 315h149l-318 -337z" />
    <glyph glyph-name="L" unicode="L" horiz-adv-x="549" 
d="M86 0v700h114v-590h317v-110h-431z" />
    <glyph glyph-name="M" unicode="M" horiz-adv-x="835" 
d="M600 700h149v-700h-114v549l-178 -405h-83l-178 406v-550h-110v700h150l182 -418z" />
    <glyph glyph-name="N" unicode="N" horiz-adv-x="708" 
d="M511 700h110v-700h-121l-304 522v-522h-110v700h125l300 -515v515z" />
    <glyph glyph-name="O" unicode="O" horiz-adv-x="715" 
d="M358 713q148 0 226.5 -95t78.5 -250v-36q0 -155 -78.5 -250t-226.5 -95t-226.5 95t-78.5 250v36q0 155 78.5 250t226.5 95zM547 367q0 107 -47 171.5t-142 64.5t-142.5 -64.5t-47.5 -171.5v-34q0 -106 47.5 -171t142.5 -65t142 64.5t47 171.5v34z" />
    <glyph glyph-name="P" unicode="P" horiz-adv-x="616" 
d="M354 700q102 0 166.5 -60t64.5 -159t-64.5 -159t-166.5 -60h-154v-262h-114v700h268zM352 372q57 0 88 30.5t31 78.5t-31 78.5t-88 30.5h-152v-218h152z" />
    <glyph glyph-name="Q" unicode="Q" horiz-adv-x="715" 
d="M663 332q0 -202 -123 -291l112 -133h-137l-73 88q-39 -9 -84 -9q-148 0 -226.5 95t-78.5 250v36q0 155 78.5 250t226.5 95t226.5 -95t78.5 -250v-36zM547 333v34q0 107 -47 171.5t-142 64.5t-142.5 -64.5t-47.5 -171.5v-34q0 -106 47.5 -171t142.5 -65t142 64.5t47 171.5
z" />
    <glyph glyph-name="R" unicode="R" horiz-adv-x="660" 
d="M507 0l-220 277h-87v-277h-114v700h274q102 0 166.5 -58t64.5 -154q0 -80 -46.5 -134.5t-124.5 -70.5l228 -283h-141zM200 590v-203h158q57 0 88 28t31 73t-31 73.5t-88 28.5h-158z" />
    <glyph glyph-name="S" unicode="S" horiz-adv-x="576" 
d="M278 -13q-70 0 -134 17.5t-98 42.5v114q105 -66 230 -66q71 0 107.5 25t36.5 69q0 40 -27.5 63t-89.5 44l-54 19q-49 17 -80 32.5t-60 38.5t-42 54.5t-13 74.5q0 92 70.5 145t180.5 53q118 0 184 -40v-112q-82 44 -186 44q-135 0 -135 -86q0 -38 28.5 -58.5t94.5 -43.5
l51 -18q92 -32 142 -77t50 -129q0 -96 -70.5 -151t-185.5 -55z" />
    <glyph glyph-name="T" unicode="T" horiz-adv-x="597" 
d="M356 -1h-114v591h-212v110h537v-110h-211v-591z" />
    <glyph glyph-name="U" unicode="U" horiz-adv-x="677" 
d="M338 -13q-128 0 -193.5 71t-65.5 187v455h115v-453q0 -152 144 -152q145 0 145 152v453h115v-455q0 -116 -65.5 -187t-194.5 -71z" />
    <glyph glyph-name="V" unicode="V" horiz-adv-x="671" 
d="M535 700h121l-247 -700h-146l-247 700h123l198 -574z" />
    <glyph glyph-name="W" unicode="W" horiz-adv-x="998" 
d="M848 700h118l-177 -700h-152l-139 532l-139 -532h-149l-178 700h120l139 -584l150 584h118l150 -584z" />
    <glyph glyph-name="X" unicode="X" horiz-adv-x="671" 
d="M644 0h-131l-178 275l-178 -275h-131l235 358l-225 342h131l168 -259l168 259h131l-223 -342z" />
    <glyph glyph-name="Y" unicode="Y" horiz-adv-x="615" 
d="M604 700l-240 -396v-304h-113v304l-240 396h129l169 -281l168 281h127z" />
    <glyph glyph-name="Z" unicode="Z" horiz-adv-x="623" 
d="M53 0v105l376 485h-351v110h492v-105l-377 -485h377v-110h-517z" />
    <glyph glyph-name="bracketleft" unicode="[" horiz-adv-x="367" 
d="M91 -140v870h236v-87h-127v-696h127v-87h-236z" />
    <glyph glyph-name="backslash" unicode="\" horiz-adv-x="458" 
d="M437 -92h-111l-305 842h111z" />
    <glyph glyph-name="bracketright" unicode="]" horiz-adv-x="367" 
d="M40 -140v87h127v696h-127v87h235v-870h-235z" />
    <glyph glyph-name="asciicircum" unicode="^" 
d="M530 290h-98l-152 312l-152 -312h-98l200 410h100z" />
    <glyph glyph-name="underscore" unicode="_" horiz-adv-x="496" 
d="M-5 -167v74h506v-74h-506z" />
    <glyph glyph-name="grave" unicode="`" horiz-adv-x="293" 
d="M142 598l-99 132h122l85 -132h-108z" />
    <glyph glyph-name="a" unicode="a" horiz-adv-x="570" 
d="M391 507h101v-507h-101v52q-50 -61 -138 -61q-101 0 -157.5 70.5t-56.5 176.5v31q0 106 56.5 176.5t157.5 70.5q88 0 138 -61v52zM268 98q75 0 114 60v191q-39 60 -114 60q-58 0 -87.5 -39t-29.5 -104v-25q0 -65 29.5 -104t87.5 -39z" />
    <glyph glyph-name="b" unicode="b" horiz-adv-x="570" 
d="M317 516q101 0 157.5 -70.5t56.5 -176.5v-31q0 -106 -56.5 -176.5t-157.5 -70.5q-88 0 -139 62v-53h-101v730h110v-266q50 52 130 52zM419 241v25q0 65 -29.5 104t-87.5 39q-76 0 -115 -62v-187q39 -62 115 -62q58 0 87.5 39t29.5 104z" />
    <glyph glyph-name="c" unicode="c" horiz-adv-x="452" 
d="M278 -12q-114 0 -176.5 71t-62.5 179v31q0 108 62.5 179t176.5 71q82 0 128 -28v-107q-55 29 -119 29q-70 0 -103 -39.5t-33 -107.5v-25q0 -68 33 -107.5t103 -39.5q64 0 119 29v-107q-46 -28 -128 -28z" />
    <glyph glyph-name="d" unicode="d" horiz-adv-x="570" 
d="M383 730h110v-730h-101v53q-51 -62 -139 -62q-101 0 -157.5 70.5t-56.5 176.5v31q0 106 56.5 176.5t157.5 70.5q80 0 130 -52v266zM268 98q76 0 115 62v187q-39 62 -115 62q-58 0 -87.5 -39t-29.5 -104v-25q0 -65 29.5 -104t87.5 -39z" />
    <glyph glyph-name="e" unicode="e" horiz-adv-x="517" 
d="M475 289v-71h-325q12 -124 154 -124q77 0 140 38v-106q-50 -38 -145 -38q-121 0 -190.5 67t-69.5 183v31q0 111 60 181t164 70q102 0 157 -61t55 -170zM261 419q-94 0 -109 -111h215q-6 111 -106 111z" />
    <glyph glyph-name="f" unicode="f" horiz-adv-x="351" 
d="M286 636q-36 0 -54 -17.5t-18 -59.5v-52h112v-97h-112v-410h-110v410h-76v97h76v70q0 82 42 122.5t116 40.5q48 0 74 -13v-99q-19 8 -50 8z" />
    <glyph glyph-name="g" unicode="g" horiz-adv-x="564" 
d="M388 507h101v-486q0 -94 -58 -154t-175 -60q-103 0 -167 38v107q65 -38 161 -38q65 0 97 26t32 87v24q-50 -48 -128 -48q-100 0 -156 69t-56 174v27q0 105 56 174t156 69q87 0 137 -58v49zM266 110q74 0 113 58v183q-39 58 -113 58q-58 0 -86.5 -38t-28.5 -101v-21
q0 -64 28.5 -101.5t86.5 -37.5z" />
    <glyph glyph-name="h" unicode="h" horiz-adv-x="570" 
d="M331 518q82 0 127 -46.5t45 -126.5v-345h-110v318q0 47 -19.5 70.5t-65.5 23.5q-70 0 -121 -55v-357h-110v730h110v-265q60 53 144 53z" />
    <glyph glyph-name="i" unicode="i" horiz-adv-x="265" 
d="M132 592q-28 0 -48.5 20t-20.5 48t20.5 48t48.5 20q29 0 49 -20t20 -48t-20 -48t-49 -20zM77 0v507h110v-507h-110z" />
    <glyph glyph-name="j" unicode="j" horiz-adv-x="265" 
d="M132 592q-28 0 -48.5 20t-20.5 48t20.5 48t48.5 20q29 0 49 -20t20 -48t-20 -48t-49 -20zM77 507h110v-531q0 -169 -157 -169q-49 0 -76 11v100q18 -9 51 -9q37 0 54.5 18t17.5 62v518z" />
    <glyph glyph-name="k" unicode="k" horiz-adv-x="529" 
d="M528 0h-141l-200 251v-251h-110v730h110v-441l189 218h138l-208 -233z" />
    <glyph glyph-name="l" unicode="l" horiz-adv-x="265" 
d="M77 0v730h110v-730h-110z" />
    <glyph glyph-name="m" unicode="m" horiz-adv-x="846" 
d="M616 518q77 0 120 -46.5t43 -126.5v-345h-110v318q0 47 -17 70.5t-58 23.5q-65 0 -111 -53v-14v-345h-110v318q0 47 -17 70.5t-58 23.5q-65 0 -111 -53v-359h-110v507h101v-49q58 60 143 60q93 0 134 -65q71 65 161 65z" />
    <glyph glyph-name="n" unicode="n" horiz-adv-x="570" 
d="M331 518q82 0 127 -46.5t45 -126.5v-345h-110v318q0 47 -19.5 70.5t-65.5 23.5q-70 0 -121 -55v-357h-110v507h101v-51q60 62 153 62z" />
    <glyph glyph-name="o" unicode="o" horiz-adv-x="551" 
d="M275 -13q-112 0 -174 71t-62 180v31q0 109 62 180t174 71q113 0 174.5 -71t61.5 -180v-31q0 -109 -61.5 -180t-174.5 -71zM275 91q62 0 93 41t31 109v25q0 68 -31 109t-93 41t-93 -41t-31 -109v-25q0 -68 31 -109t93 -41z" />
    <glyph glyph-name="p" unicode="p" horiz-adv-x="570" 
d="M317 516q101 0 157.5 -70.5t56.5 -176.5v-31q0 -106 -56.5 -176.5t-157.5 -70.5q-80 0 -130 52v-223h-110v687h101v-53q51 62 139 62zM419 241v25q0 65 -29.5 104t-87.5 39q-76 0 -115 -62v-187q39 -62 115 -62q58 0 87.5 39t29.5 104z" />
    <glyph glyph-name="q" unicode="q" horiz-adv-x="570" 
d="M392 507h101v-687h-110v223q-50 -52 -130 -52q-101 0 -157.5 70.5t-56.5 176.5v31q0 106 56.5 176.5t157.5 70.5q88 0 139 -62v53zM268 98q76 0 115 62v187q-39 62 -115 62q-58 0 -87.5 -39t-29.5 -104v-25q0 -65 29.5 -104t87.5 -39z" />
    <glyph glyph-name="r" unicode="r" horiz-adv-x="370" 
d="M178 431q61 79 169 81v-114q-112 -6 -160 -83v-315h-110v507h101v-76z" />
    <glyph glyph-name="s" unicode="s" horiz-adv-x="441" 
d="M214 -12q-110 0 -168 44v107q82 -50 169 -50q83 0 83 52q0 22 -15 34.5t-50 24.5l-41 15q-75 26 -109.5 58.5t-34.5 91.5q0 71 52 112.5t141 41.5q86 0 135 -28v-107q-64 34 -138 34q-80 0 -80 -49q0 -20 15.5 -31t53.5 -24l39 -14q72 -24 107 -57.5t35 -96.5
q0 -72 -50.5 -115t-143.5 -43z" />
    <glyph glyph-name="t" unicode="t" horiz-adv-x="364" 
d="M326 410h-112v-250q0 -34 15 -47.5t47 -13.5q26 0 50 8v-100q-32 -15 -76 -15q-146 0 -146 137v281h-76v97h76v123l110 37v-160h112v-97z" />
    <glyph glyph-name="u" unicode="u" horiz-adv-x="564" 
d="M377 507h110v-507h-101v50q-59 -61 -150 -61q-80 0 -124.5 46.5t-44.5 126.5v345h110v-318q0 -47 18.5 -70.5t63.5 -23.5q69 0 118 55v357z" />
    <glyph glyph-name="v" unicode="v" horiz-adv-x="537" 
d="M401 507h116l-176 -507h-145l-177 507h118l132 -401z" />
    <glyph glyph-name="w" unicode="w" horiz-adv-x="817" 
d="M669 507h116l-132 -507h-142l-102 345l-103 -345h-143l-132 507h120l93 -387l113 387h105l114 -388z" />
    <glyph glyph-name="x" unicode="x" horiz-adv-x="555" 
d="M528 0h-130l-121 183l-121 -183h-129l177 260l-168 247h129l112 -171l112 171h130l-167 -247z" />
    <glyph glyph-name="y" unicode="y" horiz-adv-x="523" 
d="M387 507h117l-176 -489q-42 -115 -86 -162.5t-125 -47.5q-45 0 -68 10v103q19 -8 51 -8q76 0 107 80l-188 514h118l126 -355z" />
    <glyph glyph-name="z" unicode="z" horiz-adv-x="496" 
d="M47 0v95l264 315h-251v97h389v-95l-265 -315h265v-97h-402z" />
    <glyph glyph-name="braceleft" unicode="{" horiz-adv-x="395" 
d="M228 432q0 -118 -97 -136v-2q97 -18 97 -136v-134q0 -49 18 -64t63 -15h46v-85h-88q-78 0 -113 34.5t-35 122.5v125q0 62 -16 84t-70 22v94q54 0 70 22t16 84v125q0 88 35 122.5t113 34.5h88v-85h-46q-45 0 -63 -15t-18 -64v-134z" />
    <glyph glyph-name="bar" unicode="|" horiz-adv-x="363" 
d="M129 -110v900h105v-900h-105z" />
    <glyph glyph-name="braceright" unicode="}" horiz-adv-x="395" 
d="M275 448q0 -61 16.5 -83.5t70.5 -22.5v-94q-54 0 -70.5 -22.5t-16.5 -83.5v-125q0 -88 -34.5 -122.5t-112.5 -34.5h-88v85h46q45 0 63 15t18 64v134q0 118 97 136v2q-97 18 -97 136v134q0 49 -18 64t-63 15h-46v85h88q78 0 112.5 -34.5t34.5 -122.5v-125z" />
    <glyph glyph-name="asciitilde" unicode="~" 
d="M42 257q2 72 36 118t99 46q42 0 109 -40.5t95 -40.5q55 0 61 81h76q-2 -72 -36 -118t-99 -46q-42 0 -109 40.5t-95 40.5q-55 0 -61 -81h-76z" />
    <glyph glyph-name="uni00A0" unicode="&#xa0;" horiz-adv-x="213" 
 />
    <glyph glyph-name="exclamdown" unicode="&#xa1;" horiz-adv-x="321" 
d="M160 519q31 0 53 -21.5t22 -52.5t-22 -52.5t-53 -21.5t-52.5 21.5t-21.5 52.5t21.5 52.5t52.5 21.5zM217 294v-485h-114v485h114z" />
    <glyph glyph-name="cent" unicode="&#xa2;" 
d="M456 384q-47 25 -102 28v-317q55 3 102 28v-107q-38 -22 -102 -27v-99h-67v101q-95 13 -146.5 81t-51.5 166v31q0 98 51.5 166t146.5 81v85h67v-83q64 -5 102 -27v-107zM201 241q0 -115 86 -140v305q-86 -25 -86 -140v-25z" />
    <glyph glyph-name="sterling" unicode="&#xa3;" 
d="M216 103h287v-103h-436v74q97 67 97 162q0 22 -7 50h-90v86h56q-35 78 -35 133q0 88 62 148t172 60q57 0 102 -15t66 -35v-103q-73 52 -161 52q-67 0 -98.5 -30.5t-31.5 -81.5q0 -14 1.5 -26.5t7 -28t8 -22.5t11 -27t10.5 -24h177v-86h-150q4 -17 4 -43q0 -83 -52 -140z
" />
    <glyph glyph-name="currency" unicode="&#xa4;" 
d="M505 315q0 -75 -44 -133l66 -66l-49 -49l-66 65q-59 -43 -133 -43t-133 43l-65 -65l-49 49l65 65q-43 61 -43 134q0 74 43 133l-65 65l49 49l65 -65q58 44 133 44q74 0 134 -44l65 65l49 -49l-65 -65q43 -61 43 -133zM142 315q0 -58 40 -98.5t97 -40.5t97 40.5t40 98.5
q0 57 -40 97.5t-97 40.5t-97 -40.5t-40 -97.5z" />
    <glyph glyph-name="yen" unicode="&#xa5;" 
d="M545 700l-180 -306h126v-77h-156v-72h156v-77h-156v-168h-110v168h-155v77h155v72h-155v77h125l-180 306h120l144 -251l144 251h122z" />
    <glyph glyph-name="brokenbar" unicode="&#xa6;" horiz-adv-x="363" 
d="M129 390v400h105v-400h-105zM129 -110v400h105v-400h-105z" />
    <glyph glyph-name="section" unicode="&#xa7;" horiz-adv-x="577" 
d="M420 203q38 -35 38 -92q0 -71 -52.5 -112.5t-140.5 -41.5q-79 0 -125 28v98q57 -32 127 -32q39 0 60.5 14.5t21.5 38.5q0 20 -16 32.5t-54 25.5l-47 17q-75 25 -110.5 59t-35.5 99q0 83 71 127q-38 35 -38 92q0 71 52 112.5t141 41.5q79 0 125 -28v-98q-57 32 -127 32
q-39 0 -60.5 -14.5t-21.5 -37.5q0 -20 16 -33t54 -26l47 -16q75 -26 110.5 -60t35.5 -99q0 -83 -71 -127zM265 275l45 -16q74 13 74 67q0 23 -16.5 38t-55.5 28l-45 16q-74 -13 -74 -67q0 -23 16.5 -38t55.5 -28z" />
    <glyph glyph-name="dieresis" unicode="&#xa8;" horiz-adv-x="421" 
d="M110 595q-27 0 -47 19.5t-20 46.5t20 46.5t47 19.5q28 0 48 -19.5t20 -46.5q0 -28 -20 -47t-48 -19zM310 595q-27 0 -47 19.5t-20 46.5t20 46.5t47 19.5q28 0 48 -19.5t20 -46.5q0 -28 -20 -47t-48 -19z" />
    <glyph glyph-name="copyright" unicode="&#xa9;" horiz-adv-x="833" 
d="M416 -13q-154 0 -258.5 104t-104.5 259t104.5 259t258.5 104q155 0 259.5 -104t104.5 -259t-104.5 -259t-259.5 -104zM416 40q131 0 218.5 89t87.5 221t-87.5 221t-218.5 89t-218 -89t-87 -221t87 -221t218 -89zM438 131q-101 0 -160.5 61.5t-59.5 157.5t59.5 157.5
t160.5 61.5q60 0 101 -24v-75q-45 26 -101 26q-65 0 -103 -39.5t-38 -106.5t38 -106.5t103 -39.5q59 0 101 26v-76q-41 -23 -101 -23z" />
    <glyph glyph-name="ordfeminine" unicode="&#xaa;" horiz-adv-x="417" 
d="M283 730h84v-370h-84v36q-37 -43 -98 -43q-75 0 -116.5 52t-41.5 130v20q0 78 41.5 130t116.5 52q61 0 98 -43v36zM199 443q50 0 76 40v124q-26 40 -76 40q-78 0 -78 -94v-16q0 -94 78 -94z" />
    <glyph glyph-name="guillemotleft" unicode="&#xab;" horiz-adv-x="563" 
d="M210 65l-159 193v9l159 192h105l-162 -197l162 -197h-105zM407 65l-159 193v9l159 192h104l-162 -197l162 -197h-104z" />
    <glyph glyph-name="logicalnot" unicode="&#xac;" 
d="M489 392v-254h-96v164h-322v90h418z" />
    <glyph glyph-name="uni00AD" unicode="&#xad;" horiz-adv-x="387" 
d="M41 257v107h305v-107h-305z" />
    <glyph glyph-name="registered" unicode="&#xae;" horiz-adv-x="565" 
d="M282 268q-94 0 -157.5 63.5t-63.5 157.5q0 95 63.5 158.5t157.5 63.5q95 0 158.5 -63.5t63.5 -158.5q0 -94 -64 -157.5t-158 -63.5zM282 304q78 0 129.5 53t51.5 132q0 80 -51 133t-130 53q-78 0 -129 -52.5t-51 -133.5q0 -79 51 -132t129 -53zM197 373v242h98
q35 0 57.5 -21.5t22.5 -54.5q0 -48 -49 -67l63 -99h-49l-57 94h-42v-94h-44zM241 503h45q46 0 46 36q0 37 -46 37h-45v-73z" />
    <glyph glyph-name="macron" unicode="&#xaf;" horiz-adv-x="364" 
d="M43 611v86h278v-86h-278z" />
    <glyph glyph-name="degree" unicode="&#xb0;" horiz-adv-x="360" 
d="M180 475q-57 0 -97 39t-40 95q0 57 40 95.5t97 38.5t97 -38.5t40 -95.5q0 -56 -40 -95t-97 -39zM180 536q31 0 51.5 21t20.5 52q0 32 -20.5 53t-51.5 21t-51.5 -21t-20.5 -53t20.5 -52.5t51.5 -20.5z" />
    <glyph glyph-name="plusminus" unicode="&#xb1;" 
d="M328 392h161v-90h-161v-164h-96v164h-161v90h161v164h96v-164zM71 4v90h418v-90h-418z" />
    <glyph glyph-name="uni00B2" unicode="&#xb2;" horiz-adv-x="363" 
d="M191 520q-48 -38 -59 -60h190v-77h-289v28q0 46 21.5 82t76.5 79l34 27q30 24 41 33.5t21.5 25.5t10.5 32q0 42 -68 42q-65 0 -116 -44v85q43 40 125 40q68 0 105.5 -35t37.5 -86q0 -40 -21 -71.5t-79 -76.5z" />
    <glyph glyph-name="uni00B3" unicode="&#xb3;" horiz-adv-x="363" 
d="M211 636q52 -6 83.5 -38t31.5 -85q0 -61 -45 -100.5t-118 -39.5q-75 0 -126 30v84q53 -33 124 -33q38 0 59.5 16.5t21.5 41.5q0 23 -18.5 37t-52.5 14q-30 0 -47 -7l-38 53l117 117h-162v77h263v-75z" />
    <glyph glyph-name="acute" unicode="&#xb4;" horiz-adv-x="293" 
d="M43 598l85 132h122l-99 -132h-108z" />
    <glyph glyph-name="uni00B5" unicode="&#xb5;" horiz-adv-x="577" 
d="M534 97q10 0 22 2v-99q-32 -6 -52 -6q-75 0 -98 62q-59 -67 -141 -67q-50 0 -78 25v-194h-110v687h110v-323q0 -48 19.5 -68.5t60.5 -20.5q72 0 120 53v359h110v-358q0 -29 8.5 -40.5t28.5 -11.5z" />
    <glyph glyph-name="paragraph" unicode="&#xb6;" horiz-adv-x="668" 
d="M582 700v-840h-91v753h-106v-753h-92v402h-30q-102 0 -166.5 60t-64.5 159t64.5 159t166.5 60h319z" />
    <glyph glyph-name="periodcentered" unicode="&#xb7;" horiz-adv-x="235" 
d="M117 264q-31 0 -52.5 21.5t-21.5 52.5t21.5 52.5t52.5 21.5t53 -21.5t22 -52.5t-22 -52.5t-53 -21.5z" />
    <glyph glyph-name="cedilla" unicode="&#xb8;" horiz-adv-x="326" 
d="M179 -53q46 -3 75 -25.5t29 -64.5q0 -48 -35 -73t-88 -25q-75 0 -117 34l26 55q39 -27 89 -27q53 0 53 36q0 33 -63 33q-18 0 -30 -3l-24 32l46 96l65 -15z" />
    <glyph glyph-name="uni00B9" unicode="&#xb9;" horiz-adv-x="363" 
d="M244 451h101v-68h-290v68h105v254l-100 -27v78l142 46h42v-351z" />
    <glyph glyph-name="ordmasculine" unicode="&#xba;" horiz-adv-x="407" 
d="M203 349q-84 0 -130 52.5t-46 133.5v20q0 81 46 133.5t130 52.5t130 -52.5t46 -133.5v-20q0 -81 -46 -133.5t-130 -52.5zM203 437q82 0 82 100v16q0 100 -82 100q-41 0 -61.5 -27t-20.5 -73v-16q0 -46 20.5 -73t61.5 -27z" />
    <glyph glyph-name="guillemotright" unicode="&#xbb;" horiz-adv-x="563" 
d="M51 65l162 197l-162 197h105l159 -192v-9l-159 -193h-105zM248 65l162 197l-162 197h104l159 -192v-9l-159 -193h-104z" />
    <glyph glyph-name="onequarter" unicode="&#xbc;" horiz-adv-x="932" 
d="M55 283v68h105v254l-100 -27v78l142 46h42v-351h101v-68h-290zM686 700h98l-485 -700h-98zM863 155h58v-78h-58v-77h-83v77h-194v74l153 269h124v-265zM672 155h108v189z" />
    <glyph glyph-name="onehalf" unicode="&#xbd;" horiz-adv-x="985" 
d="M55 283v68h105v254l-100 -27v78l142 46h42v-351h101v-68h-290zM686 700h98l-485 -700h-98zM813 137q-48 -38 -59 -60h190v-77h-289v28q0 46 21.5 82t76.5 79l34 27q30 24 41 33.5t21.5 25.5t10.5 32q0 42 -68 42q-65 0 -116 -44v85q42 40 125 40q68 0 105.5 -35t37.5 -86
q0 -40 -21 -71.5t-79 -76.5z" />
    <glyph glyph-name="threequarters" unicode="&#xbe;" horiz-adv-x="903" 
d="M326 413q0 -61 -45 -100.5t-118 -39.5q-75 0 -126 30v84q53 -33 124 -33q38 0 59.5 16.5t21.5 41.5q0 23 -18.5 37t-52.5 14q-30 0 -47 -7l-38 53l117 117h-162v77h263v-75l-93 -92q52 -6 83.5 -38t31.5 -85zM657 700h98l-485 -700h-98zM834 155h58v-78h-58v-77h-83v77
h-194v74l153 269h124v-265zM643 155h108v189z" />
    <glyph glyph-name="questiondown" unicode="&#xbf;" horiz-adv-x="415" 
d="M280 518q31 0 52.5 -21.5t21.5 -52.5t-21.5 -52.5t-52.5 -21.5t-53 21.5t-22 52.5t22 52.5t53 21.5zM334 293q0 -54 -17 -91t-62 -83l-31 -33q-34 -35 -50 -60t-16 -52q0 -37 29 -54t76 -17q89 0 152 42v-110q-23 -18 -67.5 -29t-86.5 -11q-100 0 -162.5 41.5
t-62.5 125.5q0 52 23.5 91.5t80.5 98.5l44 46q33 33 37 95h113z" />
    <glyph glyph-name="Agrave" unicode="&#xc0;" horiz-adv-x="674" 
d="M402 761h-108l-99 132h122zM539 0l-60 177h-287l-60 -177h-119l244 700h160l244 -700h-122zM230 287h211l-105 311z" />
    <glyph glyph-name="Aacute" unicode="&#xc1;" horiz-adv-x="674" 
d="M479 893l-99 -132h-108l85 132h122zM539 0l-60 177h-287l-60 -177h-119l244 700h160l244 -700h-122zM230 287h211l-105 311z" />
    <glyph glyph-name="Acircumflex" unicode="&#xc2;" horiz-adv-x="674" 
d="M336 838l-62 -77h-97l87 132h145l87 -132h-97zM539 0l-60 177h-287l-60 -177h-119l244 700h160l244 -700h-122zM230 287h211l-105 311z" />
    <glyph glyph-name="Atilde" unicode="&#xc3;" horiz-adv-x="674" 
d="M272 804q-24 0 -26 -51h-67q3 125 91 125q32 0 67 -21l23 -14q26 -16 41 -16q23 0 25 51h68q-3 -125 -92 -125q-32 0 -66 21l-23 14q-26 16 -41 16zM539 0l-60 177h-287l-60 -177h-119l244 700h160l244 -700h-122zM230 287h211l-105 311z" />
    <glyph glyph-name="Adieresis" unicode="&#xc4;" horiz-adv-x="674" 
d="M225 755q-27 0 -47 19.5t-20 46.5t20 46.5t47 19.5q28 0 48 -19.5t20 -46.5q0 -28 -20 -47t-48 -19zM449 755q-28 0 -48 19t-20 47q0 27 20 46.5t48 19.5q27 0 47 -19.5t20 -46.5t-20 -46.5t-47 -19.5zM539 0l-60 177h-287l-60 -177h-119l244 700h160l244 -700h-122z
M230 287h211l-105 311z" />
    <glyph glyph-name="Aring" unicode="&#xc5;" horiz-adv-x="674" 
d="M539 0l-60 177h-287l-60 -177h-119l242 695q-43 35 -43 91q0 49 36 84.5t89 35.5t89.5 -35.5t36.5 -84.5q0 -55 -44 -92l242 -694h-122zM337 848q-27 0 -45 -18t-18 -44t18 -44t45 -18q28 0 45.5 17.5t17.5 44.5t-17.5 44.5t-45.5 17.5zM230 287h211l-105 311z" />
    <glyph glyph-name="AE" unicode="&#xc6;" horiz-adv-x="961" 
d="M562 110h343v-110h-457v177h-230l-96 -177h-132l386 700h527v-110h-341v-173h309v-110h-309v-197zM277 287h171v316z" />
    <glyph glyph-name="Ccedilla" unicode="&#xc7;" horiz-adv-x="608" 
d="M380 603q-108 0 -160 -63t-52 -170v-40q0 -107 52 -170t160 -63q91 0 170 42v-112q-61 -40 -172 -40h-3l-20 -40q46 -3 75 -25.5t29 -64.5q0 -48 -35 -73t-88 -25q-75 0 -117 34l26 55q39 -27 89 -27q53 0 53 36q0 33 -63 33q-18 0 -30 -3l-24 32l35 74q-124 22 -188 113
t-64 221v46q0 149 82.5 244.5t242.5 95.5q111 0 172 -40v-112q-79 42 -170 42z" />
    <glyph glyph-name="Egrave" unicode="&#xc8;" horiz-adv-x="599" 
d="M274 761l-99 132h122l85 -132h-108zM200 110h343v-110h-457v700h455v-110h-341v-173h309v-110h-309v-197z" />
    <glyph glyph-name="Eacute" unicode="&#xc9;" horiz-adv-x="599" 
d="M252 761l85 132h122l-99 -132h-108zM200 110h343v-110h-457v700h455v-110h-341v-173h309v-110h-309v-197z" />
    <glyph glyph-name="Ecircumflex" unicode="&#xca;" horiz-adv-x="599" 
d="M316 838l-62 -77h-97l87 132h145l87 -132h-97zM200 110h343v-110h-457v700h455v-110h-341v-173h309v-110h-309v-197z" />
    <glyph glyph-name="Edieresis" unicode="&#xcb;" horiz-adv-x="599" 
d="M205 755q-27 0 -47 19.5t-20 46.5t20 46.5t47 19.5q28 0 48 -19.5t20 -46.5q0 -28 -20 -47t-48 -19zM429 755q-28 0 -48 19t-20 47q0 27 20 46.5t48 19.5q27 0 47 -19.5t20 -46.5t-20 -46.5t-47 -19.5zM200 110h343v-110h-457v700h455v-110h-341v-173h309v-110h-309v-197
z" />
    <glyph glyph-name="Igrave" unicode="&#xcc;" horiz-adv-x="412" 
d="M271 761h-108l-99 132h122zM357 603h-94v-506h94v-97h-302v97h94v506h-94v97h302v-97z" />
    <glyph glyph-name="Iacute" unicode="&#xcd;" horiz-adv-x="412" 
d="M348 893l-99 -132h-108l85 132h122zM357 603h-94v-506h94v-97h-302v97h94v506h-94v97h302v-97z" />
    <glyph glyph-name="Icircumflex" unicode="&#xce;" horiz-adv-x="412" 
d="M205 838l-62 -77h-97l87 132h145l87 -132h-97zM357 700v-97h-94v-506h94v-97h-302v97h94v506h-94v97h302z" />
    <glyph glyph-name="Idieresis" unicode="&#xcf;" horiz-adv-x="412" 
d="M162 821q0 -28 -20 -47t-48 -19q-27 0 -47 19.5t-20 46.5t20 46.5t47 19.5q28 0 48 -19.5t20 -46.5zM318 887q27 0 47 -19.5t20 -46.5t-20 -46.5t-47 -19.5q-28 0 -48 19t-20 47q0 27 20 46.5t48 19.5zM357 700v-97h-94v-506h94v-97h-302v97h94v506h-94v97h302z" />
    <glyph glyph-name="Eth" unicode="&#xd0;" horiz-adv-x="699" 
d="M341 700q148 0 226.5 -91.5t78.5 -240.5v-36q0 -149 -78.5 -240.5t-226.5 -91.5h-235v299h-71v102h71v299h235zM531 333v34q0 101 -47.5 162t-142.5 61h-121v-189h160v-102h-160v-191h121q95 0 142.5 61.5t47.5 163.5z" />
    <glyph glyph-name="Ntilde" unicode="&#xd1;" horiz-adv-x="708" 
d="M295 804q-24 0 -26 -51h-67q3 125 91 125q33 0 67 -21l23 -14q26 -16 41 -16q23 0 25 51h68q-3 -125 -92 -125q-31 0 -66 21l-23 14q-26 16 -41 16zM511 700h110v-700h-121l-304 522v-522h-110v700h125l300 -515v515z" />
    <glyph glyph-name="Ograve" unicode="&#xd2;" horiz-adv-x="715" 
d="M315 761l-99 132h122l85 -132h-108zM358 713q148 0 226.5 -95t78.5 -250v-36q0 -155 -78.5 -250t-226.5 -95t-226.5 95t-78.5 250v36q0 155 78.5 250t226.5 95zM547 367q0 107 -47 171.5t-142 64.5t-142.5 -64.5t-47.5 -171.5v-34q0 -106 47.5 -171t142.5 -65t142 64.5
t47 171.5v34z" />
    <glyph glyph-name="Oacute" unicode="&#xd3;" horiz-adv-x="715" 
d="M293 761l85 132h122l-99 -132h-108zM358 713q148 0 226.5 -95t78.5 -250v-36q0 -155 -78.5 -250t-226.5 -95t-226.5 95t-78.5 250v36q0 155 78.5 250t226.5 95zM547 367q0 107 -47 171.5t-142 64.5t-142.5 -64.5t-47.5 -171.5v-34q0 -106 47.5 -171t142.5 -65t142 64.5
t47 171.5v34z" />
    <glyph glyph-name="Ocircumflex" unicode="&#xd4;" horiz-adv-x="715" 
d="M357 838l-62 -77h-97l87 132h145l87 -132h-97zM358 713q148 0 226.5 -95t78.5 -250v-36q0 -155 -78.5 -250t-226.5 -95t-226.5 95t-78.5 250v36q0 155 78.5 250t226.5 95zM547 333v34q0 107 -47 171.5t-142 64.5t-142.5 -64.5t-47.5 -171.5v-34q0 -106 47.5 -171
t142.5 -65t142 64.5t47 171.5z" />
    <glyph glyph-name="Otilde" unicode="&#xd5;" horiz-adv-x="715" 
d="M200 753q3 125 91 125q33 0 67 -21l23 -14q26 -16 41 -16q23 0 25 51h68q-3 -125 -92 -125q-31 0 -66 21l-23 14q-26 16 -41 16q-24 0 -26 -51h-67zM358 713q148 0 226.5 -95t78.5 -250v-36q0 -155 -78.5 -250t-226.5 -95t-226.5 95t-78.5 250v36q0 155 78.5 250
t226.5 95zM547 367q0 107 -47 171.5t-142 64.5t-142.5 -64.5t-47.5 -171.5v-34q0 -106 47.5 -171t142.5 -65t142 64.5t47 171.5v34z" />
    <glyph glyph-name="Odieresis" unicode="&#xd6;" horiz-adv-x="715" 
d="M246 755q-27 0 -47 19.5t-20 46.5t20 46.5t47 19.5q28 0 48 -19.5t20 -46.5q0 -28 -20 -47t-48 -19zM470 755q-28 0 -48 19t-20 47q0 27 20 46.5t48 19.5q27 0 47 -19.5t20 -46.5t-20 -46.5t-47 -19.5zM358 713q148 0 226.5 -95t78.5 -250v-36q0 -155 -78.5 -250
t-226.5 -95t-226.5 95t-78.5 250v36q0 155 78.5 250t226.5 95zM547 367q0 107 -47 171.5t-142 64.5t-142.5 -64.5t-47.5 -171.5v-34q0 -106 47.5 -171t142.5 -65t142 64.5t47 171.5v34z" />
    <glyph glyph-name="multiply" unicode="&#xd7;" 
d="M485 489l-142 -142l142 -142l-63 -63l-142 142l-142 -142l-63 63l142 142l-142 142l63 63l142 -142l142 142z" />
    <glyph glyph-name="Oslash" unicode="&#xd8;" horiz-adv-x="715" 
d="M591 610q72 -92 72 -242v-36q0 -155 -78.5 -250t-226.5 -95q-100 0 -172 47l-36 -52l-68 48l42 61q-71 92 -71 241v36q0 155 78.5 250t226.5 95q100 0 171 -46l35 51l69 -48zM168 333q0 -83 28 -140l267 381q-45 29 -105 29q-95 0 -142.5 -64.5t-47.5 -171.5v-34z
M547 333v34q0 84 -28 141l-267 -381q44 -30 106 -30q95 0 142 64.5t47 171.5z" />
    <glyph glyph-name="Ugrave" unicode="&#xd9;" horiz-adv-x="677" 
d="M295 761l-99 132h122l85 -132h-108zM338 -13q-128 0 -193.5 71t-65.5 187v455h115v-453q0 -152 144 -152q145 0 145 152v453h115v-455q0 -116 -65.5 -187t-194.5 -71z" />
    <glyph glyph-name="Uacute" unicode="&#xda;" horiz-adv-x="677" 
d="M273 761l85 132h122l-99 -132h-108zM338 -13q-128 0 -193.5 71t-65.5 187v455h115v-453q0 -152 144 -152q145 0 145 152v453h115v-455q0 -116 -65.5 -187t-194.5 -71z" />
    <glyph glyph-name="Ucircumflex" unicode="&#xdb;" horiz-adv-x="677" 
d="M337 838l-62 -77h-97l87 132h145l87 -132h-97zM483 700h115v-455q0 -116 -65.5 -187t-194.5 -71q-128 0 -193.5 71t-65.5 187v455h115v-453q0 -152 144 -152q145 0 145 152v453z" />
    <glyph glyph-name="Udieresis" unicode="&#xdc;" horiz-adv-x="677" 
d="M226 755q-27 0 -47 19.5t-20 46.5t20 46.5t47 19.5q28 0 48 -19.5t20 -46.5q0 -28 -20 -47t-48 -19zM450 755q-28 0 -48 19t-20 47q0 27 20 46.5t48 19.5q27 0 47 -19.5t20 -46.5t-20 -46.5t-47 -19.5zM338 -13q-128 0 -193.5 71t-65.5 187v455h115v-453q0 -152 144 -152
q145 0 145 152v453h115v-455q0 -116 -65.5 -187t-194.5 -71z" />
    <glyph glyph-name="Yacute" unicode="&#xdd;" horiz-adv-x="615" 
d="M450 893l-99 -132h-108l85 132h122zM604 700l-240 -396v-304h-113v304l-240 396h129l169 -281l168 281h127z" />
    <glyph glyph-name="Thorn" unicode="&#xde;" horiz-adv-x="616" 
d="M354 572q102 0 166.5 -59.5t64.5 -158.5t-64.5 -158.5t-166.5 -59.5h-154v-136h-114v700h114v-128h154zM352 246q57 0 88 30t31 78t-31 78t-88 30h-152v-216h152z" />
    <glyph glyph-name="germandbls" unicode="&#xdf;" horiz-adv-x="606" 
d="M397 -9q-82 0 -128 34v103q58 -38 123 -38q36 0 56.5 16t20.5 45q0 24 -14 39.5t-49 36.5l-34 20q-54 33 -77 60t-23 67q0 27 12 50.5t29 41t34 34t29 37.5t12 43q0 27 -23.5 46t-65.5 19q-52 0 -82 -34.5t-30 -94.5v-516h-110v523q0 104 62 162t165 58q97 0 147.5 -45.5
t50.5 -107.5q0 -42 -18 -74.5t-39 -48.5t-39 -35.5t-18 -38.5q0 -18 14 -31.5t51 -35.5l31 -18q94 -57 94 -149q0 -80 -51.5 -124t-129.5 -44z" />
    <glyph glyph-name="agrave" unicode="&#xe0;" horiz-adv-x="570" 
d="M350 598h-108l-99 132h122zM391 507h101v-507h-101v52q-50 -61 -138 -61q-101 0 -157.5 70.5t-56.5 176.5v31q0 106 56.5 176.5t157.5 70.5q88 0 138 -61v52zM268 98q75 0 114 60v191q-39 60 -114 60q-58 0 -87.5 -39t-29.5 -104v-25q0 -65 29.5 -104t87.5 -39z" />
    <glyph glyph-name="aacute" unicode="&#xe1;" horiz-adv-x="570" 
d="M427 730l-99 -132h-108l85 132h122zM391 507h101v-507h-101v52q-50 -61 -138 -61q-101 0 -157.5 70.5t-56.5 176.5v31q0 106 56.5 176.5t157.5 70.5q88 0 138 -61v52zM268 98q75 0 114 60v191q-39 60 -114 60q-58 0 -87.5 -39t-29.5 -104v-25q0 -65 29.5 -104t87.5 -39z
" />
    <glyph glyph-name="acircumflex" unicode="&#xe2;" horiz-adv-x="570" 
d="M284 675l-62 -77h-97l87 132h145l87 -132h-97zM391 507h101v-507h-101v52q-50 -61 -138 -61q-101 0 -157.5 70.5t-56.5 176.5v31q0 106 56.5 176.5t157.5 70.5q88 0 138 -61v52zM268 98q75 0 114 60v191q-39 60 -114 60q-58 0 -87.5 -39t-29.5 -104v-25q0 -65 29.5 -104
t87.5 -39z" />
    <glyph glyph-name="atilde" unicode="&#xe3;" horiz-adv-x="570" 
d="M220 641q-24 0 -26 -51h-67q3 125 91 125q32 0 67 -21l23 -14q26 -16 41 -16q23 0 25 51h68q-3 -125 -92 -125q-32 0 -66 21l-23 14q-26 16 -41 16zM391 507h101v-507h-101v52q-50 -61 -138 -61q-101 0 -157.5 70.5t-56.5 176.5v31q0 106 56.5 176.5t157.5 70.5
q88 0 138 -61v52zM268 98q75 0 114 60v191q-39 60 -114 60q-58 0 -87.5 -39t-29.5 -104v-25q0 -65 29.5 -104t87.5 -39z" />
    <glyph glyph-name="adieresis" unicode="&#xe4;" horiz-adv-x="570" 
d="M185 595q-27 0 -47 19.5t-20 46.5t20 46.5t47 19.5q28 0 48 -19.5t20 -46.5q0 -28 -20 -47t-48 -19zM385 595q-27 0 -47 19.5t-20 46.5t20 46.5t47 19.5q28 0 48 -19.5t20 -46.5q0 -28 -20 -47t-48 -19zM391 507h101v-507h-101v52q-50 -61 -138 -61q-101 0 -157.5 70.5
t-56.5 176.5v31q0 106 56.5 176.5t157.5 70.5q88 0 138 -61v52zM268 98q75 0 114 60v191q-39 60 -114 60q-58 0 -87.5 -39t-29.5 -104v-25q0 -65 29.5 -104t87.5 -39z" />
    <glyph glyph-name="aring" unicode="&#xe5;" horiz-adv-x="570" 
d="M285 572q-49 0 -81.5 32.5t-32.5 77.5t32.5 77t81.5 32t81.5 -32t32.5 -77t-32.5 -77.5t-81.5 -32.5zM285 735q-24 0 -39 -15.5t-15 -37.5q0 -23 15 -38.5t39 -15.5t39 15.5t15 38.5q0 22 -15 37.5t-39 15.5zM391 507h101v-507h-101v52q-50 -61 -138 -61
q-101 0 -157.5 70.5t-56.5 176.5v31q0 106 56.5 176.5t157.5 70.5q88 0 138 -61v52zM268 98q75 0 114 60v191q-39 60 -114 60q-58 0 -87.5 -39t-29.5 -104v-25q0 -65 29.5 -104t87.5 -39z" />
    <glyph glyph-name="ae" unicode="&#xe6;" horiz-adv-x="799" 
d="M757 289v-71h-317q12 -124 149 -124q75 0 138 38v-106q-50 -38 -143 -38q-122 0 -190 71q-71 -69 -181 -69q-76 0 -124 39.5t-48 108.5q0 170 289 177v11q0 47 -23.5 66.5t-77.5 19.5q-88 0 -157 -53v114q67 46 171 46q107 0 158 -56q57 57 149 57q100 0 153.5 -61
t53.5 -170zM442 308h207q-6 111 -101 111q-91 0 -106 -111zM229 93q73 0 116 48q-12 36 -15 81q-178 -7 -178 -77q0 -52 77 -52z" />
    <glyph glyph-name="ccedilla" unicode="&#xe7;" horiz-adv-x="452" 
d="M287 413q-70 0 -103 -39.5t-33 -107.5v-25q0 -68 33 -107.5t103 -39.5q64 0 119 29v-107q-44 -28 -125 -28l-20 -41q46 -3 75 -25.5t29 -64.5q0 -48 -34.5 -73t-88.5 -25q-75 0 -117 34l26 55q39 -27 89 -27q53 0 53 36q0 33 -63 33q-18 0 -30 -3l-24 32l37 76
q-84 20 -129 86t-45 157v31q0 108 62.5 179t176.5 71q82 0 128 -28v-107q-55 29 -119 29z" />
    <glyph glyph-name="egrave" unicode="&#xe8;" horiz-adv-x="517" 
d="M335 598h-108l-99 132h122zM475 289v-71h-325q12 -124 154 -124q77 0 140 38v-106q-50 -38 -145 -38q-121 0 -190.5 67t-69.5 183v31q0 111 60 181t164 70q102 0 157 -61t55 -170zM261 419q-94 0 -109 -111h215q-6 111 -106 111z" />
    <glyph glyph-name="eacute" unicode="&#xe9;" horiz-adv-x="517" 
d="M412 730l-99 -132h-108l85 132h122zM475 289v-71h-325q12 -124 154 -124q77 0 140 38v-106q-50 -38 -145 -38q-121 0 -190.5 67t-69.5 183v31q0 111 60 181t164 70q102 0 157 -61t55 -170zM261 419q-94 0 -109 -111h215q-6 111 -106 111z" />
    <glyph glyph-name="ecircumflex" unicode="&#xea;" horiz-adv-x="517" 
d="M269 675l-62 -77h-97l87 132h145l87 -132h-97zM475 289v-71h-325q12 -124 154 -124q77 0 140 38v-106q-50 -38 -145 -38q-121 0 -190.5 67t-69.5 183v31q0 111 60 181t164 70q102 0 157 -61t55 -170zM261 419q-94 0 -109 -111h215q-6 111 -106 111z" />
    <glyph glyph-name="edieresis" unicode="&#xeb;" horiz-adv-x="517" 
d="M170 595q-27 0 -47 19.5t-20 46.5t20 46.5t47 19.5q28 0 48 -19.5t20 -46.5q0 -28 -20 -47t-48 -19zM370 595q-27 0 -47 19.5t-20 46.5t20 46.5t47 19.5q28 0 48 -19.5t20 -46.5q0 -28 -20 -47t-48 -19zM475 289v-71h-325q12 -124 154 -124q77 0 140 38v-106
q-50 -38 -145 -38q-121 0 -190.5 67t-69.5 183v31q0 111 60 181t164 70q102 0 157 -61t55 -170zM261 419q-94 0 -109 -111h215q-6 111 -106 111z" />
    <glyph glyph-name="igrave" unicode="&#xec;" horiz-adv-x="265" 
d="M89 598l-99 132h122l85 -132h-108zM77 0v507h110v-507h-110z" />
    <glyph glyph-name="iacute" unicode="&#xed;" horiz-adv-x="265" 
d="M67 598l85 132h122l-99 -132h-108zM77 0v507h110v-507h-110z" />
    <glyph glyph-name="icircumflex" unicode="&#xee;" horiz-adv-x="265" 
d="M204 730l87 -132h-97l-63 77l-62 -77h-97l87 132h145zM77 0v507h110v-507h-110z" />
    <glyph glyph-name="idieresis" unicode="&#xef;" horiz-adv-x="265" 
d="M32 595q-27 0 -47 19.5t-20 46.5t20 46.5t47 19.5q28 0 48 -19.5t20 -46.5q0 -28 -20 -47t-48 -19zM232 595q-27 0 -47 19.5t-20 46.5t20 46.5t47 19.5q28 0 48 -19.5t20 -46.5q0 -28 -20 -47t-48 -19zM77 0v507h110v-507h-110z" />
    <glyph glyph-name="eth" unicode="&#xf0;" horiz-adv-x="541" 
d="M406 606q95 -135 95 -339v-33q0 -116 -61 -181.5t-169 -65.5q-107 0 -169.5 66t-62.5 180v30q0 101 60.5 163.5t159.5 62.5q57 0 104 -26q-19 53 -59 105l-122 -45l-23 67l97 36q-44 47 -117 104h148q42 -35 71 -66l94 35l24 -67zM389 237v20q0 53 -5 85q-40 43 -113 43
q-57 0 -88.5 -33.5t-31.5 -94.5v-20q0 -145 119 -145t119 145z" />
    <glyph glyph-name="ntilde" unicode="&#xf1;" horiz-adv-x="570" 
d="M225 641q-24 0 -26 -51h-67q3 125 91 125q32 0 67 -21l23 -14q26 -16 41 -16q23 0 25 51h68q-3 -125 -92 -125q-31 0 -66 21l-23 14q-26 16 -41 16zM331 518q82 0 127 -46.5t45 -126.5v-345h-110v318q0 47 -19.5 70.5t-65.5 23.5q-70 0 -121 -55v-357h-110v507h101v-51
q60 62 153 62z" />
    <glyph glyph-name="ograve" unicode="&#xf2;" horiz-adv-x="551" 
d="M232 598l-99 132h122l85 -132h-108zM275 -13q-112 0 -174 71t-62 180v31q0 109 62 180t174 71q113 0 174.5 -71t61.5 -180v-31q0 -109 -61.5 -180t-174.5 -71zM275 91q62 0 93 41t31 109v25q0 68 -31 109t-93 41t-93 -41t-31 -109v-25q0 -68 31 -109t93 -41z" />
    <glyph glyph-name="oacute" unicode="&#xf3;" horiz-adv-x="551" 
d="M210 598l85 132h122l-99 -132h-108zM275 -13q-112 0 -174 71t-62 180v31q0 109 62 180t174 71q113 0 174.5 -71t61.5 -180v-31q0 -109 -61.5 -180t-174.5 -71zM275 91q62 0 93 41t31 109v25q0 68 -31 109t-93 41t-93 -41t-31 -109v-25q0 -68 31 -109t93 -41z" />
    <glyph glyph-name="ocircumflex" unicode="&#xf4;" horiz-adv-x="551" 
d="M274 675l-62 -77h-97l87 132h145l87 -132h-97zM275 520q113 0 174.5 -71t61.5 -180v-31q0 -109 -61.5 -180t-174.5 -71q-112 0 -174 71t-62 180v31q0 109 62 180t174 71zM399 241v25q0 68 -31 109t-93 41t-93 -41t-31 -109v-25q0 -68 31 -109t93 -41t93 41t31 109z" />
    <glyph glyph-name="otilde" unicode="&#xf5;" horiz-adv-x="551" 
d="M117 590q3 125 91 125q32 0 67 -21l23 -14q26 -16 41 -16q23 0 25 51h68q-3 -125 -92 -125q-32 0 -66 21l-23 14q-26 16 -41 16q-24 0 -26 -51h-67zM275 -13q-112 0 -174 71t-62 180v31q0 109 62 180t174 71q113 0 174.5 -71t61.5 -180v-31q0 -109 -61.5 -180t-174.5 -71
zM275 91q62 0 93 41t31 109v25q0 68 -31 109t-93 41t-93 -41t-31 -109v-25q0 -68 31 -109t93 -41z" />
    <glyph glyph-name="odieresis" unicode="&#xf6;" horiz-adv-x="551" 
d="M175 595q-27 0 -47 19.5t-20 46.5t20 46.5t47 19.5q28 0 48 -19.5t20 -46.5q0 -28 -20 -47t-48 -19zM375 595q-27 0 -47 19.5t-20 46.5t20 46.5t47 19.5q28 0 48 -19.5t20 -46.5q0 -28 -20 -47t-48 -19zM275 -13q-112 0 -174 71t-62 180v31q0 109 62 180t174 71
q113 0 174.5 -71t61.5 -180v-31q0 -109 -61.5 -180t-174.5 -71zM275 91q62 0 93 41t31 109v25q0 68 -31 109t-93 41t-93 -41t-31 -109v-25q0 -68 31 -109t93 -41z" />
    <glyph glyph-name="divide" unicode="&#xf7;" 
d="M280 457q-28 0 -48.5 20t-20.5 48t20.5 48t48.5 20q29 0 49 -20t20 -48t-20 -48t-49 -20zM71 302v90h418v-90h-418zM280 101q-28 0 -48.5 20t-20.5 48t20.5 48t48.5 20q29 0 49 -20t20 -48t-20 -48t-49 -20z" />
    <glyph glyph-name="oslash" unicode="&#xf8;" horiz-adv-x="551" 
d="M454 444q57 -69 57 -175v-31q0 -109 -61.5 -180t-174.5 -71q-71 0 -121 29l-26 -37l-62 42l30 43q-57 68 -57 174v31q0 109 62 180t174 71q67 0 122 -29l26 37l61 -42zM151 241q0 -45 14 -79l170 241q-28 13 -60 13q-62 0 -93 -41t-31 -109v-25zM399 241v25q0 48 -14 79
l-169 -241q26 -13 59 -13q62 0 93 41t31 109z" />
    <glyph glyph-name="ugrave" unicode="&#xf9;" horiz-adv-x="564" 
d="M344 598h-108l-99 132h122zM377 507h110v-507h-101v50q-59 -61 -150 -61q-80 0 -124.5 46.5t-44.5 126.5v345h110v-318q0 -47 18.5 -70.5t63.5 -23.5q69 0 118 55v357z" />
    <glyph glyph-name="uacute" unicode="&#xfa;" horiz-adv-x="564" 
d="M421 730l-99 -132h-108l85 132h122zM377 507h110v-507h-101v50q-59 -61 -150 -61q-80 0 -124.5 46.5t-44.5 126.5v345h110v-318q0 -47 18.5 -70.5t63.5 -23.5q69 0 118 55v357z" />
    <glyph glyph-name="ucircumflex" unicode="&#xfb;" horiz-adv-x="564" 
d="M278 675l-62 -77h-97l87 132h145l87 -132h-97zM377 507h110v-507h-101v50q-59 -61 -150 -61q-80 0 -124.5 46.5t-44.5 126.5v345h110v-318q0 -47 18.5 -70.5t63.5 -23.5q69 0 118 55v357z" />
    <glyph glyph-name="udieresis" unicode="&#xfc;" horiz-adv-x="564" 
d="M179 595q-27 0 -47 19.5t-20 46.5t20 46.5t47 19.5q28 0 48 -19.5t20 -46.5q0 -28 -20 -47t-48 -19zM379 595q-27 0 -47 19.5t-20 46.5t20 46.5t47 19.5q28 0 48 -19.5t20 -46.5q0 -28 -20 -47t-48 -19zM377 507h110v-507h-101v50q-59 -61 -150 -61q-80 0 -124.5 46.5
t-44.5 126.5v345h110v-318q0 -47 18.5 -70.5t63.5 -23.5q69 0 118 55v357z" />
    <glyph glyph-name="yacute" unicode="&#xfd;" horiz-adv-x="523" 
d="M404 730l-99 -132h-108l85 132h122zM387 507h117l-176 -489q-42 -115 -86 -162.5t-125 -47.5q-45 0 -68 10v103q19 -8 51 -8q76 0 107 80l-188 514h118l126 -355z" />
    <glyph glyph-name="thorn" unicode="&#xfe;" horiz-adv-x="570" 
d="M317 516q101 0 157.5 -70.5t56.5 -176.5v-31q0 -106 -56.5 -176.5t-157.5 -70.5q-80 0 -130 52v-223h-110v910h110v-266q50 52 130 52zM419 241v25q0 65 -29.5 104t-87.5 39q-76 0 -115 -62v-187q39 -62 115 -62q58 0 87.5 39t29.5 104z" />
    <glyph glyph-name="ydieresis" unicode="&#xff;" horiz-adv-x="523" 
d="M162 595q-27 0 -47 19.5t-20 46.5t20 46.5t47 19.5q28 0 48 -19.5t20 -46.5q0 -28 -20 -47t-48 -19zM362 595q-27 0 -47 19.5t-20 46.5t20 46.5t47 19.5q28 0 48 -19.5t20 -46.5q0 -28 -20 -47t-48 -19zM387 507h117l-176 -489q-42 -115 -86 -162.5t-125 -47.5
q-45 0 -68 10v103q19 -8 51 -8q76 0 107 80l-188 514h118l126 -355z" />
    <glyph glyph-name="Amacron" unicode="&#x100;" horiz-adv-x="674" 
d="M476 860v-86h-278v86h278zM539 0l-60 177h-287l-60 -177h-119l244 700h160l244 -700h-122zM230 287h211l-105 311z" />
    <glyph glyph-name="amacron" unicode="&#x101;" horiz-adv-x="570" 
d="M424 697v-86h-278v86h278zM391 507h101v-507h-101v52q-50 -61 -138 -61q-101 0 -157.5 70.5t-56.5 176.5v31q0 106 56.5 176.5t157.5 70.5q88 0 138 -61v52zM268 98q75 0 114 60v191q-39 60 -114 60q-58 0 -87.5 -39t-29.5 -104v-25q0 -65 29.5 -104t87.5 -39z" />
    <glyph glyph-name="Abreve" unicode="&#x102;" horiz-adv-x="674" 
d="M337 754q-71 0 -109.5 38.5t-41.5 98.5h77q3 -25 21 -43t53 -18t53.5 18t21.5 43h77q-3 -60 -41.5 -98.5t-110.5 -38.5zM539 0l-60 177h-287l-60 -177h-119l244 700h160l244 -700h-122zM230 287h211l-105 311z" />
    <glyph glyph-name="abreve" unicode="&#x103;" horiz-adv-x="570" 
d="M285 591q-71 0 -109.5 38.5t-41.5 98.5h77q3 -25 21 -43t53 -18t53.5 18t21.5 43h77q-3 -60 -41.5 -98.5t-110.5 -38.5zM391 507h101v-507h-101v52q-50 -61 -138 -61q-101 0 -157.5 70.5t-56.5 176.5v31q0 106 56.5 176.5t157.5 70.5q88 0 138 -61v52zM268 98
q75 0 114 60v191q-39 60 -114 60q-58 0 -87.5 -39t-29.5 -104v-25q0 -65 29.5 -104t87.5 -39z" />
    <glyph glyph-name="Aogonek" unicode="&#x104;" horiz-adv-x="674" 
d="M588 -86q0 -18 12.5 -28.5t32.5 -10.5q16 0 28 3v-77q-17 -6 -49 -6q-52 0 -84 27t-32 71q0 61 54 107h-11l-60 177h-287l-60 -177h-119l244 700h160l244 -700q-73 -35 -73 -86zM230 287h211l-105 311z" />
    <glyph glyph-name="aogonek" unicode="&#x105;" horiz-adv-x="570" 
d="M492 0q-73 -35 -73 -86q0 -18 12.5 -28.5t32.5 -10.5q16 0 28 3v-77q-17 -6 -49 -6q-52 0 -84 27t-32 71q0 67 64 115v44q-50 -61 -138 -61q-101 0 -157.5 70.5t-56.5 176.5v31q0 106 56.5 176.5t157.5 70.5q88 0 138 -61v52h101v-507zM268 98q75 0 114 60v191
q-39 60 -114 60q-58 0 -87.5 -39t-29.5 -104v-25q0 -65 29.5 -104t87.5 -39z" />
    <glyph glyph-name="Cacute" unicode="&#x106;" horiz-adv-x="608" 
d="M312 761l85 132h122l-99 -132h-108zM168 330q0 -107 52 -170t160 -63q91 0 170 42v-112q-61 -40 -172 -40q-160 0 -242.5 95.5t-82.5 244.5v46q0 149 82.5 244.5t242.5 95.5q111 0 172 -40v-112q-79 42 -170 42q-108 0 -160 -63t-52 -170v-40z" />
    <glyph glyph-name="cacute" unicode="&#x107;" horiz-adv-x="452" 
d="M206 598l85 132h122l-99 -132h-108zM278 -12q-114 0 -176.5 71t-62.5 179v31q0 108 62.5 179t176.5 71q82 0 128 -28v-107q-55 29 -119 29q-70 0 -103 -39.5t-33 -107.5v-25q0 -68 33 -107.5t103 -39.5q64 0 119 29v-107q-46 -28 -128 -28z" />
    <glyph glyph-name="Cdotaccent" unicode="&#x10a;" horiz-adv-x="608" 
d="M377 755q-28 0 -48.5 20t-20.5 48t20.5 48t48.5 20q29 0 49 -20t20 -48t-20 -48t-49 -20zM168 330q0 -107 52 -170t160 -63q91 0 170 42v-112q-61 -40 -172 -40q-160 0 -242.5 95.5t-82.5 244.5v46q0 149 82.5 244.5t242.5 95.5q111 0 172 -40v-112q-79 42 -170 42
q-108 0 -160 -63t-52 -170v-40z" />
    <glyph glyph-name="cdotaccent" unicode="&#x10b;" horiz-adv-x="452" 
d="M271 592q-28 0 -48.5 20t-20.5 48t20.5 48t48.5 20q29 0 49 -20t20 -48t-20 -48t-49 -20zM278 -12q-114 0 -176.5 71t-62.5 179v31q0 108 62.5 179t176.5 71q82 0 128 -28v-107q-55 29 -119 29q-70 0 -103 -39.5t-33 -107.5v-25q0 -68 33 -107.5t103 -39.5q64 0 119 29
v-107q-46 -28 -128 -28z" />
    <glyph glyph-name="Ccaron" unicode="&#x10c;" horiz-adv-x="608" 
d="M302 761l-87 132h97l62 -77l63 77h97l-87 -132h-145zM380 603q-108 0 -160 -63t-52 -170v-40q0 -107 52 -170t160 -63q91 0 170 42v-112q-61 -40 -172 -40q-160 0 -242.5 95.5t-82.5 244.5v46q0 149 82.5 244.5t242.5 95.5q111 0 172 -40v-112q-79 42 -170 42z" />
    <glyph glyph-name="ccaron" unicode="&#x10d;" horiz-adv-x="452" 
d="M196 598l-87 132h97l62 -77l63 77h97l-87 -132h-145zM39 269q0 108 62.5 179t176.5 71q82 0 128 -28v-107q-55 29 -119 29q-70 0 -103 -39.5t-33 -107.5v-25q0 -68 33 -107.5t103 -39.5q64 0 119 29v-107q-46 -28 -128 -28q-114 0 -176.5 71t-62.5 179v31z" />
    <glyph glyph-name="Dcaron" unicode="&#x10e;" horiz-adv-x="679" 
d="M254 761l-87 132h97l62 -77l63 77h97l-87 -132h-145zM321 700q148 0 226.5 -91.5t78.5 -240.5v-36q0 -149 -78.5 -240.5t-226.5 -91.5h-235v700h235zM511 333v34q0 101 -47.5 162t-142.5 61h-121v-482h121q95 0 142.5 61.5t47.5 163.5z" />
    <glyph glyph-name="dcaron" unicode="&#x10f;" horiz-adv-x="659" 
d="M383 464v266h110v-730h-101v53q-51 -62 -139 -62q-101 0 -157.5 70.5t-56.5 176.5v31q0 106 56.5 176.5t157.5 70.5q80 0 130 -52zM584 730h104l-58 -181h-91zM268 98q76 0 115 62v187q-39 62 -115 62q-58 0 -87.5 -39t-29.5 -104v-25q0 -65 29.5 -104t87.5 -39z" />
    <glyph glyph-name="Dcroat" unicode="&#x110;" horiz-adv-x="699" 
d="M341 700q148 0 226.5 -91.5t78.5 -240.5v-36q0 -149 -78.5 -240.5t-226.5 -91.5h-235v299h-71v102h71v299h235zM531 333v34q0 101 -47.5 162t-142.5 61h-121v-189h160v-102h-160v-191h121q95 0 142.5 61.5t47.5 163.5z" />
    <glyph glyph-name="dcroat" unicode="&#x111;" horiz-adv-x="570" 
d="M551 651v-83h-58v-568h-101v53q-51 -62 -139 -62q-101 0 -157.5 70.5t-56.5 176.5v31q0 106 56.5 176.5t157.5 70.5q80 0 130 -52v104h-122v83h122v79h110v-79h58zM268 98q76 0 115 62v187q-39 62 -115 62q-58 0 -87.5 -39t-29.5 -104v-25q0 -65 29.5 -104t87.5 -39z" />
    <glyph glyph-name="Emacron" unicode="&#x112;" horiz-adv-x="599" 
d="M178 774v86h278v-86h-278zM200 110h343v-110h-457v700h455v-110h-341v-173h309v-110h-309v-197z" />
    <glyph glyph-name="emacron" unicode="&#x113;" horiz-adv-x="517" 
d="M409 697v-86h-278v86h278zM475 289v-71h-325q12 -124 154 -124q77 0 140 38v-106q-50 -38 -145 -38q-121 0 -190.5 67t-69.5 183v31q0 111 60 181t164 70q102 0 157 -61t55 -170zM261 419q-94 0 -109 -111h215q-6 111 -106 111z" />
    <glyph glyph-name="Edotaccent" unicode="&#x116;" horiz-adv-x="599" 
d="M317 755q-28 0 -48.5 20t-20.5 48t20.5 48t48.5 20q29 0 49 -20t20 -48t-20 -48t-49 -20zM200 110h343v-110h-457v700h455v-110h-341v-173h309v-110h-309v-197z" />
    <glyph glyph-name="edotaccent" unicode="&#x117;" horiz-adv-x="517" 
d="M270 592q-28 0 -48.5 20t-20.5 48t20.5 48t48.5 20q29 0 49 -20t20 -48t-20 -48t-49 -20zM475 289v-71h-325q12 -124 154 -124q77 0 140 38v-106q-50 -38 -145 -38q-121 0 -190.5 67t-69.5 183v31q0 111 60 181t164 70q102 0 157 -61t55 -170zM261 419q-94 0 -109 -111
h215q-6 111 -106 111z" />
    <glyph glyph-name="Eogonek" unicode="&#x118;" horiz-adv-x="599" 
d="M543 0q-73 -35 -73 -86q0 -18 12.5 -28.5t32.5 -10.5q16 0 28 3v-77q-18 -6 -50 -6q-51 0 -83 27t-32 71q0 62 53 107h-345v700h455v-110h-341v-173h309v-110h-309v-197h343v-110z" />
    <glyph glyph-name="eogonek" unicode="&#x119;" horiz-adv-x="517" 
d="M475 289v-71h-325q12 -124 154 -124q77 0 140 38v-106q-1 -1 -3.5 -2.5t-3.5 -2.5q-27 -20 -47 -48t-20 -55q0 -43 45 -43q16 0 28 3v-77q-16 -6 -49 -6q-52 0 -84 27.5t-32 72.5q0 49 36 93h-15q-121 0 -190.5 67t-69.5 183v31q0 111 60 181t164 70q102 0 157 -61
t55 -170zM261 419q-94 0 -109 -111h215q-6 111 -106 111z" />
    <glyph glyph-name="Ecaron" unicode="&#x11a;" horiz-adv-x="599" 
d="M242 761l-87 132h97l62 -77l63 77h97l-87 -132h-145zM200 110h343v-110h-457v700h455v-110h-341v-173h309v-110h-309v-197z" />
    <glyph glyph-name="ecaron" unicode="&#x11b;" horiz-adv-x="517" 
d="M195 598l-87 132h97l62 -77l63 77h97l-87 -132h-145zM475 289v-71h-325q12 -124 154 -124q77 0 140 38v-106q-50 -38 -145 -38q-121 0 -190.5 67t-69.5 183v31q0 111 60 181t164 70q102 0 157 -61t55 -170zM261 419q-94 0 -109 -111h215q-6 111 -106 111z" />
    <glyph glyph-name="Gbreve" unicode="&#x11e;" horiz-adv-x="690" 
d="M378 754q-71 0 -109.5 38.5t-41.5 98.5h77q3 -25 21 -43t53 -18t53.5 18t21.5 43h77q-3 -60 -41.5 -98.5t-110.5 -38.5zM353 390h269v-318q-40 -40 -103.5 -62.5t-137.5 -22.5q-158 0 -243 95.5t-85 244.5v46q0 147 87.5 243.5t246.5 96.5q125 0 200 -53v-113
q-98 56 -199 56q-107 0 -163.5 -64t-56.5 -169v-40q0 -106 53.5 -169.5t156.5 -63.5q74 0 131 30v153h-156v110z" />
    <glyph glyph-name="gbreve" unicode="&#x11f;" horiz-adv-x="564" 
d="M281 591q-71 0 -109.5 38.5t-41.5 98.5h77q3 -25 21 -43t53 -18t53.5 18t21.5 43h77q-3 -60 -41.5 -98.5t-110.5 -38.5zM388 507h101v-486q0 -94 -58 -154t-175 -60q-103 0 -167 38v107q65 -38 161 -38q65 0 97 26t32 87v24q-50 -48 -128 -48q-100 0 -156 69t-56 174v27
q0 105 56 174t156 69q87 0 137 -58v49zM266 110q74 0 113 58v183q-39 58 -113 58q-58 0 -86.5 -38t-28.5 -101v-21q0 -64 28.5 -101.5t86.5 -37.5z" />
    <glyph glyph-name="Gdotaccent" unicode="&#x120;" horiz-adv-x="690" 
d="M378 755q-28 0 -48.5 20t-20.5 48t20.5 48t48.5 20q29 0 49 -20t20 -48t-20 -48t-49 -20zM353 390h269v-318q-40 -40 -103.5 -62.5t-137.5 -22.5q-158 0 -243 95.5t-85 244.5v46q0 147 87.5 243.5t246.5 96.5q125 0 200 -53v-113q-98 56 -199 56q-107 0 -163.5 -64
t-56.5 -169v-40q0 -106 53.5 -169.5t156.5 -63.5q74 0 131 30v153h-156v110z" />
    <glyph glyph-name="gdotaccent" unicode="&#x121;" horiz-adv-x="564" 
d="M281 592q-28 0 -48.5 20t-20.5 48t20.5 48t48.5 20q29 0 49 -20t20 -48t-20 -48t-49 -20zM388 507h101v-486q0 -94 -58 -154t-175 -60q-103 0 -167 38v107q65 -38 161 -38q65 0 97 26t32 87v24q-50 -48 -128 -48q-100 0 -156 69t-56 174v27q0 105 56 174t156 69
q87 0 137 -58v49zM266 110q74 0 113 58v183q-39 58 -113 58q-58 0 -86.5 -38t-28.5 -101v-21q0 -64 28.5 -101.5t86.5 -37.5z" />
    <glyph glyph-name="Gcommaaccent" unicode="&#x122;" horiz-adv-x="690" 
d="M353 390h269v-318q-40 -40 -103.5 -62.5t-137.5 -22.5q-158 0 -243 95.5t-85 244.5v46q0 147 87.5 243.5t246.5 96.5q125 0 200 -53v-113q-98 56 -199 56q-107 0 -163.5 -64t-56.5 -169v-40q0 -106 53.5 -169.5t156.5 -63.5q74 0 131 30v153h-156v110zM258 -223l54 156
h114l-60 -156h-108z" />
    <glyph glyph-name="gcommaaccent" unicode="&#x123;" horiz-adv-x="564" 
d="M395 754l-54 -156h-114l60 156h108zM388 507h101v-486q0 -94 -58 -154t-175 -60q-103 0 -167 38v107q65 -38 161 -38q65 0 97 26t32 87v24q-50 -48 -128 -48q-100 0 -156 69t-56 174v27q0 105 56 174t156 69q87 0 137 -58v49zM266 110q74 0 113 58v183q-39 58 -113 58
q-58 0 -86.5 -38t-28.5 -101v-21q0 -64 28.5 -101.5t86.5 -37.5z" />
    <glyph glyph-name="Hbar" unicode="&#x126;" horiz-adv-x="690" 
d="M653 608v-92h-49v-516h-114v307h-290v-307h-114v516h-49v92h49v92h114v-92h290v92h114v-92h49zM490 417v99h-290v-99h290z" />
    <glyph glyph-name="hbar" unicode="&#x127;" horiz-adv-x="570" 
d="M331 518q82 0 127 -46.5t45 -126.5v-345h-110v318q0 47 -19.5 70.5t-65.5 23.5q-70 0 -121 -55v-357h-110v568h-61v83h61v79h110v-79h119v-83h-119v-103q60 53 144 53z" />
    <glyph glyph-name="Imacron" unicode="&#x12a;" horiz-adv-x="412" 
d="M345 860v-86h-278v86h278zM357 603h-94v-506h94v-97h-302v97h94v506h-94v97h302v-97z" />
    <glyph glyph-name="imacron" unicode="&#x12b;" horiz-adv-x="265" 
d="M-7 611v86h278v-86h-278zM77 0v507h110v-507h-110z" />
    <glyph glyph-name="Iogonek" unicode="&#x12e;" horiz-adv-x="412" 
d="M357 603h-94v-506h94v-97h-72q-73 -35 -73 -86q0 -18 12.5 -28.5t32.5 -10.5q16 0 28 3v-77q-18 -6 -50 -6q-51 0 -83 27t-32 71q0 63 54 107h-119v97h94v506h-94v97h302v-97z" />
    <glyph glyph-name="iogonek" unicode="&#x12f;" horiz-adv-x="265" 
d="M132 592q-28 0 -48.5 20t-20.5 48t20.5 48t48.5 20q29 0 49.5 -20t20.5 -48t-20.5 -48t-49.5 -20zM77 1v506h110v-507q-72 -36 -72 -86q0 -18 12 -28.5t32 -10.5q16 0 28 3v-77q-17 -6 -49 -6q-52 0 -83.5 27t-31.5 71q0 62 54 108z" />
    <glyph glyph-name="Idotaccent" unicode="&#x130;" horiz-adv-x="412" 
d="M206 755q-28 0 -48.5 20t-20.5 48t20.5 48t48.5 20q29 0 49 -20t20 -48t-20 -48t-49 -20zM357 603h-94v-506h94v-97h-302v97h94v506h-94v97h302v-97z" />
    <glyph glyph-name="dotlessi" unicode="&#x131;" horiz-adv-x="265" 
d="M77 0v507h110v-507h-110z" />
    <glyph glyph-name="Kcommaaccent" unicode="&#x136;" horiz-adv-x="654" 
d="M324 363l340 -363h-153l-311 333v-333h-114v700h114v-315l293 315h149zM221 -223l54 156h114l-60 -156h-108z" />
    <glyph glyph-name="kcommaaccent" unicode="&#x137;" horiz-adv-x="529" 
d="M306 274l222 -274h-141l-200 251v-251h-110v730h110v-441l189 218h138zM159 -223l54 156h114l-60 -156h-108z" />
    <glyph glyph-name="Lacute" unicode="&#x139;" horiz-adv-x="549" 
d="M91 761l85 132h122l-99 -132h-108zM86 0v700h114v-590h317v-110h-431z" />
    <glyph glyph-name="lacute" unicode="&#x13a;" horiz-adv-x="265" 
d="M75 786l85 132h122l-99 -132h-108zM77 0v730h110v-730h-110z" />
    <glyph glyph-name="Lcommaaccent" unicode="&#x13b;" horiz-adv-x="549" 
d="M86 0v700h114v-590h317v-110h-431zM184 -223l54 156h114l-60 -156h-108z" />
    <glyph glyph-name="lcommaaccent" unicode="&#x13c;" horiz-adv-x="265" 
d="M77 0v730h110v-730h-110zM27 -223l54 156h114l-60 -156h-108z" />
    <glyph glyph-name="Lcaron" unicode="&#x13d;" horiz-adv-x="549" 
d="M86 0v700h114v-590h317v-110h-431zM253 519l45 181h104l-58 -181h-91z" />
    <glyph glyph-name="lcaron" unicode="&#x13e;" horiz-adv-x="346" 
d="M77 0v730h110v-730h-110zM226 549l45 181h104l-58 -181h-91z" />
    <glyph glyph-name="Ldot" unicode="&#x13f;" horiz-adv-x="549" 
d="M86 0v700h114v-590h317v-110h-431zM350 308q-31 0 -52.5 21.5t-21.5 52.5t21.5 52.5t52.5 21.5t53 -21.5t22 -52.5t-22 -52.5t-53 -21.5z" />
    <glyph glyph-name="ldot" unicode="&#x140;" horiz-adv-x="441" 
d="M77 0v730h110v-730h-110zM351 289q-31 0 -52.5 21.5t-21.5 52.5t21.5 52.5t52.5 21.5t53 -21.5t22 -52.5t-22 -52.5t-53 -21.5z" />
    <glyph glyph-name="Lslash" unicode="&#x141;" horiz-adv-x="549" 
d="M200 110h317v-110h-431v235l-72 -37v111l72 37v354h114v-294l141 73v-111l-141 -73v-185z" />
    <glyph glyph-name="lslash" unicode="&#x142;" horiz-adv-x="315" 
d="M285 516v-109l-72 -42v-365h-110v301l-73 -42v109l73 42v320h110v-256z" />
    <glyph glyph-name="Nacute" unicode="&#x143;" horiz-adv-x="708" 
d="M502 893l-99 -132h-108l85 132h122zM511 700h110v-700h-121l-304 522v-522h-110v700h125l300 -515v515z" />
    <glyph glyph-name="nacute" unicode="&#x144;" horiz-adv-x="570" 
d="M432 730l-99 -132h-108l85 132h122zM331 518q82 0 127 -46.5t45 -126.5v-345h-110v318q0 47 -19.5 70.5t-65.5 23.5q-70 0 -121 -55v-357h-110v507h101v-51q60 62 153 62z" />
    <glyph glyph-name="Ncommaaccent" unicode="&#x145;" horiz-adv-x="708" 
d="M511 700h110v-700h-121l-304 522v-522h-110v700h125l300 -515v515zM249 -223l54 156h114l-60 -156h-108z" />
    <glyph glyph-name="ncommaaccent" unicode="&#x146;" horiz-adv-x="570" 
d="M331 518q82 0 127 -46.5t45 -126.5v-345h-110v318q0 47 -19.5 70.5t-65.5 23.5q-70 0 -121 -55v-357h-110v507h101v-51q60 62 153 62zM185 -223l54 156h114l-60 -156h-108z" />
    <glyph glyph-name="Ncaron" unicode="&#x147;" horiz-adv-x="708" 
d="M285 761l-87 132h97l62 -77l63 77h97l-87 -132h-145zM511 700h110v-700h-121l-304 522v-522h-110v700h125l300 -515v515z" />
    <glyph glyph-name="ncaron" unicode="&#x148;" horiz-adv-x="570" 
d="M215 598l-87 132h97l62 -77l63 77h97l-87 -132h-145zM331 518q82 0 127 -46.5t45 -126.5v-345h-110v318q0 47 -19.5 70.5t-65.5 23.5q-70 0 -121 -55v-357h-110v507h101v-51q60 62 153 62z" />
    <glyph glyph-name="Eng" unicode="&#x14a;" horiz-adv-x="708" 
d="M464 -193q-49 0 -76 11v100q18 -9 51 -9q37 0 54.5 18t17.5 62v11l-315 522v-522h-110v700h125l300 -501v501h110v-724q0 -169 -157 -169z" />
    <glyph glyph-name="eng" unicode="&#x14b;" horiz-adv-x="570" 
d="M331 518q82 0 127 -46.5t45 -126.5v-369q0 -169 -157 -169q-51 0 -76 11v100q18 -9 51 -9q37 0 54.5 18t17.5 62v329q0 47 -19.5 70.5t-65.5 23.5q-70 0 -121 -55v-357h-110v507h101v-51q60 62 153 62z" />
    <glyph glyph-name="Omacron" unicode="&#x14c;" horiz-adv-x="715" 
d="M219 774v86h278v-86h-278zM358 713q148 0 226.5 -95t78.5 -250v-36q0 -155 -78.5 -250t-226.5 -95t-226.5 95t-78.5 250v36q0 155 78.5 250t226.5 95zM547 367q0 107 -47 171.5t-142 64.5t-142.5 -64.5t-47.5 -171.5v-34q0 -106 47.5 -171t142.5 -65t142 64.5t47 171.5
v34z" />
    <glyph glyph-name="omacron" unicode="&#x14d;" horiz-adv-x="551" 
d="M136 611v86h278v-86h-278zM275 -13q-112 0 -174 71t-62 180v31q0 109 62 180t174 71q113 0 174.5 -71t61.5 -180v-31q0 -109 -61.5 -180t-174.5 -71zM275 91q62 0 93 41t31 109v25q0 68 -31 109t-93 41t-93 -41t-31 -109v-25q0 -68 31 -109t93 -41z" />
    <glyph glyph-name="Ohungarumlaut" unicode="&#x150;" horiz-adv-x="715" 
d="M234 761l85 132h105l-100 -132h-90zM388 761l86 132h104l-99 -132h-91zM358 713q148 0 226.5 -95t78.5 -250v-36q0 -155 -78.5 -250t-226.5 -95t-226.5 95t-78.5 250v36q0 155 78.5 250t226.5 95zM547 367q0 107 -47 171.5t-142 64.5t-142.5 -64.5t-47.5 -171.5v-34
q0 -106 47.5 -171t142.5 -65t142 64.5t47 171.5v34z" />
    <glyph glyph-name="ohungarumlaut" unicode="&#x151;" horiz-adv-x="551" 
d="M151 598l85 132h105l-100 -132h-90zM305 598l86 132h104l-99 -132h-91zM275 -13q-112 0 -174 71t-62 180v31q0 109 62 180t174 71q113 0 174.5 -71t61.5 -180v-31q0 -109 -61.5 -180t-174.5 -71zM275 91q62 0 93 41t31 109v25q0 68 -31 109t-93 41t-93 -41t-31 -109v-25
q0 -68 31 -109t93 -41z" />
    <glyph glyph-name="OE" unicode="&#x152;" horiz-adv-x="1028" 
d="M630 110h342v-110h-456v32q-67 -45 -158 -45q-148 0 -226.5 95t-78.5 250v36q0 155 78.5 250t226.5 95q91 0 158 -45v32h454v-110h-340v-173h308v-110h-308v-197zM358 97q103 0 158 55v396q-55 55 -158 55q-95 0 -142.5 -64.5t-47.5 -171.5v-34q0 -106 47.5 -171
t142.5 -65z" />
    <glyph glyph-name="oe" unicode="&#x153;" horiz-adv-x="861" 
d="M820 289v-71h-317q12 -124 150 -124q74 0 137 38v-106q-50 -38 -143 -38q-129 0 -198 82q-62 -83 -178 -83q-110 0 -171 71t-61 180v31q0 109 61 180t171 71q113 0 175 -80q59 80 166 80q100 0 154 -61t54 -170zM610 419q-90 0 -105 -111h206q-6 111 -101 111zM391 241
v25q0 68 -30 109t-90 41t-90 -41t-30 -109v-25q0 -68 30 -109t90 -41t90 41t30 109z" />
    <glyph glyph-name="Racute" unicode="&#x154;" horiz-adv-x="660" 
d="M469 893l-99 -132h-108l85 132h122zM507 0l-220 277h-87v-277h-114v700h274q102 0 166.5 -58t64.5 -154q0 -80 -46.5 -134.5t-124.5 -70.5l228 -283h-141zM200 590v-203h158q57 0 88 28t31 73t-31 73.5t-88 28.5h-158z" />
    <glyph glyph-name="racute" unicode="&#x155;" horiz-adv-x="370" 
d="M365 730l-99 -132h-108l85 132h122zM178 431q61 79 169 81v-114q-112 -6 -160 -83v-315h-110v507h101v-76z" />
    <glyph glyph-name="Rcommaaccent" unicode="&#x156;" horiz-adv-x="660" 
d="M420 283l228 -283h-141l-220 277h-87v-277h-114v700h274q102 0 166.5 -58t64.5 -154q0 -80 -46.5 -134.5t-124.5 -70.5zM200 590v-203h158q57 0 88 28t31 73t-31 73.5t-88 28.5h-158zM222 -223l54 156h114l-60 -156h-108z" />
    <glyph glyph-name="rcommaaccent" unicode="&#x157;" horiz-adv-x="370" 
d="M178 431q61 79 169 81v-114q-112 -6 -160 -83v-315h-110v507h101v-76zM20 -223l54 156h114l-60 -156h-108z" />
    <glyph glyph-name="Rcaron" unicode="&#x158;" horiz-adv-x="660" 
d="M252 761l-87 132h97l62 -77l63 77h97l-87 -132h-145zM507 0l-220 277h-87v-277h-114v700h274q102 0 166.5 -58t64.5 -154q0 -80 -46.5 -134.5t-124.5 -70.5l228 -283h-141zM200 590v-203h158q57 0 88 28t31 73t-31 73.5t-88 28.5h-158z" />
    <glyph glyph-name="rcaron" unicode="&#x159;" horiz-adv-x="370" 
d="M148 598l-87 132h97l62 -77l63 77h97l-87 -132h-145zM178 431q61 79 169 81v-114q-112 -6 -160 -83v-315h-110v507h101v-76z" />
    <glyph glyph-name="Sacute" unicode="&#x15a;" horiz-adv-x="576" 
d="M243 761l85 132h122l-99 -132h-108zM278 -13q-70 0 -134 17.5t-98 42.5v114q105 -66 230 -66q71 0 107.5 25t36.5 69q0 40 -27.5 63t-89.5 44l-54 19q-49 17 -80 32.5t-60 38.5t-42 54.5t-13 74.5q0 92 70.5 145t180.5 53q118 0 184 -40v-112q-82 44 -186 44
q-135 0 -135 -86q0 -38 28.5 -58.5t94.5 -43.5l51 -18q92 -32 142 -77t50 -129q0 -96 -70.5 -151t-185.5 -55z" />
    <glyph glyph-name="sacute" unicode="&#x15b;" horiz-adv-x="441" 
d="M175 598l85 132h122l-99 -132h-108zM214 -12q-110 0 -168 44v107q82 -50 169 -50q83 0 83 52q0 22 -15 34.5t-50 24.5l-41 15q-75 26 -109.5 58.5t-34.5 91.5q0 71 52 112.5t141 41.5q86 0 135 -28v-107q-64 34 -138 34q-80 0 -80 -49q0 -20 15.5 -31t53.5 -24l39 -14
q72 -24 107 -57.5t35 -96.5q0 -72 -50.5 -115t-143.5 -43z" />
    <glyph glyph-name="Scedilla" unicode="&#x15e;" horiz-adv-x="576" 
d="M534 193q0 -88 -60 -142t-160 -62l-20 -42q46 -4 75 -26t29 -64q0 -48 -35 -73t-89 -25q-75 0 -117 34l26 55q39 -27 89 -27q53 0 53 36q0 33 -63 33q-18 0 -30 -3l-24 32l33 69q-125 9 -195 59v114q105 -66 230 -66q71 0 107.5 25t36.5 69q0 40 -27.5 63t-89.5 44
l-54 19q-49 17 -80 32.5t-60 38.5t-42 54.5t-13 74.5q0 92 70.5 145t180.5 53q118 0 184 -40v-112q-82 44 -186 44q-135 0 -135 -86q0 -38 28.5 -58.5t94.5 -43.5l51 -18q92 -32 142 -77t50 -129z" />
    <glyph glyph-name="scedilla" unicode="&#x15f;" horiz-adv-x="441" 
d="M408 146q0 -64 -41 -105.5t-116 -50.5l-21 -43q46 -3 75 -25.5t29 -64.5q0 -48 -34.5 -73t-88.5 -25q-75 0 -117 34l26 55q39 -27 89 -27q53 0 53 36q0 33 -63 33q-18 0 -30 -3l-24 32l34 71q-89 8 -133 42v107q82 -50 169 -50q83 0 83 52q0 22 -15 34.5t-50 24.5l-41 15
q-75 26 -109.5 58.5t-34.5 91.5q0 71 52 112.5t141 41.5q86 0 135 -28v-107q-64 34 -138 34q-80 0 -80 -49q0 -20 15.5 -31t53.5 -24l39 -14q72 -24 107 -57.5t35 -96.5z" />
    <glyph glyph-name="Scaron" unicode="&#x160;" horiz-adv-x="576" 
d="M233 761l-87 132h97l62 -77l63 77h97l-87 -132h-145zM342 399q92 -32 142 -77t50 -129q0 -96 -70.5 -151t-185.5 -55q-70 0 -134 17.5t-98 42.5v114q105 -66 230 -66q71 0 107.5 25t36.5 69q0 40 -27.5 63t-89.5 44l-54 19q-49 17 -80 32.5t-60 38.5t-42 54.5t-13 74.5
q0 92 70.5 145t180.5 53q118 0 184 -40v-112q-82 44 -186 44q-135 0 -135 -86q0 -38 28.5 -58.5t94.5 -43.5z" />
    <glyph glyph-name="scaron" unicode="&#x161;" horiz-adv-x="441" 
d="M165 598l-87 132h97l62 -77l63 77h97l-87 -132h-145zM266 300q72 -24 107 -57.5t35 -96.5q0 -72 -50.5 -115t-143.5 -43q-110 0 -168 44v107q82 -50 169 -50q83 0 83 52q0 22 -15 34.5t-50 24.5l-41 15q-75 26 -109.5 58.5t-34.5 91.5q0 71 52 112.5t141 41.5
q86 0 135 -28v-107q-64 34 -138 34q-80 0 -80 -49q0 -20 15.5 -31t53.5 -24z" />
    <glyph glyph-name="uni0162" unicode="&#x162;" horiz-adv-x="597" 
d="M356 -1h-21l-26 -52q46 -3 75 -25.5t29 -64.5q0 -48 -34.5 -73t-88.5 -25q-75 0 -117 34l26 55q39 -27 89 -27q53 0 53 36q0 33 -63 33q-18 0 -30 -3l-24 32l38 80h-20v591h-212v110h537v-110h-211v-591z" />
    <glyph glyph-name="uni0163" unicode="&#x163;" horiz-adv-x="364" 
d="M225 -53q46 -3 75 -25.5t29 -64.5q0 -48 -35 -73t-88 -25q-75 0 -117 34l26 55q39 -27 89 -27q53 0 53 36q0 33 -63 33q-18 0 -30 -3l-24 32l40 84q-76 28 -76 126v281h-76v97h76v123l110 37v-160h112v-97h-112v-250q0 -34 15 -47.5t47 -13.5q26 0 50 8v-100
q-32 -15 -76 -15h-3z" />
    <glyph glyph-name="Tcaron" unicode="&#x164;" horiz-adv-x="597" 
d="M224 761l-87 132h97l62 -77l63 77h97l-87 -132h-145zM30 700h537v-110h-211v-591h-114v591h-212v110z" />
    <glyph glyph-name="tcaron" unicode="&#x165;" horiz-adv-x="364" 
d="M303 741h104l-58 -181h-91zM214 667v-160h112v-97h-112v-250q0 -34 15 -47.5t47 -13.5q26 0 50 8v-100q-32 -15 -76 -15q-146 0 -146 137v281h-76v97h76v123z" />
    <glyph glyph-name="Tbar" unicode="&#x166;" horiz-adv-x="597" 
d="M567 590h-211v-197h115v-101h-115v-293h-114v293h-116v101h116v197h-212v110h537v-110z" />
    <glyph glyph-name="tbar" unicode="&#x167;" horiz-adv-x="364" 
d="M326 410h-112v-104h112v-84h-112v-62q0 -34 15 -47.5t47 -13.5q26 0 50 8v-100q-32 -15 -76 -15q-146 0 -146 137v93h-77v84h77v104h-76v97h76v123l110 37v-160h112v-97z" />
    <glyph glyph-name="Umacron" unicode="&#x16a;" horiz-adv-x="677" 
d="M199 774v86h278v-86h-278zM338 -13q-128 0 -193.5 71t-65.5 187v455h115v-453q0 -152 144 -152q145 0 145 152v453h115v-455q0 -116 -65.5 -187t-194.5 -71z" />
    <glyph glyph-name="umacron" unicode="&#x16b;" horiz-adv-x="564" 
d="M418 697v-86h-278v86h278zM377 507h110v-507h-101v50q-59 -61 -150 -61q-80 0 -124.5 46.5t-44.5 126.5v345h110v-318q0 -47 18.5 -70.5t63.5 -23.5q69 0 118 55v357z" />
    <glyph glyph-name="Uring" unicode="&#x16e;" horiz-adv-x="677" 
d="M338 666q-53 0 -89 35.5t-36 84.5t36 84.5t89 35.5t89.5 -35.5t36.5 -84.5t-36.5 -84.5t-89.5 -35.5zM338 724q28 0 45.5 17.5t17.5 44.5t-17.5 44.5t-45.5 17.5t-45.5 -18t-17.5 -44t17.5 -44t45.5 -18zM338 -13q-128 0 -193.5 71t-65.5 187v455h115v-453
q0 -152 144 -152q145 0 145 152v453h115v-455q0 -116 -65.5 -187t-194.5 -71z" />
    <glyph glyph-name="uring" unicode="&#x16f;" horiz-adv-x="564" 
d="M279 572q-49 0 -81.5 32.5t-32.5 77.5t32.5 77t81.5 32t81.5 -32t32.5 -77t-32.5 -77.5t-81.5 -32.5zM279 735q-24 0 -39 -15.5t-15 -37.5q0 -23 15 -38.5t39 -15.5t39 15.5t15 38.5q0 22 -15 37.5t-39 15.5zM377 507h110v-507h-101v50q-59 -61 -150 -61
q-80 0 -124.5 46.5t-44.5 126.5v345h110v-318q0 -47 18.5 -70.5t63.5 -23.5q69 0 118 55v357z" />
    <glyph glyph-name="Uhungarumlaut" unicode="&#x170;" horiz-adv-x="677" 
d="M214 761l85 132h105l-100 -132h-90zM368 761l86 132h104l-99 -132h-91zM338 -13q-128 0 -193.5 71t-65.5 187v455h115v-453q0 -152 144 -152q145 0 145 152v453h115v-455q0 -116 -65.5 -187t-194.5 -71z" />
    <glyph glyph-name="uhungarumlaut" unicode="&#x171;" horiz-adv-x="564" 
d="M345 730l-100 -132h-90l85 132h105zM400 598h-91l86 132h104zM377 150v357h110v-507h-101v50q-59 -61 -150 -61q-80 0 -124.5 46.5t-44.5 126.5v345h110v-318q0 -47 18.5 -70.5t63.5 -23.5q69 0 118 55z" />
    <glyph glyph-name="Uogonek" unicode="&#x172;" horiz-adv-x="677" 
d="M483 700h115v-455q0 -153 -105 -219q-29 -19 -51.5 -49t-22.5 -59q0 -43 45 -43q16 0 28 3v-77q-18 -6 -50 -6q-52 0 -83.5 27t-31.5 73q0 49 36 93q-8 -1 -25 -1q-128 0 -193.5 71t-65.5 187v455h115v-453q0 -152 144 -152q145 0 145 152v453z" />
    <glyph glyph-name="uogonek" unicode="&#x173;" horiz-adv-x="564" 
d="M487 0q-73 -35 -73 -86q0 -18 12.5 -28.5t32.5 -10.5q15 0 28 3v-77q-18 -6 -50 -6q-52 0 -83.5 27t-31.5 71q0 68 64 116v41q-59 -61 -150 -61q-80 0 -124.5 46.5t-44.5 126.5v345h110v-318q0 -47 18.5 -70.5t63.5 -23.5q69 0 118 55v357h110v-507z" />
    <glyph glyph-name="Wcircumflex" unicode="&#x174;" horiz-adv-x="998" 
d="M500 838l-62 -77h-97l87 132h145l87 -132h-97zM848 700h118l-177 -700h-152l-139 532l-139 -532h-149l-178 700h120l139 -584l150 584h118l150 -584z" />
    <glyph glyph-name="wcircumflex" unicode="&#x175;" horiz-adv-x="817" 
d="M407 675l-62 -77h-97l87 132h145l87 -132h-97zM669 507h116l-132 -507h-142l-102 345l-103 -345h-143l-132 507h120l93 -387l113 387h105l114 -388z" />
    <glyph glyph-name="Ycircumflex" unicode="&#x176;" horiz-adv-x="615" 
d="M307 838l-62 -77h-97l87 132h145l87 -132h-97zM604 700l-240 -396v-304h-113v304l-240 396h129l169 -281l168 281h127z" />
    <glyph glyph-name="ycircumflex" unicode="&#x177;" horiz-adv-x="523" 
d="M261 675l-62 -77h-97l87 132h145l87 -132h-97zM387 507h117l-176 -489q-42 -115 -86 -162.5t-125 -47.5q-45 0 -68 10v103q19 -8 51 -8q76 0 107 80l-188 514h118l126 -355z" />
    <glyph glyph-name="Ydieresis" unicode="&#x178;" horiz-adv-x="615" 
d="M196 755q-27 0 -47 19.5t-20 46.5t20 46.5t47 19.5q28 0 48 -19.5t20 -46.5q0 -28 -20 -47t-48 -19zM420 755q-28 0 -48 19t-20 47q0 27 20 46.5t48 19.5q27 0 47 -19.5t20 -46.5t-20 -46.5t-47 -19.5zM604 700l-240 -396v-304h-113v304l-240 396h129l169 -281l168 281
h127z" />
    <glyph glyph-name="Zacute" unicode="&#x179;" horiz-adv-x="623" 
d="M266 761l85 132h122l-99 -132h-108zM53 0v105l376 485h-351v110h492v-105l-377 -485h377v-110h-517z" />
    <glyph glyph-name="zacute" unicode="&#x17a;" horiz-adv-x="496" 
d="M203 598l85 132h122l-99 -132h-108zM47 0v95l264 315h-251v97h389v-95l-265 -315h265v-97h-402z" />
    <glyph glyph-name="Zdotaccent" unicode="&#x17b;" horiz-adv-x="623" 
d="M331 755q-28 0 -48.5 20t-20.5 48t20.5 48t48.5 20q29 0 49 -20t20 -48t-20 -48t-49 -20zM53 0v105l376 485h-351v110h492v-105l-377 -485h377v-110h-517z" />
    <glyph glyph-name="zdotaccent" unicode="&#x17c;" horiz-adv-x="496" 
d="M268 592q-28 0 -48.5 20t-20.5 48t20.5 48t48.5 20q29 0 49 -20t20 -48t-20 -48t-49 -20zM47 0v95l264 315h-251v97h389v-95l-265 -315h265v-97h-402z" />
    <glyph glyph-name="Zcaron" unicode="&#x17d;" horiz-adv-x="623" 
d="M256 761l-87 132h97l62 -77l63 77h97l-87 -132h-145zM570 700v-105l-377 -485h377v-110h-517v105l376 485h-351v110h492z" />
    <glyph glyph-name="zcaron" unicode="&#x17e;" horiz-adv-x="496" 
d="M193 598l-87 132h97l62 -77l63 77h97l-87 -132h-145zM449 507v-95l-265 -315h265v-97h-402v95l264 315h-251v97h389z" />
    <glyph glyph-name="florin" unicode="&#x192;" 
d="M405 607q-37 0 -54.5 -17.5t-17.5 -58.5v-52h112v-86h-112v-236q0 -169 -158 -169q-49 0 -76 11v100q19 -9 52 -9q36 0 54 18.5t18 61.5v223h-105v86h105v69q0 83 41.5 123.5t115.5 40.5q46 0 74 -14v-99q-19 8 -49 8z" />
    <glyph glyph-name="AEacute" unicode="&#x1fc;" horiz-adv-x="961" 
d="M786 893l-99 -132h-108l85 132h122zM562 110h343v-110h-457v177h-230l-96 -177h-132l386 700h527v-110h-341v-173h309v-110h-309v-197zM277 287h171v316z" />
    <glyph glyph-name="aeacute" unicode="&#x1fd;" horiz-adv-x="799" 
d="M553 730l-99 -132h-108l85 132h122zM757 289v-71h-317q12 -124 149 -124q75 0 138 38v-106q-50 -38 -143 -38q-122 0 -190 71q-71 -69 -181 -69q-76 0 -124 39.5t-48 108.5q0 170 289 177v11q0 47 -23.5 66.5t-77.5 19.5q-88 0 -157 -53v114q67 46 171 46q107 0 158 -56
q57 57 149 57q100 0 153.5 -61t53.5 -170zM442 308h207q-6 111 -101 111q-91 0 -106 -111zM229 93q73 0 116 48q-12 36 -15 81q-178 -7 -178 -77q0 -52 77 -52z" />
    <glyph glyph-name="Scommaaccent" unicode="&#x218;" horiz-adv-x="576" 
d="M278 -13q-70 0 -134 17.5t-98 42.5v114q105 -66 230 -66q71 0 107.5 25t36.5 69q0 40 -27.5 63t-89.5 44l-54 19q-49 17 -80 32.5t-60 38.5t-42 54.5t-13 74.5q0 92 70.5 145t180.5 53q118 0 184 -40v-112q-82 44 -186 44q-135 0 -135 -86q0 -38 28.5 -58.5t94.5 -43.5
l51 -18q92 -32 142 -77t50 -129q0 -96 -70.5 -151t-185.5 -55zM182 -223l54 156h114l-60 -156h-108z" />
    <glyph glyph-name="scommaaccent" unicode="&#x219;" horiz-adv-x="441" 
d="M214 -12q-110 0 -168 44v107q82 -50 169 -50q83 0 83 52q0 22 -15 34.5t-50 24.5l-41 15q-75 26 -109.5 58.5t-34.5 91.5q0 71 52 112.5t141 41.5q86 0 135 -28v-107q-64 34 -138 34q-80 0 -80 -49q0 -20 15.5 -31t53.5 -24l39 -14q72 -24 107 -57.5t35 -96.5
q0 -72 -50.5 -115t-143.5 -43zM118 -223l54 156h114l-60 -156h-108z" />
    <glyph glyph-name="uni021A" unicode="&#x21a;" horiz-adv-x="597" 
d="M356 -1h-114v591h-212v110h537v-110h-211v-591zM194 -223l54 156h114l-60 -156h-108z" />
    <glyph glyph-name="uni021B" unicode="&#x21b;" horiz-adv-x="364" 
d="M326 410h-112v-250q0 -34 15 -47.5t47 -13.5q26 0 50 8v-100q-32 -15 -76 -15q-146 0 -146 137v281h-76v97h76v123l110 37v-160h112v-97zM113 -223l54 156h114l-60 -156h-108z" />
    <glyph glyph-name="uni0237" unicode="&#x237;" horiz-adv-x="265" 
d="M77 507h110v-531q0 -169 -157 -169q-49 0 -76 11v100q18 -9 51 -9q37 0 54.5 18t17.5 62v518z" />
    <glyph glyph-name="circumflex" unicode="&#x2c6;" horiz-adv-x="405" 
d="M362 598h-97l-63 77l-62 -77h-97l87 132h145z" />
    <glyph glyph-name="caron" unicode="&#x2c7;" horiz-adv-x="405" 
d="M265 730h97l-87 -132h-145l-87 132h97l62 -77z" />
    <glyph glyph-name="breve" unicode="&#x2d8;" horiz-adv-x="389" 
d="M194 591q-71 0 -109.5 38.5t-41.5 98.5h77q3 -25 21 -43t53 -18t53.5 18t21.5 43h77q-3 -60 -41.5 -98.5t-110.5 -38.5z" />
    <glyph glyph-name="dotaccent" unicode="&#x2d9;" horiz-adv-x="224" 
d="M112 592q-28 0 -48.5 20t-20.5 48t20.5 48t48.5 20q29 0 49 -20t20 -48t-20 -48t-49 -20z" />
    <glyph glyph-name="ring" unicode="&#x2da;" horiz-adv-x="314" 
d="M157 572q-49 0 -81.5 32.5t-32.5 77.5t32.5 77t81.5 32t81.5 -32t32.5 -77t-32.5 -77.5t-81.5 -32.5zM157 628q24 0 39 15.5t15 38.5q0 22 -15 37.5t-39 15.5t-39 -15.5t-15 -37.5q0 -23 15 -38.5t39 -15.5z" />
    <glyph glyph-name="ogonek" unicode="&#x2db;" horiz-adv-x="251" 
d="M158 -205q-52 0 -83.5 27t-31.5 71q0 92 108 141l57 -34q-73 -35 -73 -86q0 -18 12.5 -28.5t32.5 -10.5q14 0 28 3v-77q-18 -6 -50 -6z" />
    <glyph glyph-name="tilde" unicode="&#x2dc;" horiz-adv-x="400" 
d="M43 590q3 125 91 125q32 0 67 -21l23 -14q26 -16 41 -16q23 0 25 51h68q-3 -125 -92 -125q-32 0 -66 21l-23 14q-26 16 -41 16q-24 0 -26 -51h-67z" />
    <glyph glyph-name="hungarumlaut" unicode="&#x2dd;" horiz-adv-x="430" 
d="M43 598l85 132h105l-100 -132h-90zM197 598l86 132h104l-99 -132h-91z" />
    <glyph glyph-name="gravecomb" unicode="&#x300;" horiz-adv-x="0" 
d="M-151 598l-99 132h122l85 -132h-108z" />
    <glyph glyph-name="acutecomb" unicode="&#x301;" horiz-adv-x="0" 
d="M-250 598l85 132h122l-99 -132h-108z" />
    <glyph glyph-name="uni0302" unicode="&#x302;" horiz-adv-x="0" 
d="M-43 598h-97l-63 77l-62 -77h-97l87 132h145z" />
    <glyph glyph-name="tildecomb" unicode="&#x303;" horiz-adv-x="0" 
d="M-357 590q3 125 91 125q33 0 67 -21l23 -14q26 -16 41 -16q23 0 25 51h68q-3 -125 -92 -125q-32 0 -66 21l-23 14q-26 16 -41 16q-24 0 -26 -51h-67z" />
    <glyph glyph-name="uni0304" unicode="&#x304;" horiz-adv-x="0" 
d="M-321 611v86h278v-86h-278z" />
    <glyph glyph-name="uni0306" unicode="&#x306;" horiz-adv-x="0" 
d="M-195 591q-71 0 -109.5 38.5t-41.5 98.5h77q3 -25 21 -43t53 -18t53.5 18t21.5 43h77q-3 -60 -41.5 -98.5t-110.5 -38.5z" />
    <glyph glyph-name="uni0307" unicode="&#x307;" horiz-adv-x="0" 
d="M-112 592q-28 0 -48.5 20t-20.5 48t20.5 48t48.5 20q29 0 49 -20t20 -48t-20 -48t-49 -20z" />
    <glyph glyph-name="uni0308" unicode="&#x308;" horiz-adv-x="0" 
d="M-311 595q-27 0 -47 19.5t-20 46.5t20 46.5t47 19.5q28 0 48 -19.5t20 -46.5q0 -28 -20 -47t-48 -19zM-111 595q-27 0 -47 19.5t-20 46.5t20 46.5t47 19.5q28 0 48 -19.5t20 -46.5q0 -28 -20 -47t-48 -19z" />
    <glyph glyph-name="uni030A" unicode="&#x30a;" horiz-adv-x="0" 
d="M-157 572q-49 0 -81.5 32.5t-32.5 77.5t32.5 77t81.5 32t81.5 -32t32.5 -77t-32.5 -77.5t-81.5 -32.5zM-157 628q24 0 39 15.5t15 38.5q0 22 -15 37.5t-39 15.5t-39 -15.5t-15 -37.5q0 -23 15 -38.5t39 -15.5z" />
    <glyph glyph-name="uni030B" unicode="&#x30b;" horiz-adv-x="0" 
d="M-387 598l85 132h105l-100 -132h-90zM-233 598l86 132h104l-99 -132h-91z" />
    <glyph glyph-name="uni030C" unicode="&#x30c;" horiz-adv-x="0" 
d="M-140 730h97l-87 -132h-145l-87 132h97l62 -77z" />
    <glyph glyph-name="uni0312" unicode="&#x312;" horiz-adv-x="0" 
d="M-211 598l60 156h108l-54 -156h-114z" />
    <glyph glyph-name="uni0326" unicode="&#x326;" horiz-adv-x="0" 
d="M-211 -223l54 156h114l-60 -156h-108z" />
    <glyph glyph-name="uni0327" unicode="&#x327;" horiz-adv-x="0" 
d="M-147 -53q46 -3 75 -25.5t29 -64.5q0 -48 -35 -73t-88 -25q-75 0 -117 34l26 55q39 -27 89 -27q53 0 53 36q0 33 -63 33q-18 0 -30 -3l-24 32l46 96l65 -15z" />
    <glyph glyph-name="uni0328" unicode="&#x328;" horiz-adv-x="0" 
d="M-93 -205q-52 0 -83.5 27t-31.5 71q0 92 108 141l57 -34q-73 -35 -73 -86q0 -18 12.5 -28.5t32.5 -10.5q15 0 28 3v-77q-18 -6 -50 -6z" />
    <glyph glyph-name="uni0335" unicode="&#x335;" horiz-adv-x="0" 
d="M-333 317v84h290v-84h-290z" />
    <glyph glyph-name="uni0336" unicode="&#x336;" horiz-adv-x="0" 
d="M-659 313v92h616v-92h-616z" />
    <glyph glyph-name="uni0337" unicode="&#x337;" horiz-adv-x="0" 
d="M-297 209v109l255 148v-109z" />
    <glyph glyph-name="uni0338" unicode="&#x338;" horiz-adv-x="0" 
d="M-400 -21l-61 42l356 507l62 -42z" />
    <glyph glyph-name="uni037E" unicode="&#x37e;" horiz-adv-x="275" 
d="M137 354q-31 0 -52.5 21.5t-21.5 52.5t21.5 52.5t52.5 21.5t53 -21.5t22 -52.5t-22 -52.5t-53 -21.5zM16 -116l64 215h111l-72 -215h-103z" />
    <glyph glyph-name="tonos" unicode="&#x384;" horiz-adv-x="243" 
d="M43 598l47 152h111l-68 -152h-90z" />
    <glyph glyph-name="dieresistonos" unicode="&#x385;" horiz-adv-x="475" 
d="M175 593l39 153h94l-57 -153h-76zM101 607q-24 0 -41 17t-17 41t17 41t41 17q23 0 40 -17t17 -41t-17 -41t-40 -17zM374 607q-23 0 -40 17t-17 41t16.5 41t40.5 17t41 -17t17 -41t-17 -41t-41 -17z" />
    <glyph glyph-name="Alphatonos" unicode="&#x386;" horiz-adv-x="674" 
d="M150 700l-58 -202h-88l35 202h111zM539 0l-60 177h-287l-60 -177h-119l244 700h160l244 -700h-122zM230 287h211l-105 311z" />
    <glyph glyph-name="anoteleia" unicode="&#x387;" horiz-adv-x="235" 
d="M117 264q-31 0 -52.5 21.5t-21.5 52.5t21.5 52.5t52.5 21.5t53 -21.5t22 -52.5t-22 -52.5t-53 -21.5z" />
    <glyph glyph-name="Epsilontonos" unicode="&#x388;" horiz-adv-x="724" 
d="M0 498l35 202h111l-58 -202h-88zM326 110h343v-110h-457v700h455v-110h-341v-173h309v-110h-309v-197z" />
    <glyph glyph-name="Etatonos" unicode="&#x389;" horiz-adv-x="816" 
d="M0 498l35 202h111l-58 -202h-88zM616 700h114v-700h-114v307h-290v-307h-114v700h114v-283h290v283z" />
    <glyph glyph-name="Iotatonos" unicode="&#x38a;" horiz-adv-x="549" 
d="M0 498l35 202h111l-58 -202h-88zM503 603h-94v-506h94v-97h-302v97h94v506h-94v97h302v-97z" />
    <glyph glyph-name="Omicrontonos" unicode="&#x38c;" horiz-adv-x="803" 
d="M445 713q148 0 226.5 -95t78.5 -250v-36q0 -155 -78.5 -250t-226.5 -95t-226.5 95t-78.5 250v36q0 155 78.5 250t226.5 95zM0 498l35 202h111l-58 -202h-88zM634 367q0 107 -47 171.5t-142 64.5t-142.5 -64.5t-47.5 -171.5v-34q0 -106 47.5 -171t142.5 -65t142 64.5
t47 171.5v34z" />
    <glyph glyph-name="Upsilontonos" unicode="&#x38e;" horiz-adv-x="781" 
d="M0 498l35 202h111l-58 -202h-88zM770 700l-240 -396v-304h-113v304l-240 396h129l169 -281l168 281h127z" />
    <glyph glyph-name="Omegatonos" unicode="&#x38f;" horiz-adv-x="797" 
d="M740 353q0 -76 -26.5 -140t-74.5 -104h101v-110h-254v97q139 69 139 255v34q0 103 -49 160.5t-136 57.5t-135.5 -57.5t-48.5 -160.5v-34q0 -187 138 -255v-97h-254v110h101q-48 40 -74.5 104t-26.5 140v36q0 150 81 237t219 87q139 0 219.5 -87t80.5 -237v-36zM35 700
h111l-58 -202h-88z" />
    <glyph glyph-name="iotadieresistonos" unicode="&#x390;" horiz-adv-x="278" 
d="M66 593l39 153h94l-57 -153h-76zM-8 607q-24 0 -41 17t-17 41t17 41t41 17q23 0 40 -17t17 -41t-17 -41t-40 -17zM265 607q-23 0 -40 17t-17 41t16.5 41t40.5 17t41 -17t17 -41t-17 -41t-41 -17zM192 -7q-124 0 -124 135v379h110v-355q0 -32 9.5 -43.5t34.5 -11.5
q17 0 33 4v-99q-34 -9 -63 -9z" />
    <glyph glyph-name="Alpha" unicode="&#x391;" horiz-adv-x="674" 
d="M539 0l-60 177h-287l-60 -177h-119l244 700h160l244 -700h-122zM230 287h211l-105 311z" />
    <glyph glyph-name="Beta" unicode="&#x392;" horiz-adv-x="646" 
d="M501 369q97 -53 97 -166q0 -92 -61.5 -147.5t-158.5 -55.5h-292v700h283q93 0 152 -52t59 -139q0 -92 -79 -140zM367 590h-167v-175h167q48 0 73.5 24.5t25.5 63.5q0 38 -25.5 62.5t-73.5 24.5zM376 110q52 0 80.5 27.5t28.5 70.5t-28.5 70t-80.5 27h-176v-195h176z" />
    <glyph glyph-name="Gamma" unicode="&#x393;" horiz-adv-x="551" 
d="M86 0v700h435v-110h-321v-590h-114z" />
    <glyph glyph-name="uni0394" unicode="&#x394;" horiz-adv-x="674" 
d="M417 700l244 -700h-648l244 700h160zM336 596l-167 -486h333z" />
    <glyph glyph-name="Epsilon" unicode="&#x395;" horiz-adv-x="599" 
d="M200 110h343v-110h-457v700h455v-110h-341v-173h309v-110h-309v-197z" />
    <glyph glyph-name="Zeta" unicode="&#x396;" horiz-adv-x="623" 
d="M53 0v105l376 485h-351v110h492v-105l-377 -485h377v-110h-517z" />
    <glyph glyph-name="Eta" unicode="&#x397;" horiz-adv-x="690" 
d="M490 700h114v-700h-114v307h-290v-307h-114v700h114v-283h290v283z" />
    <glyph glyph-name="Theta" unicode="&#x398;" horiz-adv-x="715" 
d="M358 713q148 0 226.5 -95t78.5 -250v-36q0 -155 -78.5 -250t-226.5 -95t-226.5 95t-78.5 250v36q0 155 78.5 250t226.5 95zM547 367q0 107 -47 171.5t-142 64.5t-142.5 -64.5t-47.5 -171.5v-34q0 -106 47.5 -171t142.5 -65t142 64.5t47 171.5v34zM242 299v106h232v-106
h-232z" />
    <glyph glyph-name="Iota" unicode="&#x399;" horiz-adv-x="412" 
d="M357 603h-94v-506h94v-97h-302v97h94v506h-94v97h302v-97z" />
    <glyph glyph-name="Kappa" unicode="&#x39a;" horiz-adv-x="654" 
d="M664 0h-153l-311 333v-333h-114v700h114v-315l293 315h149l-318 -337z" />
    <glyph glyph-name="Lambda" unicode="&#x39b;" horiz-adv-x="660" 
d="M645 0h-122l-194 595l-195 -595h-119l235 700h160z" />
    <glyph glyph-name="Mu" unicode="&#x39c;" horiz-adv-x="835" 
d="M600 700h149v-700h-114v549l-178 -405h-83l-178 406v-550h-110v700h150l182 -418z" />
    <glyph glyph-name="Nu" unicode="&#x39d;" horiz-adv-x="708" 
d="M511 700h110v-700h-121l-304 522v-522h-110v700h125l300 -515v515z" />
    <glyph glyph-name="Xi" unicode="&#x39e;" horiz-adv-x="575" 
d="M58 590v110h459v-110h-459zM92 307v110h391v-110h-391zM56 0v110h463v-110h-463z" />
    <glyph glyph-name="Omicron" unicode="&#x39f;" horiz-adv-x="715" 
d="M358 713q148 0 226.5 -95t78.5 -250v-36q0 -155 -78.5 -250t-226.5 -95t-226.5 95t-78.5 250v36q0 155 78.5 250t226.5 95zM547 367q0 107 -47 171.5t-142 64.5t-142.5 -64.5t-47.5 -171.5v-34q0 -106 47.5 -171t142.5 -65t142 64.5t47 171.5v34z" />
    <glyph glyph-name="Pi" unicode="&#x3a0;" horiz-adv-x="680" 
d="M86 0v700h508v-700h-114v590h-280v-590h-114z" />
    <glyph glyph-name="Rho" unicode="&#x3a1;" horiz-adv-x="616" 
d="M354 700q102 0 166.5 -60t64.5 -159t-64.5 -159t-166.5 -60h-154v-262h-114v700h268zM352 372q57 0 88 30.5t31 78.5t-31 78.5t-88 30.5h-152v-218h152z" />
    <glyph glyph-name="Sigma" unicode="&#x3a3;" horiz-adv-x="590" 
d="M51 0v105l202 258l-192 236v101h480v-110h-336l183 -228l-196 -252h363v-110h-504z" />
    <glyph glyph-name="Tau" unicode="&#x3a4;" horiz-adv-x="597" 
d="M356 -1h-114v591h-212v110h537v-110h-211v-591z" />
    <glyph glyph-name="Upsilon" unicode="&#x3a5;" horiz-adv-x="615" 
d="M604 700l-240 -396v-304h-113v304l-240 396h129l169 -281l168 281h127z" />
    <glyph glyph-name="Phi" unicode="&#x3a6;" horiz-adv-x="767" 
d="M440 657q132 -15 208.5 -94t76.5 -202v-16q0 -123 -76.5 -202t-208.5 -94v-80h-113v80q-131 15 -207.5 94t-76.5 202v16q0 123 76.5 202t207.5 94v74h113v-74zM153 346q0 -81 46 -131t131 -62v400q-85 -12 -131 -62t-46 -131v-14zM615 346v14q0 81 -46.5 131t-130.5 62
v-400q84 12 130.5 62t46.5 131z" />
    <glyph glyph-name="Chi" unicode="&#x3a7;" horiz-adv-x="671" 
d="M644 0h-131l-178 275l-178 -275h-131l235 358l-225 342h131l168 -259l168 259h131l-223 -342z" />
    <glyph glyph-name="Psi" unicode="&#x3a8;" horiz-adv-x="763" 
d="M605 700h112v-200q0 -151 -67.5 -227.5t-211.5 -88.5v-184h-113v184q-144 11 -211.5 88t-67.5 228v200h112v-191q0 -109 38.5 -160t129.5 -61v412h111v-412q92 10 130 61t38 160v191z" />
    <glyph glyph-name="uni03A9" unicode="&#x3a9;" horiz-adv-x="714" 
d="M657 353q0 -76 -26.5 -140t-74.5 -104h101v-110h-254v97q139 69 139 255v34q0 103 -49 160.5t-136 57.5t-135.5 -57.5t-48.5 -160.5v-34q0 -187 138 -255v-97h-254v110h101q-48 40 -74.5 104t-26.5 140v36q0 150 81 237t219 87q139 0 219.5 -87t80.5 -237v-36z" />
    <glyph glyph-name="Iotadieresis" unicode="&#x3aa;" horiz-adv-x="412" 
d="M162 821q0 -28 -20 -47t-48 -19q-27 0 -47 19.5t-20 46.5t20 46.5t47 19.5q28 0 48 -19.5t20 -46.5zM318 887q27 0 47 -19.5t20 -46.5t-20 -46.5t-47 -19.5q-28 0 -48 19t-20 47q0 27 20 46.5t48 19.5zM357 700v-97h-94v-506h94v-97h-302v97h94v506h-94v97h302z" />
    <glyph glyph-name="Upsilondieresis" unicode="&#x3ab;" horiz-adv-x="615" 
d="M196 755q-27 0 -47 19.5t-20 46.5t20 46.5t47 19.5q28 0 48 -19.5t20 -46.5q0 -28 -20 -47t-48 -19zM420 755q-28 0 -48 19t-20 47q0 27 20 46.5t48 19.5q27 0 47 -19.5t20 -46.5t-20 -46.5t-47 -19.5zM604 700l-240 -396v-304h-113v304l-240 396h129l169 -281l168 281
h127z" />
    <glyph glyph-name="alphatonos" unicode="&#x3ac;" horiz-adv-x="572" 
d="M396 750l-68 -152h-90l47 152h111zM528 97q9 0 23 2v-99q-32 -6 -52 -6q-80 0 -99 69q-50 -72 -150 -72q-95 0 -153 68t-58 179v31q0 111 58 179t153 68q91 0 141 -61v52h101v-363q0 -26 8 -36.5t28 -10.5zM269 98q73 0 113 60v191q-40 60 -113 60q-56 0 -87 -37.5
t-31 -105.5v-25q0 -68 31 -105.5t87 -37.5z" />
    <glyph glyph-name="epsilontonos" unicode="&#x3ad;" horiz-adv-x="474" 
d="M364 750l-68 -152h-90l47 152h111zM265 89q99 0 169 41v-105q-23 -16 -73 -26.5t-102 -10.5q-100 0 -157 41t-57 114q0 83 77 119q-63 35 -63 108q0 71 55.5 110.5t154.5 39.5q97 0 153 -32v-103q-70 34 -150 34q-52 0 -80.5 -15.5t-28.5 -43.5q0 -54 92 -54h81v-99h-85
q-101 0 -101 -56q0 -62 115 -62z" />
    <glyph glyph-name="etatonos" unicode="&#x3ae;" horiz-adv-x="580" 
d="M406 750l-68 -152h-90l47 152h111zM343 518q79 0 124.5 -46.5t45.5 -126.5v-525h-110v498q0 49 -20 71.5t-63 22.5q-73 0 -123 -55v-357h-110v375q0 41 -28 41q-13 0 -28 -5v93q28 10 59 10q73 0 91 -66q61 70 162 70z" />
    <glyph glyph-name="iotatonos" unicode="&#x3af;" horiz-adv-x="278" 
d="M79 598l47 152h111l-68 -152h-90zM192 -7q-124 0 -124 135v379h110v-355q0 -32 9.5 -43.5t34.5 -11.5q17 0 33 4v-99q-34 -9 -63 -9z" />
    <glyph glyph-name="upsilondieresistonos" unicode="&#x3b0;" horiz-adv-x="556" 
d="M218 593l39 153h94l-57 -153h-76zM144 607q-24 0 -41 17t-17 41t17 41t41 17q23 0 40 -17t17 -41t-17 -41t-40 -17zM417 607q-23 0 -40 17t-17 41t16.5 41t40.5 17t41 -17t17 -41t-17 -41t-41 -17zM278 -11q-99 0 -155 56t-56 155v307h110v-295q0 -119 101 -119t101 119
v295h110v-307q0 -99 -56 -155t-155 -56z" />
    <glyph glyph-name="alpha" unicode="&#x3b1;" horiz-adv-x="572" 
d="M528 97q9 0 23 2v-99q-32 -6 -52 -6q-80 0 -99 69q-50 -72 -150 -72q-95 0 -153 68t-58 179v31q0 111 58 179t153 68q91 0 141 -61v52h101v-363q0 -26 8 -36.5t28 -10.5zM269 98q73 0 113 60v191q-40 60 -113 60q-56 0 -87 -37.5t-31 -105.5v-25q0 -68 31 -105.5
t87 -37.5z" />
    <glyph glyph-name="beta" unicode="&#x3b2;" horiz-adv-x="571" 
d="M408 399q61 -24 94.5 -74t33.5 -119q0 -95 -60 -155t-155 -60q-82 0 -134 47v-218h-110v690q0 108 57 170.5t157 62.5q91 0 147 -52t56 -138q0 -109 -86 -154zM303 96q56 0 88.5 32.5t32.5 87.5q0 59 -39.5 93t-109.5 34h-21v95h24q53 0 81 26.5t28 76.5q0 48 -26 76
t-71 28q-49 0 -76 -35.5t-27 -100.5v-361q41 -52 116 -52z" />
    <glyph glyph-name="gamma" unicode="&#x3b3;" horiz-adv-x="536" 
d="M401 507h116l-194 -507v-180h-110v180l-194 507h118l132 -364z" />
    <glyph glyph-name="delta" unicode="&#x3b4;" horiz-adv-x="535" 
d="M325 491q35 -24 59 -44t53.5 -54t45 -78.5t15.5 -96.5q0 -105 -62.5 -168t-165.5 -63q-104 0 -167.5 63.5t-63.5 163.5q0 152 147 249q-72 60 -72 130q0 65 51.5 105t134.5 40t137 -33v-106q-57 39 -132 39q-37 0 -59 -12.5t-22 -33.5t22.5 -42t78.5 -59zM269 92
q54 0 86.5 34.5t32.5 94.5q0 58 -30 99.5t-88 83.5q-121 -77 -121 -183q0 -58 32.5 -93.5t87.5 -35.5z" />
    <glyph glyph-name="epsilon" unicode="&#x3b5;" horiz-adv-x="474" 
d="M265 89q99 0 169 41v-105q-23 -16 -73 -26.5t-102 -10.5q-100 0 -157 41t-57 114q0 83 77 119q-63 35 -63 108q0 71 55.5 110.5t154.5 39.5q97 0 153 -32v-103q-70 34 -150 34q-52 0 -80.5 -15.5t-28.5 -43.5q0 -54 92 -54h81v-99h-85q-101 0 -101 -56q0 -62 115 -62z
" />
    <glyph glyph-name="zeta" unicode="&#x3b6;" horiz-adv-x="448" 
d="M275 92q90 -30 124.5 -61t34.5 -91q0 -36 -15 -85h-94q10 27 10 55q0 20 -9 35t-29 26.5t-36.5 18t-48.5 16.5q-82 27 -130.5 75t-48.5 138q0 99 62.5 208.5t175.5 207.5h-193v96h347v-86q-129 -99 -204.5 -210.5t-75.5 -204.5q0 -55 30 -85t100 -53z" />
    <glyph glyph-name="eta" unicode="&#x3b7;" horiz-adv-x="580" 
d="M343 518q79 0 124.5 -46.5t45.5 -126.5v-525h-110v498q0 49 -20 71.5t-63 22.5q-73 0 -123 -55v-357h-110v375q0 41 -28 41q-13 0 -28 -5v93q28 10 59 10q73 0 91 -66q61 70 162 70z" />
    <glyph glyph-name="theta" unicode="&#x3b8;" 
d="M280 743q113 0 174.5 -92t61.5 -263v-46q0 -171 -61.5 -263t-174.5 -92q-114 0 -175 92t-61 263v46q0 171 61 263t175 92zM280 638q-115 0 -123 -219h246q-8 219 -123 219zM280 92q118 0 124 229h-248q6 -229 124 -229z" />
    <glyph glyph-name="iota" unicode="&#x3b9;" horiz-adv-x="278" 
d="M192 -7q-124 0 -124 135v379h110v-355q0 -32 9.5 -43.5t34.5 -11.5q17 0 33 4v-99q-34 -9 -63 -9z" />
    <glyph glyph-name="kappa" unicode="&#x3ba;" horiz-adv-x="529" 
d="M528 0h-141l-200 251v-251h-110v507h110v-218l189 218h138l-208 -232z" />
    <glyph glyph-name="lambda" unicode="&#x3bb;" horiz-adv-x="532" 
d="M513 0h-118l-115 371l-142 -371h-117l204 504l-19 55q-26 77 -87 77q-25 0 -59 -12v98q39 16 80 16q63 0 103.5 -33t65.5 -107z" />
    <glyph glyph-name="uni03BC" unicode="&#x3bc;" horiz-adv-x="577" 
d="M534 97q10 0 22 2v-99q-32 -6 -52 -6q-75 0 -98 62q-59 -67 -141 -67q-50 0 -78 25v-194h-110v687h110v-323q0 -48 19.5 -68.5t60.5 -20.5q72 0 120 53v359h110v-358q0 -29 8.5 -40.5t28.5 -11.5z" />
    <glyph glyph-name="nu" unicode="&#x3bd;" horiz-adv-x="537" 
d="M401 507h116l-176 -507h-145l-177 507h118l132 -401z" />
    <glyph glyph-name="xi" unicode="&#x3be;" horiz-adv-x="451" 
d="M278 92q91 -30 125 -60.5t34 -90.5q0 -35 -15 -86h-94q10 28 10 56q0 26 -18.5 45t-40 28t-62.5 22q-40 13 -67.5 25.5t-57 34t-44.5 54.5t-15 76q0 62 31.5 109.5t87.5 72.5q-89 39 -89 128q0 79 72 132h-79v92h371v-94h-75q-81 0 -131.5 -34t-50.5 -88q0 -44 36 -68.5
t102 -24.5h76v-96h-79q-75 0 -117.5 -32t-42.5 -87q0 -46 30.5 -68t102.5 -46z" />
    <glyph glyph-name="omicron" unicode="&#x3bf;" horiz-adv-x="551" 
d="M275 -13q-112 0 -174 71t-62 180v31q0 109 62 180t174 71q113 0 174.5 -71t61.5 -180v-31q0 -109 -61.5 -180t-174.5 -71zM275 91q62 0 93 41t31 109v25q0 68 -31 109t-93 41t-93 -41t-31 -109v-25q0 -68 31 -109t93 -41z" />
    <glyph glyph-name="pi" unicode="&#x3c0;" horiz-adv-x="619" 
d="M581 410h-80v-265q0 -28 10 -39.5t33 -11.5q19 0 37 6v-96q-27 -12 -67 -12q-123 0 -123 133v285h-174v-410h-110v410h-81v97h555v-97z" />
    <glyph glyph-name="rho" unicode="&#x3c1;" horiz-adv-x="553" 
d="M284 520q105 0 167 -68t62 -183v-31q0 -110 -59 -178.5t-155 -68.5q-82 0 -132 52v-223h-111v448q0 115 62 183.5t166 68.5zM402 241v25q0 71 -31 110.5t-87 39.5q-55 0 -86 -40t-31 -110v-105q43 -63 113 -63q57 0 89.5 38t32.5 105z" />
    <glyph glyph-name="uni03C2" unicode="&#x3c2;" horiz-adv-x="452" 
d="M303 -145q11 31 11 58q0 32 -21.5 49t-85.5 42q-40 17 -67.5 34.5t-52 45t-36.5 68.5t-12 95v27q0 113 64.5 179t174.5 66q80 0 126 -26v-108q-56 28 -120 28q-133 0 -133 -142v-21q0 -39 8 -65.5t28.5 -45t40.5 -29.5t58 -27q33 -13 51 -22t38 -25.5t29 -40t9 -55.5
q0 -35 -15 -85h-95z" />
    <glyph glyph-name="sigma" unicode="&#x3c3;" horiz-adv-x="569" 
d="M560 507v-99h-122q25 -25 42.5 -71t17.5 -93v-20q0 -109 -61.5 -173t-165.5 -64q-106 0 -169 66.5t-63 178.5v20q0 116 72 185.5t193 69.5h256zM388 245q0 47 -19 91t-53 72h-4q-78 0 -119.5 -41t-41.5 -118v-14q0 -68 32 -106t89 -38q56 0 86 36.5t30 103.5v14z" />
    <glyph glyph-name="tau" unicode="&#x3c4;" horiz-adv-x="460" 
d="M432 411h-153v-267q0 -51 58 -51q26 0 49 9v-95q-32 -15 -77 -15q-68 0 -104 36.5t-36 104.5v278h-141v96h404v-96z" />
    <glyph glyph-name="upsilon" unicode="&#x3c5;" horiz-adv-x="556" 
d="M278 -11q-99 0 -155 56t-56 155v307h110v-295q0 -119 101 -119t101 119v295h110v-307q0 -99 -56 -155t-155 -56z" />
    <glyph glyph-name="phi" unicode="&#x3c6;" horiz-adv-x="692" 
d="M400 517q117 -13 186 -80t69 -170v-27q0 -103 -69 -170t-186 -80v-170h-108v170q-117 14 -186 80.5t-69 169.5v27q0 103 69 169.5t186 80.5v157h108v-157zM149 243q0 -62 38 -100.5t108 -49.5v321q-70 -11 -108 -49.5t-38 -100.5v-21zM543 243v21q0 62 -37.5 100.5
t-107.5 49.5v-321q70 11 107.5 49.5t37.5 100.5z" />
    <glyph glyph-name="chi" unicode="&#x3c7;" horiz-adv-x="533" 
d="M523 -180h-124l-133 261l-133 -261h-124l195 356l-185 331h124l126 -238l121 238h124l-181 -333z" />
    <glyph glyph-name="psi" unicode="&#x3c8;" horiz-adv-x="714" 
d="M542 507h108v-259q0 -110 -62.5 -177t-175.5 -81v-170h-110v170q-114 14 -176.5 81t-62.5 177v259h109v-248q0 -140 131 -163v546h108v-546q131 23 131 163v248z" />
    <glyph glyph-name="omega" unicode="&#x3c9;" horiz-adv-x="719" 
d="M622 507q20 -40 33.5 -107.5t13.5 -129.5v-30q0 -121 -45.5 -187t-128.5 -66q-97 0 -135 89q-39 -89 -136 -89q-83 0 -128.5 66t-45.5 187v30q0 62 13.5 129.5t33.5 107.5h116q-51 -99 -51 -240v-24q0 -151 71 -151q72 0 72 148v149h109v-149q0 -148 72 -148q71 0 71 151
v24q0 140 -50 240h115z" />
    <glyph glyph-name="iotadieresis" unicode="&#x3ca;" horiz-adv-x="278" 
d="M26 595q-27 0 -47 19.5t-20 46.5t20 46.5t47 19.5q28 0 48 -19.5t20 -46.5q0 -28 -20 -47t-48 -19zM226 595q-27 0 -47 19.5t-20 46.5t20 46.5t47 19.5q28 0 48 -19.5t20 -46.5q0 -28 -20 -47t-48 -19zM192 -7q-124 0 -124 135v379h110v-355q0 -32 9.5 -43.5t34.5 -11.5
q17 0 33 4v-99q-34 -9 -63 -9z" />
    <glyph glyph-name="upsilondieresis" unicode="&#x3cb;" horiz-adv-x="556" 
d="M178 595q-27 0 -47 19.5t-20 46.5t20 46.5t47 19.5q28 0 48 -19.5t20 -46.5q0 -28 -20 -47t-48 -19zM378 595q-27 0 -47 19.5t-20 46.5t20 46.5t47 19.5q28 0 48 -19.5t20 -46.5q0 -28 -20 -47t-48 -19zM278 -11q-99 0 -155 56t-56 155v307h110v-295q0 -119 101 -119
t101 119v295h110v-307q0 -99 -56 -155t-155 -56z" />
    <glyph glyph-name="omicrontonos" unicode="&#x3cc;" horiz-adv-x="551" 
d="M231 598l47 152h111l-68 -152h-90zM275 -13q-112 0 -174 71t-62 180v31q0 109 62 180t174 71q113 0 174.5 -71t61.5 -180v-31q0 -109 -61.5 -180t-174.5 -71zM275 91q62 0 93 41t31 109v25q0 68 -31 109t-93 41t-93 -41t-31 -109v-25q0 -68 31 -109t93 -41z" />
    <glyph glyph-name="upsilontonos" unicode="&#x3cd;" horiz-adv-x="556" 
d="M231 598l47 152h111l-68 -152h-90zM278 -11q-99 0 -155 56t-56 155v307h110v-295q0 -119 101 -119t101 119v295h110v-307q0 -99 -56 -155t-155 -56z" />
    <glyph glyph-name="omegatonos" unicode="&#x3ce;" horiz-adv-x="719" 
d="M471 750l-68 -152h-90l47 152h111zM622 507q20 -40 33.5 -107.5t13.5 -129.5v-30q0 -121 -45.5 -187t-128.5 -66q-97 0 -135 89q-39 -89 -136 -89q-83 0 -128.5 66t-45.5 187v30q0 62 13.5 129.5t33.5 107.5h116q-51 -99 -51 -240v-24q0 -151 71 -151q72 0 72 148v149
h109v-149q0 -148 72 -148q71 0 71 151v24q0 140 -50 240h115z" />
    <glyph glyph-name="uni0401" unicode="&#x401;" horiz-adv-x="599" 
d="M205 755q-27 0 -47 19.5t-20 46.5t20 46.5t47 19.5q28 0 48 -19.5t20 -46.5q0 -28 -20 -47t-48 -19zM429 755q-28 0 -48 19t-20 47q0 27 20 46.5t48 19.5q27 0 47 -19.5t20 -46.5t-20 -46.5t-47 -19.5zM200 110h343v-110h-457v700h455v-110h-341v-173h309v-110h-309v-197
z" />
    <glyph glyph-name="uni0402" unicode="&#x402;" horiz-adv-x="740" 
d="M464 435q108 0 172.5 -54t64.5 -160v-25q0 -102 -53.5 -155t-142.5 -53q-54 0 -96 16v108q34 -14 86 -14q92 0 92 102v15q0 110 -136 110q-66 0 -125 -22v-304h-114v591h-182v110h507v-110h-211v-179q65 24 138 24z" />
    <glyph glyph-name="uni0403" unicode="&#x403;" horiz-adv-x="551" 
d="M260 761l85 132h122l-99 -132h-108zM86 0v700h435v-110h-321v-590h-114z" />
    <glyph glyph-name="uni0404" unicode="&#x404;" horiz-adv-x="608" 
d="M378 603q-189 0 -211 -189h296v-110h-297q6 -96 57.5 -151.5t154.5 -55.5q93 0 172 42v-112q-61 -40 -172 -40q-160 0 -242.5 95.5t-82.5 244.5v46q0 149 82.5 244.5t242.5 95.5q111 0 172 -40v-112q-79 42 -172 42z" />
    <glyph glyph-name="uni0405" unicode="&#x405;" horiz-adv-x="576" 
d="M278 -13q-70 0 -134 17.5t-98 42.5v114q105 -66 230 -66q71 0 107.5 25t36.5 69q0 40 -27.5 63t-89.5 44l-54 19q-49 17 -80 32.5t-60 38.5t-42 54.5t-13 74.5q0 92 70.5 145t180.5 53q118 0 184 -40v-112q-82 44 -186 44q-135 0 -135 -86q0 -38 28.5 -58.5t94.5 -43.5
l51 -18q92 -32 142 -77t50 -129q0 -96 -70.5 -151t-185.5 -55z" />
    <glyph glyph-name="uni0406" unicode="&#x406;" horiz-adv-x="412" 
d="M357 603h-94v-506h94v-97h-302v97h94v506h-94v97h302v-97z" />
    <glyph glyph-name="uni0407" unicode="&#x407;" horiz-adv-x="412" 
d="M162 821q0 -28 -20 -47t-48 -19q-27 0 -47 19.5t-20 46.5t20 46.5t47 19.5q28 0 48 -19.5t20 -46.5zM318 887q27 0 47 -19.5t20 -46.5t-20 -46.5t-47 -19.5q-28 0 -48 19t-20 47q0 27 20 46.5t48 19.5zM357 700v-97h-94v-506h94v-97h-302v97h94v506h-94v97h302z" />
    <glyph glyph-name="uni0408" unicode="&#x408;" horiz-adv-x="461" 
d="M383 700v-494q0 -102 -57 -158t-167 -56q-82 0 -139 23v116q60 -29 138 -29q60 0 85.5 29.5t25.5 91.5v477h114z" />
    <glyph glyph-name="uni0409" unicode="&#x409;" horiz-adv-x="1007" 
d="M733 440q103 0 169 -60.5t66 -159.5t-66 -159.5t-169 -60.5h-261v590h-202l-4 -86q-3 -71 -5.5 -117t-6.5 -98.5t-9.5 -84.5t-13 -67.5t-18 -55t-24.5 -39t-32.5 -29t-41 -15t-51.5 -5.5q-24 0 -47 5v108q13 -3 27 -3q36 0 54.5 21.5t33.5 111t22 270.5l7 194h425v-260
h147zM731 110q59 0 91 30.5t32 79.5t-32 79.5t-91 30.5h-145v-220h145z" />
    <glyph glyph-name="uni040A" unicode="&#x40a;" horiz-adv-x="1020" 
d="M751 425q104 0 167 -56.5t63 -156.5q0 -98 -63 -155t-167 -57h-261v315h-290v-315h-114v700h114v-275h290v275h114v-275h147zM749 110q60 0 89.5 27t29.5 75q0 103 -119 103h-145v-205h145z" />
    <glyph glyph-name="uni040B" unicode="&#x40b;" horiz-adv-x="761" 
d="M466 434q234 0 234 -225v-209h-114v197q0 67 -29 97t-101 30q-69 0 -130 -22v-303h-114v591h-182v110h507v-110h-211v-179q69 23 140 23z" />
    <glyph glyph-name="uni040C" unicode="&#x40c;" horiz-adv-x="654" 
d="M490 902l-99 -132h-108l85 132h122zM664 0h-153l-311 333v-333h-114v700h114v-315l293 315h149l-318 -337z" />
    <glyph glyph-name="uni040E" unicode="&#x40e;" horiz-adv-x="622" 
d="M308 747q-78 0 -120 40.5t-47 101.5h91q2 -29 19.5 -51t56.5 -22q69 0 76 73h91q-5 -61 -47 -101.5t-120 -40.5zM486 700h120l-206 -502q-47 -116 -93.5 -163.5t-128.5 -47.5q-48 0 -69 9v106q18 -6 52 -6q69 0 103 52l-248 552h121l184 -417z" />
    <glyph glyph-name="uni040F" unicode="&#x40f;" horiz-adv-x="680" 
d="M594 700v-700h-197v-140h-114v140h-197v700h114v-590h280v590h114z" />
    <glyph glyph-name="uni0410" unicode="&#x410;" horiz-adv-x="674" 
d="M539 0l-60 177h-287l-60 -177h-119l244 700h160l244 -700h-122zM230 287h211l-105 311z" />
    <glyph glyph-name="uni0411" unicode="&#x411;" horiz-adv-x="633" 
d="M348 440q103 0 168.5 -60.5t65.5 -159.5t-65.5 -159.5t-168.5 -60.5h-262v700h449v-110h-335v-150h148zM346 110q59 0 90.5 30.5t31.5 79.5t-31.5 79.5t-90.5 30.5h-146v-220h146z" />
    <glyph glyph-name="uni0412" unicode="&#x412;" horiz-adv-x="646" 
d="M501 369q97 -53 97 -166q0 -92 -61.5 -147.5t-158.5 -55.5h-292v700h283q93 0 152 -52t59 -139q0 -92 -79 -140zM367 590h-167v-175h167q48 0 73.5 24.5t25.5 63.5q0 38 -25.5 62.5t-73.5 24.5zM376 110q52 0 80.5 27.5t28.5 70.5t-28.5 70t-80.5 27h-176v-195h176z" />
    <glyph glyph-name="uni0413" unicode="&#x413;" horiz-adv-x="551" 
d="M86 0v700h435v-110h-321v-590h-114z" />
    <glyph glyph-name="uni0414" unicode="&#x414;" horiz-adv-x="724" 
d="M606 110h93v-250h-110v140h-454v-140h-110v250h55q70 59 84 411l7 179h435v-590zM209 110h284v480h-217l-3 -71q-14 -310 -64 -409z" />
    <glyph glyph-name="uni0415" unicode="&#x415;" horiz-adv-x="599" 
d="M200 110h343v-110h-457v700h455v-110h-341v-173h309v-110h-309v-197z" />
    <glyph glyph-name="uni0416" unicode="&#x416;" horiz-adv-x="943" 
d="M952 0h-147l-277 341v-341h-113v341l-278 -341h-146l301 365l-285 335h147l261 -317v317h113v-317l261 317h147l-285 -335z" />
    <glyph glyph-name="uni0417" unicode="&#x417;" horiz-adv-x="584" 
d="M421 364q107 -47 107 -161q0 -101 -69.5 -158t-184.5 -57q-147 0 -225 53v116q94 -59 223 -59q70 0 105.5 29t35.5 78q0 45 -34.5 71.5t-102.5 26.5h-102v108h98q64 0 95 26.5t31 68.5q0 45 -37 71t-101 26q-106 0 -187 -44v113q70 40 190 40q115 0 182.5 -50.5
t67.5 -143.5q0 -107 -92 -154z" />
    <glyph glyph-name="uni0418" unicode="&#x418;" horiz-adv-x="715" 
d="M504 700h125v-700h-114v535l-304 -535h-125v700h114v-535z" />
    <glyph glyph-name="uni0419" unicode="&#x419;" horiz-adv-x="715" 
d="M358 747q-78 0 -120 40.5t-47 101.5h91q2 -29 19.5 -51t56.5 -22q69 0 76 73h91q-5 -61 -47 -101.5t-120 -40.5zM504 700h125v-700h-114v535l-304 -535h-125v700h114v-535z" />
    <glyph glyph-name="uni041A" unicode="&#x41a;" horiz-adv-x="654" 
d="M664 0h-153l-311 333v-333h-114v700h114v-315l293 315h149l-318 -337z" />
    <glyph glyph-name="uni041B" unicode="&#x41b;" horiz-adv-x="672" 
d="M164 700h422v-700h-114v590h-203l-4 -87q-3 -72 -5.5 -117.5t-6.5 -98t-9 -84t-12.5 -67t-17.5 -55t-23.5 -39t-31.5 -29t-40 -15t-50 -5.5q-29 0 -52 5v108q13 -3 27 -3q29 0 45 10.5t31.5 50.5t23.5 121t13 220z" />
    <glyph glyph-name="uni041C" unicode="&#x41c;" horiz-adv-x="835" 
d="M600 700h149v-700h-114v549l-178 -405h-83l-178 406v-550h-110v700h150l182 -418z" />
    <glyph glyph-name="uni041D" unicode="&#x41d;" horiz-adv-x="690" 
d="M490 700h114v-700h-114v307h-290v-307h-114v700h114v-283h290v283z" />
    <glyph glyph-name="uni041E" unicode="&#x41e;" horiz-adv-x="715" 
d="M358 713q148 0 226.5 -95t78.5 -250v-36q0 -155 -78.5 -250t-226.5 -95t-226.5 95t-78.5 250v36q0 155 78.5 250t226.5 95zM547 367q0 107 -47 171.5t-142 64.5t-142.5 -64.5t-47.5 -171.5v-34q0 -106 47.5 -171t142.5 -65t142 64.5t47 171.5v34z" />
    <glyph glyph-name="uni041F" unicode="&#x41f;" horiz-adv-x="680" 
d="M86 0v700h508v-700h-114v590h-280v-590h-114z" />
    <glyph glyph-name="uni0420" unicode="&#x420;" horiz-adv-x="616" 
d="M354 700q102 0 166.5 -60t64.5 -159t-64.5 -159t-166.5 -60h-154v-262h-114v700h268zM352 372q57 0 88 30.5t31 78.5t-31 78.5t-88 30.5h-152v-218h152z" />
    <glyph glyph-name="uni0421" unicode="&#x421;" horiz-adv-x="608" 
d="M168 330q0 -107 52 -170t160 -63q91 0 170 42v-112q-61 -40 -172 -40q-160 0 -242.5 95.5t-82.5 244.5v46q0 149 82.5 244.5t242.5 95.5q111 0 172 -40v-112q-79 42 -170 42q-108 0 -160 -63t-52 -170v-40z" />
    <glyph glyph-name="uni0422" unicode="&#x422;" horiz-adv-x="597" 
d="M356 -1h-114v591h-212v110h537v-110h-211v-591z" />
    <glyph glyph-name="uni0423" unicode="&#x423;" horiz-adv-x="622" 
d="M486 700h120l-206 -502q-47 -116 -93.5 -163.5t-128.5 -47.5q-48 0 -69 9v106q18 -6 52 -6q69 0 103 52l-248 552h121l184 -417z" />
    <glyph glyph-name="uni0424" unicode="&#x424;" horiz-adv-x="793" 
d="M453 644q135 -14 211 -92t76 -194v-16q0 -116 -76 -194.5t-211 -92.5v-72h-113v72q-135 15 -211 93t-76 194v16q0 116 76 194t211 92v73h113v-73zM625 343v14q0 72 -45 122.5t-129 62.5v-385q84 13 129 63.5t45 122.5zM168 343q0 -72 45 -122.5t129 -63.5v385
q-84 -13 -129 -63.5t-45 -121.5v-14z" />
    <glyph glyph-name="uni0425" unicode="&#x425;" horiz-adv-x="671" 
d="M644 0h-131l-178 275l-178 -275h-131l235 358l-225 342h131l168 -259l168 259h131l-223 -342z" />
    <glyph glyph-name="uni0426" unicode="&#x426;" horiz-adv-x="705" 
d="M589 110h90v-250h-110v140h-483v700h114v-590h275v590h114v-590z" />
    <glyph glyph-name="uni0427" unicode="&#x427;" horiz-adv-x="650" 
d="M450 700h113v-700h-113v292q-68 -27 -149 -27q-239 0 -239 226v209h113v-197q0 -67 31.5 -97.5t104.5 -30.5q75 0 139 27v298z" />
    <glyph glyph-name="uni0428" unicode="&#x428;" horiz-adv-x="958" 
d="M758 700h113v-700h-785v700h114v-590h222v590h114v-590h222v590z" />
    <glyph glyph-name="uni0429" unicode="&#x429;" horiz-adv-x="988" 
d="M871 110h91v-250h-110v140h-766v700h114v-590h222v590h114v-590h222v590h113v-590z" />
    <glyph glyph-name="uni042A" unicode="&#x42a;" horiz-adv-x="724" 
d="M451 440q103 0 168.5 -60.5t65.5 -159.5t-65.5 -159.5t-168.5 -60.5h-262v590h-159v110h273v-260h148zM449 110q59 0 90.5 30.5t31.5 79.5t-31.5 79.5t-90.5 30.5h-146v-220h146z" />
    <glyph glyph-name="uni042B" unicode="&#x42b;" horiz-adv-x="836" 
d="M327 440q103 0 168.5 -60.5t65.5 -159.5t-65.5 -159.5t-168.5 -60.5h-241v700h114v-260h127zM636 700h113v-700h-113v700zM325 110q59 0 90.5 30.5t31.5 79.5t-31.5 79.5t-90.5 30.5h-125v-220h125z" />
    <glyph glyph-name="uni042C" unicode="&#x42c;" horiz-adv-x="621" 
d="M348 440q103 0 168.5 -60.5t65.5 -159.5t-65.5 -159.5t-168.5 -60.5h-262v700h114v-260h148zM346 110q59 0 90.5 30.5t31.5 79.5t-31.5 79.5t-90.5 30.5h-146v-220h146z" />
    <glyph glyph-name="uni042D" unicode="&#x42d;" horiz-adv-x="608" 
d="M230 713q160 0 242.5 -95.5t82.5 -244.5v-46q0 -149 -82.5 -244.5t-242.5 -95.5q-110 0 -173 40v112q81 -42 172 -42q103 0 155 55.5t58 151.5h-298v110h297q-22 189 -212 189q-91 0 -172 -42v112q63 40 173 40z" />
    <glyph glyph-name="uni042E" unicode="&#x42e;" horiz-adv-x="946" 
d="M598 713q143 0 219 -95t76 -250v-36q0 -155 -76 -250t-219 -95q-137 0 -212.5 86.5t-81.5 230.5h-104v-304h-114v700h114v-286h105q11 136 86 217.5t207 81.5zM777 367q0 107 -44.5 171.5t-134.5 64.5t-135 -64.5t-45 -171.5v-34q0 -106 45 -171t135 -65t134.5 64.5
t44.5 171.5v34z" />
    <glyph glyph-name="uni042F" unicode="&#x42f;" horiz-adv-x="660" 
d="M574 700v-700h-114v277h-92l-220 -277h-137l228 283q-77 16 -123.5 70.5t-46.5 134.5q0 96 64.5 154t165.5 58h275zM301 387h159v203h-159q-57 0 -87.5 -28.5t-30.5 -73.5t30.5 -73t87.5 -28z" />
    <glyph glyph-name="uni0430" unicode="&#x430;" horiz-adv-x="570" 
d="M391 507h101v-507h-101v52q-50 -61 -138 -61q-101 0 -157.5 70.5t-56.5 176.5v31q0 106 56.5 176.5t157.5 70.5q88 0 138 -61v52zM268 98q75 0 114 60v191q-39 60 -114 60q-58 0 -87.5 -39t-29.5 -104v-25q0 -65 29.5 -104t87.5 -39z" />
    <glyph glyph-name="uni0431" unicode="&#x431;" horiz-adv-x="548" 
d="M295 489q100 0 156.5 -62t56.5 -162v-32q0 -108 -59 -176.5t-173 -68.5q-111 0 -170.5 67.5t-59.5 178.5v33q0 131 13 212t51 133q60 83 211 97q118 12 150 21v-109q-29 -12 -127 -20q-57 -5 -91.5 -16t-57.5 -39q-25 -30 -32 -99q53 42 132 42zM396 237v20
q0 61 -31 93.5t-87 32.5q-74 0 -120 -48v-78v-20q0 -145 119 -145t119 145z" />
    <glyph glyph-name="uni0432" unicode="&#x432;" horiz-adv-x="543" 
d="M428 265q70 -40 70 -116q0 -70 -47 -109.5t-128 -39.5h-246v507h243q73 0 120 -37.5t47 -100.5q0 -69 -59 -104zM316 409h-132v-108h132q30 0 45.5 15.5t15.5 38.5t-15.5 38.5t-45.5 15.5zM319 98q34 0 52 16t18 43t-18 43t-52 16h-135v-118h135z" />
    <glyph glyph-name="uni0433" unicode="&#x433;" horiz-adv-x="440" 
d="M77 0v507h336v-97h-226v-410h-110z" />
    <glyph glyph-name="uni0434" unicode="&#x434;" horiz-adv-x="606" 
d="M505 97h77v-222h-106v125h-346v-125h-107v222h48q51 36 61 272l6 138h367v-410zM185 97h210v307h-156l-2 -35q-9 -198 -52 -272z" />
    <glyph glyph-name="uni0435" unicode="&#x435;" horiz-adv-x="517" 
d="M475 289v-71h-325q12 -124 154 -124q77 0 140 38v-106q-50 -38 -145 -38q-121 0 -190.5 67t-69.5 183v31q0 111 60 181t164 70q102 0 157 -61t55 -170zM261 419q-94 0 -109 -111h215q-6 111 -106 111z" />
    <glyph glyph-name="uni0436" unicode="&#x436;" horiz-adv-x="759" 
d="M759 0h-142l-183 248v-248h-110v247l-183 -247h-141l208 270l-195 237h138l173 -223v223h110v-224l174 224h138l-195 -237z" />
    <glyph glyph-name="uni0437" unicode="&#x437;" horiz-adv-x="467" 
d="M351 261q71 -35 71 -112q0 -73 -53.5 -117t-145.5 -44q-118 0 -171 37v107q70 -41 167 -41q96 0 96 61q0 56 -89 56h-82v99h78q84 0 84 54q0 26 -24.5 41.5t-69.5 15.5q-74 0 -145 -33v105q55 30 146 30q96 0 147.5 -39.5t51.5 -109.5q0 -74 -61 -110z" />
    <glyph glyph-name="uni0438" unicode="&#x438;" horiz-adv-x="588" 
d="M391 507h120v-507h-110v364l-204 -364h-120v507h110v-364z" />
    <glyph glyph-name="uni0439" unicode="&#x439;" horiz-adv-x="588" 
d="M294 577q-78 0 -120 40.5t-47 101.5h91q2 -29 19.5 -51t56.5 -22q69 0 76 73h91q-5 -61 -47 -101.5t-120 -40.5zM391 507h120v-507h-110v364l-204 -364h-120v507h110v-364z" />
    <glyph glyph-name="uni043A" unicode="&#x43a;" horiz-adv-x="529" 
d="M528 0h-141l-200 251v-251h-110v507h110v-218l189 218h138l-208 -232z" />
    <glyph glyph-name="uni043B" unicode="&#x43b;" 
d="M126 507h356v-507h-110v404h-146l-2 -48q-3 -71 -6.5 -118t-11 -91.5t-18.5 -70t-28.5 -45.5t-42 -28t-57.5 -8q-25 0 -41 4v105q12 -2 19 -2q26 0 40.5 14t26 71t15.5 169z" />
    <glyph glyph-name="uni043C" unicode="&#x43c;" horiz-adv-x="695" 
d="M476 507h141v-507h-104v382l-132 -283h-71l-133 285v-384h-100v507h142l128 -277z" />
    <glyph glyph-name="uni043D" unicode="&#x43d;" horiz-adv-x="574" 
d="M387 507h110v-507h-110v215h-200v-215h-110v507h110v-194h200v194z" />
    <glyph glyph-name="uni043E" unicode="&#x43e;" horiz-adv-x="551" 
d="M275 -13q-112 0 -174 71t-62 180v31q0 109 62 180t174 71q113 0 174.5 -71t61.5 -180v-31q0 -109 -61.5 -180t-174.5 -71zM275 91q62 0 93 41t31 109v25q0 68 -31 109t-93 41t-93 -41t-31 -109v-25q0 -68 31 -109t93 -41z" />
    <glyph glyph-name="uni043F" unicode="&#x43f;" horiz-adv-x="565" 
d="M77 0v507h411v-507h-110v410h-191v-410h-110z" />
    <glyph glyph-name="uni0440" unicode="&#x440;" horiz-adv-x="570" 
d="M317 516q101 0 157.5 -70.5t56.5 -176.5v-31q0 -106 -56.5 -176.5t-157.5 -70.5q-80 0 -130 52v-223h-110v687h101v-53q51 62 139 62zM419 241v25q0 65 -29.5 104t-87.5 39q-76 0 -115 -62v-187q39 -62 115 -62q58 0 87.5 39t29.5 104z" />
    <glyph glyph-name="uni0441" unicode="&#x441;" horiz-adv-x="452" 
d="M278 -12q-114 0 -176.5 71t-62.5 179v31q0 108 62.5 179t176.5 71q82 0 128 -28v-107q-55 29 -119 29q-70 0 -103 -39.5t-33 -107.5v-25q0 -68 33 -107.5t103 -39.5q64 0 119 29v-107q-46 -28 -128 -28z" />
    <glyph glyph-name="uni0442" unicode="&#x442;" horiz-adv-x="464" 
d="M176 0v410h-149v97h409v-97h-150v-410h-110z" />
    <glyph glyph-name="uni0443" unicode="&#x443;" horiz-adv-x="523" 
d="M387 507h117l-176 -489q-42 -115 -86 -162.5t-125 -47.5q-45 0 -68 10v103q19 -8 51 -8q76 0 107 80l-188 514h118l126 -355z" />
    <glyph glyph-name="uni0444" unicode="&#x444;" horiz-adv-x="654" 
d="M379 519q113 -12 174.5 -81t61.5 -169v-31q0 -100 -61.5 -169t-174.5 -81v-178h-104v178q-113 12 -174.5 81t-61.5 169v31q0 100 61.5 169t174.5 81v211h104v-211zM151 241q0 -59 31.5 -98t94.5 -49v319q-63 -10 -94.5 -49t-31.5 -98v-25zM503 241v25q0 59 -31.5 98
t-94.5 49v-319q63 10 94.5 49t31.5 98z" />
    <glyph glyph-name="uni0445" unicode="&#x445;" horiz-adv-x="555" 
d="M528 0h-130l-121 183l-121 -183h-129l177 260l-168 247h129l112 -171l112 171h130l-167 -247z" />
    <glyph glyph-name="uni0446" unicode="&#x446;" horiz-adv-x="586" 
d="M488 97h76v-222h-106v125h-381v507h110v-410h191v410h110v-410z" />
    <glyph glyph-name="uni0447" unicode="&#x447;" horiz-adv-x="552" 
d="M367 507h107v-507h-107v190q-50 -22 -116 -22q-103 0 -151 45t-48 134v160h106v-149q0 -45 23 -66t81 -21q59 0 105 22v214z" />
    <glyph glyph-name="uni0448" unicode="&#x448;" horiz-adv-x="811" 
d="M624 507h110v-507h-657v507h110v-410h164v410h110v-410h163v410z" />
    <glyph glyph-name="uni0449" unicode="&#x449;" horiz-adv-x="832" 
d="M734 97h76v-222h-106v125h-627v507h110v-410h164v410h110v-410h163v410h110v-410z" />
    <glyph glyph-name="uni044A" unicode="&#x44a;" horiz-adv-x="593" 
d="M378 346q81 0 133.5 -48t52.5 -125t-52.5 -125t-133.5 -48h-218v410h-133v97h243v-161h108zM377 99q40 0 61 20.5t21 53.5q0 32 -21 53t-61 21h-107v-148h107z" />
    <glyph glyph-name="uni044B" unicode="&#x44b;" horiz-adv-x="708" 
d="M276 346q81 0 133 -48t52 -125t-52 -125t-133 -48h-199v507h110v-161h89zM521 507h110v-507h-110v507zM274 101q40 0 61.5 19.5t21.5 52.5q0 32 -21.5 52t-61.5 20h-87v-144h87z" />
    <glyph glyph-name="uni044C" unicode="&#x44c;" horiz-adv-x="510" 
d="M296 346q81 0 133 -48t52 -125t-52 -125t-133 -48h-219v507h110v-161h109zM294 99q40 0 61.5 20.5t21.5 53.5q0 32 -21.5 53t-61.5 21h-107v-148h107z" />
    <glyph glyph-name="uni044D" unicode="&#x44d;" horiz-adv-x="450" 
d="M171 519q114 0 176.5 -71t62.5 -179v-31q0 -108 -62.5 -179t-176.5 -71q-81 0 -128 28v107q55 -29 119 -29q119 0 134 115h-192v95h191q-17 109 -133 109q-64 0 -119 -29v107q47 28 128 28z" />
    <glyph glyph-name="uni044E" unicode="&#x44e;" horiz-adv-x="752" 
d="M487 520q107 0 166 -71t59 -180v-31q0 -109 -59 -180t-166 -71q-101 0 -159.5 62.5t-65.5 162.5h-75v-212h-110v507h110v-198h76q11 94 69 152.5t155 58.5zM602 241v25q0 68 -28.5 109t-86.5 41t-87 -41t-29 -109v-25q0 -68 29 -109t87 -41t86.5 41t28.5 109z" />
    <glyph glyph-name="uni044F" unicode="&#x44f;" horiz-adv-x="535" 
d="M458 507v-507h-108v180h-68l-129 -180h-127l139 188q-54 16 -86 57t-32 98q0 74 50.5 119t129.5 45h231zM236 282h114v122h-114q-38 0 -58.5 -17t-20.5 -44q0 -28 20.5 -44.5t58.5 -16.5z" />
    <glyph glyph-name="uni0451" unicode="&#x451;" horiz-adv-x="517" 
d="M170 595q-27 0 -47 19.5t-20 46.5t20 46.5t47 19.5q28 0 48 -19.5t20 -46.5q0 -28 -20 -47t-48 -19zM370 595q-27 0 -47 19.5t-20 46.5t20 46.5t47 19.5q28 0 48 -19.5t20 -46.5q0 -28 -20 -47t-48 -19zM475 289v-71h-325q12 -124 154 -124q77 0 140 38v-106
q-50 -38 -145 -38q-121 0 -190.5 67t-69.5 183v31q0 111 60 181t164 70q102 0 157 -61t55 -170zM261 419q-94 0 -109 -111h215q-6 111 -106 111z" />
    <glyph glyph-name="uni0452" unicode="&#x452;" horiz-adv-x="570" 
d="M331 518q82 0 127 -46.5t45 -126.5v-369q0 -169 -157 -169q-51 0 -76 11v100q18 -9 51 -9q37 0 54.5 18t17.5 62v329q0 47 -19.5 70.5t-65.5 23.5q-70 0 -121 -55v-357h-110v568h-61v83h61v79h110v-79h119v-83h-119v-103q60 53 144 53z" />
    <glyph glyph-name="uni0453" unicode="&#x453;" horiz-adv-x="440" 
d="M194 598l85 132h122l-99 -132h-108zM77 0v507h336v-97h-226v-410h-110z" />
    <glyph glyph-name="uni0454" unicode="&#x454;" horiz-adv-x="450" 
d="M287 413q-116 0 -133 -109h191v-95h-192q15 -115 134 -115q64 0 119 29v-107q-46 -28 -128 -28q-114 0 -176.5 71t-62.5 179v31q0 108 62.5 179t176.5 71q82 0 128 -28v-107q-55 29 -119 29z" />
    <glyph glyph-name="uni0455" unicode="&#x455;" horiz-adv-x="441" 
d="M214 -12q-110 0 -168 44v107q82 -50 169 -50q83 0 83 52q0 22 -15 34.5t-50 24.5l-41 15q-75 26 -109.5 58.5t-34.5 91.5q0 71 52 112.5t141 41.5q86 0 135 -28v-107q-64 34 -138 34q-80 0 -80 -49q0 -20 15.5 -31t53.5 -24l39 -14q72 -24 107 -57.5t35 -96.5
q0 -72 -50.5 -115t-143.5 -43z" />
    <glyph glyph-name="uni0456" unicode="&#x456;" horiz-adv-x="265" 
d="M132 592q-28 0 -48.5 20t-20.5 48t20.5 48t48.5 20q29 0 49 -20t20 -48t-20 -48t-49 -20zM77 0v507h110v-507h-110z" />
    <glyph glyph-name="uni0457" unicode="&#x457;" horiz-adv-x="265" 
d="M32 595q-27 0 -47 19.5t-20 46.5t20 46.5t47 19.5q28 0 48 -19.5t20 -46.5q0 -28 -20 -47t-48 -19zM232 595q-27 0 -47 19.5t-20 46.5t20 46.5t47 19.5q28 0 48 -19.5t20 -46.5q0 -28 -20 -47t-48 -19zM77 0v507h110v-507h-110z" />
    <glyph glyph-name="uni0458" unicode="&#x458;" horiz-adv-x="265" 
d="M132 592q-28 0 -48.5 20t-20.5 48t20.5 48t48.5 20q29 0 49 -20t20 -48t-20 -48t-49 -20zM77 507h110v-531q0 -169 -157 -169q-49 0 -76 11v100q18 -9 51 -9q37 0 54.5 18t17.5 62v518z" />
    <glyph glyph-name="uni0459" unicode="&#x459;" horiz-adv-x="805" 
d="M591 346q81 0 133 -48t52 -125t-52 -125t-133 -48h-219v404h-146l-2 -48q-3 -71 -6.5 -118t-11 -91t-18.5 -69.5t-28.5 -45.5t-42 -28t-57.5 -8q-25 0 -41 4v105q12 -2 19 -2q26 0 40 13.5t25 70t15 169.5l6 151h358v-161h109zM589 99q40 0 61.5 20.5t21.5 53.5
q0 32 -21.5 53t-61.5 21h-107v-148h107z" />
    <glyph glyph-name="uni045A" unicode="&#x45a;" horiz-adv-x="822" 
d="M610 328q81 0 132 -43.5t51 -119.5q0 -77 -51 -121t-132 -44h-223v231h-200v-231h-110v507h110v-179h200v179h110v-179h113zM608 98q79 0 79 65q0 68 -79 68h-111v-133h111z" />
    <glyph glyph-name="uni045B" unicode="&#x45b;" horiz-adv-x="570" 
d="M331 518q82 0 127 -46.5t45 -126.5v-345h-110v318q0 47 -19.5 70.5t-65.5 23.5q-70 0 -121 -55v-357h-110v568h-61v83h61v79h110v-79h119v-83h-119v-103q60 53 144 53z" />
    <glyph glyph-name="uni045C" unicode="&#x45c;" horiz-adv-x="529" 
d="M424 730l-99 -132h-108l85 132h122zM528 0h-141l-200 251v-251h-110v507h110v-218l189 218h138l-208 -232z" />
    <glyph glyph-name="uni045E" unicode="&#x45e;" horiz-adv-x="523" 
d="M262 577q-78 0 -120 40.5t-47 101.5h91q2 -29 19.5 -51t56.5 -22q69 0 76 73h91q-5 -61 -47 -101.5t-120 -40.5zM387 507h117l-176 -489q-42 -115 -86 -162.5t-125 -47.5q-45 0 -68 10v103q19 -8 51 -8q76 0 107 80l-188 514h118l126 -355z" />
    <glyph glyph-name="uni045F" unicode="&#x45f;" horiz-adv-x="565" 
d="M488 507v-507h-152v-125h-107v125h-152v507h110v-410h191v410h110z" />
    <glyph glyph-name="uni0462" unicode="&#x462;" horiz-adv-x="697" 
d="M424 432q103 0 168.5 -59t65.5 -157t-65.5 -157t-168.5 -59h-262v519h-136v92h136v89h114v-89h167v-92h-167v-87h148zM422 110q60 0 91 29t31 77q0 47 -31.5 76.5t-90.5 29.5h-146v-212h146z" />
    <glyph glyph-name="uni0463" unicode="&#x463;" horiz-adv-x="558" 
d="M343 346q81 0 133.5 -48t52.5 -125t-52.5 -125t-133.5 -48h-218v474h-105v84h105v142h110v-142h122v-84h-122v-128h108zM342 99q40 0 61 20.5t21 53.5q0 32 -21 53t-61 21h-107v-148h107z" />
    <glyph glyph-name="uni0472" unicode="&#x472;" horiz-adv-x="715" 
d="M358 713q148 0 226.5 -95t78.5 -250v-36q0 -155 -78.5 -250t-226.5 -95t-226.5 95t-78.5 250v36q0 155 78.5 250t226.5 95zM358 603q-84 0 -130.5 -50t-56.5 -136h373q-10 86 -56.5 136t-129.5 50zM358 97q89 0 135.5 57t52.5 153h-377q6 -96 53 -153t136 -57z" />
    <glyph glyph-name="uni0473" unicode="&#x473;" horiz-adv-x="551" 
d="M275 520q113 0 174.5 -71t61.5 -180v-31q0 -109 -61.5 -180t-174.5 -71q-112 0 -174 71t-62 180v31q0 109 62 180t174 71zM275 416q-105 0 -122 -115h244q-7 53 -37.5 84t-84.5 31zM275 91q56 0 86 32.5t36 88.5h-244q5 -56 36 -88.5t86 -32.5z" />
    <glyph glyph-name="uni0474" unicode="&#x474;" horiz-adv-x="717" 
d="M263 0l-247 700h123l198 -574l159 461q45 126 147 126q37 0 56 -5v-107q-14 3 -32 3q-22 0 -39.5 -16t-32.5 -56l-186 -532h-146z" />
    <glyph glyph-name="uni0475" unicode="&#x475;" horiz-adv-x="555" 
d="M194 0l-175 507h117l132 -402l97 298q21 64 50 89.5t74 25.5q27 0 47 -3v-99q-7 2 -21 2q-17 0 -28.5 -11.5t-21.5 -41.5l-126 -365h-145z" />
    <glyph glyph-name="uni0490" unicode="&#x490;" horiz-adv-x="562" 
d="M418 830h114v-240h-332v-590h-114v700h332v130z" />
    <glyph glyph-name="uni0491" unicode="&#x491;" horiz-adv-x="444" 
d="M310 627h107v-217h-230v-410h-110v507h233v120z" />
    <glyph glyph-name="uni04D8" unicode="&#x4d8;" horiz-adv-x="702" 
d="M298 712q163 0 254 -91.5t91 -247.5v-46q0 -151 -81 -245t-220 -94q-138 0 -210 82.5t-72 228.5v88h465q-5 100 -62.5 155.5t-169.5 55.5q-109 0 -193 -54v117q30 23 84 37t114 14zM344 97q77 0 122 47.5t56 132.5h-346q8 -180 168 -180z" />
    <glyph glyph-name="uni04D9" unicode="&#x4d9;" horiz-adv-x="517" 
d="M218 519q121 0 190 -67t69 -183v-31q0 -111 -60 -181t-164 -70q-102 0 -156.5 61t-54.5 170v71h325q-12 124 -154 124q-77 0 -140 -38v106q50 38 145 38zM255 88q94 0 110 111h-215q5 -111 105 -111z" />
    <glyph glyph-name="Wgrave" unicode="&#x1e80;" horiz-adv-x="998" 
d="M566 761h-108l-99 132h122zM848 700h118l-177 -700h-152l-139 532l-139 -532h-149l-178 700h120l139 -584l150 584h118l150 -584z" />
    <glyph glyph-name="wgrave" unicode="&#x1e81;" horiz-adv-x="817" 
d="M473 598h-108l-99 132h122zM669 507h116l-132 -507h-142l-102 345l-103 -345h-143l-132 507h120l93 -387l113 387h105l114 -388z" />
    <glyph glyph-name="Wacute" unicode="&#x1e82;" horiz-adv-x="998" 
d="M643 893l-99 -132h-108l85 132h122zM848 700h118l-177 -700h-152l-139 532l-139 -532h-149l-178 700h120l139 -584l150 584h118l150 -584z" />
    <glyph glyph-name="wacute" unicode="&#x1e83;" horiz-adv-x="817" 
d="M550 730l-99 -132h-108l85 132h122zM669 507h116l-132 -507h-142l-102 345l-103 -345h-143l-132 507h120l93 -387l113 387h105l114 -388z" />
    <glyph glyph-name="Wdieresis" unicode="&#x1e84;" horiz-adv-x="998" 
d="M389 755q-27 0 -47 19.5t-20 46.5t20 46.5t47 19.5q28 0 48 -19.5t20 -46.5q0 -28 -20 -47t-48 -19zM613 755q-28 0 -48 19t-20 47q0 27 20 46.5t48 19.5q27 0 47 -19.5t20 -46.5t-20 -46.5t-47 -19.5zM848 700h118l-177 -700h-152l-139 532l-139 -532h-149l-178 700h120
l139 -584l150 584h118l150 -584z" />
    <glyph glyph-name="wdieresis" unicode="&#x1e85;" horiz-adv-x="817" 
d="M308 595q-27 0 -47 19.5t-20 46.5t20 46.5t47 19.5q28 0 48 -19.5t20 -46.5q0 -28 -20 -47t-48 -19zM508 595q-27 0 -47 19.5t-20 46.5t20 46.5t47 19.5q28 0 48 -19.5t20 -46.5q0 -28 -20 -47t-48 -19zM669 507h116l-132 -507h-142l-102 345l-103 -345h-143l-132 507
h120l93 -387l113 387h105l114 -388z" />
    <glyph glyph-name="uni1E9E" unicode="&#x1e9e;" horiz-adv-x="731" 
d="M468 409q114 -35 167.5 -84t53.5 -132q0 -95 -64 -150.5t-172 -55.5q-101 0 -167 36v114q74 -42 166 -42q61 0 91.5 24.5t30.5 66.5q0 48 -42 78.5t-126 52.5l-71 18v78l159 177h-294v-590h-114v700h557v-101z" />
    <glyph glyph-name="Ygrave" unicode="&#x1ef2;" horiz-adv-x="615" 
d="M373 761h-108l-99 132h122zM604 700l-240 -396v-304h-113v304l-240 396h129l169 -281l168 281h127z" />
    <glyph glyph-name="ygrave" unicode="&#x1ef3;" horiz-adv-x="523" 
d="M327 598h-108l-99 132h122zM387 507h117l-176 -489q-42 -115 -86 -162.5t-125 -47.5q-45 0 -68 10v103q19 -8 51 -8q76 0 107 80l-188 514h118l126 -355z" />
    <glyph glyph-name="endash" unicode="&#x2013;" horiz-adv-x="697" 
d="M56 261v99h585v-99h-585z" />
    <glyph glyph-name="emdash" unicode="&#x2014;" horiz-adv-x="967" 
d="M56 261v99h855v-99h-855z" />
    <glyph glyph-name="quoteleft" unicode="&#x2018;" horiz-adv-x="219" 
d="M197 700l-64 -215h-111l72 215h103z" />
    <glyph glyph-name="quoteright" unicode="&#x2019;" horiz-adv-x="219" 
d="M22 485l63 215h112l-72 -215h-103z" />
    <glyph glyph-name="quotesinglbase" unicode="&#x201a;" horiz-adv-x="235" 
d="M14 -93l63 215h112l-72 -215h-103z" />
    <glyph glyph-name="quotedblleft" unicode="&#x201c;" horiz-adv-x="403" 
d="M197 700l-64 -215h-111l72 215h103zM381 700l-64 -215h-111l72 215h103z" />
    <glyph glyph-name="quotedblright" unicode="&#x201d;" horiz-adv-x="403" 
d="M22 485l63 215h112l-72 -215h-103zM206 485l63 215h112l-72 -215h-103z" />
    <glyph glyph-name="quotedblbase" unicode="&#x201e;" horiz-adv-x="403" 
d="M22 -93l63 215h112l-72 -215h-103zM206 -93l63 215h112l-72 -215h-103z" />
    <glyph glyph-name="dagger" unicode="&#x2020;" horiz-adv-x="709" 
d="M622 469v-110h-211v-489h-114v489h-211v110h211v231h114v-231h211z" />
    <glyph glyph-name="daggerdbl" unicode="&#x2021;" horiz-adv-x="709" 
d="M622 390h-211v-190h211v-110h-211v-220h-114v220h-211v110h211v190h-211v110h211v200h114v-200h211v-110z" />
    <glyph glyph-name="bullet" unicode="&#x2022;" horiz-adv-x="472" 
d="M236 224q-52 0 -89 37t-37 89t37 89t89 37t89 -37t37 -89t-37 -89t-89 -37z" />
    <glyph glyph-name="ellipsis" unicode="&#x2026;" horiz-adv-x="686" 
d="M117 -10q-31 0 -52.5 21.5t-21.5 52.5t21.5 52.5t52.5 21.5t53 -21.5t22 -52.5t-22 -52.5t-53 -21.5zM343 -10q-31 0 -52.5 21.5t-21.5 52.5t21.5 52.5t52.5 21.5t53 -21.5t22 -52.5t-22 -52.5t-53 -21.5zM568 -10q-31 0 -52.5 21.5t-21.5 52.5t21.5 52.5t52.5 21.5
t53 -21.5t22 -52.5t-22 -52.5t-53 -21.5z" />
    <glyph glyph-name="perthousand" unicode="&#x2030;" horiz-adv-x="1215" 
d="M209 390q-70 0 -116.5 45t-46.5 116t46.5 116t116.5 45t116 -45t46 -116t-46 -116t-116 -45zM128 0l485 700h98l-485 -700h-98zM208 466q36 0 57.5 24.5t21.5 60.5t-21.5 60.5t-57.5 24.5t-57 -24t-21 -61t21 -61t57 -24zM630 -13q-70 0 -116.5 45t-46.5 116t46.5 116
t116.5 45t116 -45t46 -116t-46 -116t-116 -45zM1007 -18q-70 0 -116.5 45t-46.5 116t46.5 116t116.5 45t116 -45t46 -116t-46 -116t-116 -45zM629 63q36 0 57.5 24.5t21.5 60.5t-21.5 60.5t-57.5 24.5t-57 -24t-21 -61t21 -61t57 -24zM1006 58q36 0 57.5 24.5t21.5 60.5
t-21.5 60.5t-57.5 24.5t-57 -24t-21 -61t21 -61t57 -24z" />
    <glyph glyph-name="guilsinglleft" unicode="&#x2039;" horiz-adv-x="366" 
d="M210 65l-159 193v9l159 192h105l-162 -197l162 -197h-105z" />
    <glyph glyph-name="guilsinglright" unicode="&#x203a;" horiz-adv-x="366" 
d="M51 65l162 197l-162 197h105l159 -192v-9l-159 -193h-105z" />
    <glyph glyph-name="fraction" unicode="&#x2044;" horiz-adv-x="259" 
d="M-162 0l485 700h98l-485 -700h-98z" />
    <glyph glyph-name="Euro" unicode="&#x20ac;" 
d="M395 612q-132 0 -167 -140h193v-77h-203q-1 -8 -1 -25v-40v-7h204v-77h-197q31 -158 171 -158q75 0 140 43v-104q-54 -40 -147 -40q-115 0 -185.5 71t-89.5 188h-78v77h72v4v46v22h-72v77h81q22 109 91.5 175t180.5 66q93 0 147 -40v-104q-65 43 -140 43z" />
    <glyph glyph-name="uni20BA" unicode="&#x20ba;" 
d="M443 278h95q-17 -141 -105 -209.5t-230 -68.5h-67v275l-97 -32v80l97 33v82l-97 -32v80l97 33v181h110v-145l145 49v-81l-145 -48v-83l145 49v-81l-145 -48v-218q87 7 133.5 52t63.5 132z" />
    <glyph glyph-name="uni20BD" unicode="&#x20bd;" 
d="M319 295h-85v-63h146v-77h-146v-155h-110v155h-91v77h91v63h-91v86h91v319h195q98 0 157 -54.5t59 -147.5t-58 -148t-158 -55zM234 600v-219h79q57 0 85 30t28 79q0 50 -28 80t-85 30h-79z" />
    <glyph glyph-name="uni2116" unicode="&#x2116;" horiz-adv-x="1013" 
d="M828 710q77 0 120.5 -45.5t43.5 -116.5v-23q0 -71 -43.5 -116.5t-120.5 -45.5t-121 45.5t-44 116.5v23q0 71 44 116.5t121 45.5zM491 191v509h110v-700h-121l-284 516v-516h-110v700h125zM897 527v19q0 36 -17.5 56.5t-51.5 20.5q-71 0 -71 -77v-19q0 -36 18 -57t53 -21
q34 0 51.5 21t17.5 57z" />
    <glyph glyph-name="trademark" unicode="&#x2122;" horiz-adv-x="880" 
d="M10 617v83h330v-83h-122v-297h-86v297h-122zM726 700h111v-379h-86v266l-97 -193h-64l-97 191v-264h-83v379h111l103 -203z" />
    <glyph glyph-name="oneeighth" unicode="&#x215b;" horiz-adv-x="975" 
d="M55 283v68h105v254l-100 -27v78l142 46h42v-351h101v-68h-290zM686 700h98l-485 -700h-98zM897 223q58 -37 58 -102q0 -58 -42 -94.5t-119 -36.5t-119 36.5t-42 94.5q0 66 58 102q-42 31 -42 84q0 52 39 87.5t106 35.5t106 -35.5t39 -87.5q0 -51 -42 -84zM794 356
q-30 0 -46 -14.5t-16 -35.5t16 -35.5t46 -14.5t45.5 14.5t15.5 35.5t-15.5 35.5t-45.5 14.5zM794 64q37 0 57 16.5t20 42.5q0 60 -77 60q-38 0 -58 -16.5t-20 -43.5q0 -26 20 -42.5t58 -16.5z" />
    <glyph glyph-name="threeeighths" unicode="&#x215c;" horiz-adv-x="946" 
d="M326 413q0 -61 -45 -100.5t-118 -39.5q-75 0 -126 30v84q53 -33 124 -33q38 0 59.5 16.5t21.5 41.5q0 23 -18.5 37t-52.5 14q-30 0 -47 -7l-38 53l117 117h-162v77h263v-75l-93 -92q52 -6 83.5 -38t31.5 -85zM657 700h98l-485 -700h-98zM868 223q58 -37 58 -102
q0 -58 -42 -94.5t-119 -36.5t-119 36.5t-42 94.5q0 66 58 102q-42 31 -42 84q0 52 39 87.5t106 35.5t106 -35.5t39 -87.5q0 -51 -42 -84zM765 356q-30 0 -46 -14.5t-16 -35.5t16 -35.5t46 -14.5t45.5 14.5t15.5 35.5t-15.5 35.5t-45.5 14.5zM765 64q37 0 57 16.5t20 42.5
q0 60 -77 60q-38 0 -58 -16.5t-20 -43.5q0 -26 20 -42.5t58 -16.5z" />
    <glyph glyph-name="fiveeighths" unicode="&#x215d;" horiz-adv-x="955" 
d="M330 418q0 -65 -45 -105t-121 -40q-72 0 -123 30v84q54 -33 123 -33q41 0 61.5 16.5t20.5 43.5q0 54 -71 54q-32 0 -59 -12l-66 24l28 223h233v-77h-163l-12 -85q28 7 50 7q65 0 104.5 -34.5t39.5 -95.5zM666 700h98l-485 -700h-98zM877 223q58 -37 58 -102
q0 -58 -42 -94.5t-119 -36.5t-119 36.5t-42 94.5q0 66 58 102q-42 31 -42 84q0 52 39 87.5t106 35.5t106 -35.5t39 -87.5q0 -51 -42 -84zM774 356q-30 0 -46 -14.5t-16 -35.5t16 -35.5t46 -14.5t45.5 14.5t15.5 35.5t-15.5 35.5t-45.5 14.5zM774 64q37 0 57 16.5t20 42.5
q0 60 -77 60q-38 0 -58 -16.5t-20 -43.5q0 -26 20 -42.5t58 -16.5z" />
    <glyph glyph-name="seveneighths" unicode="&#x215e;" horiz-adv-x="895" 
d="M186 283h-96q7 78 47.5 172t96.5 171h-194v77h290v-76q-119 -161 -144 -344zM606 700h98l-485 -700h-98zM817 223q58 -37 58 -102q0 -58 -42 -94.5t-119 -36.5t-119 36.5t-42 94.5q0 66 58 102q-42 31 -42 84q0 52 39 87.5t106 35.5t106 -35.5t39 -87.5q0 -51 -42 -84z
M714 356q-30 0 -46 -14.5t-16 -35.5t16 -35.5t46 -14.5t45.5 14.5t15.5 35.5t-15.5 35.5t-45.5 14.5zM714 64q37 0 57 16.5t20 42.5q0 60 -77 60q-38 0 -58 -16.5t-20 -43.5q0 -26 20 -42.5t58 -16.5z" />
    <glyph glyph-name="arrowleft" unicode="&#x2190;" horiz-adv-x="856" 
d="M813 406v-111h-572l263 -261h-142l-319 317l319 317h142l-264 -262h573z" />
    <glyph glyph-name="arrowup" unicode="&#x2191;" horiz-adv-x="720" 
d="M677 451v-142l-261 263v-572h-111v573l-262 -264v142l317 319z" />
    <glyph glyph-name="arrowright" unicode="&#x2192;" horiz-adv-x="856" 
d="M494 668l319 -317l-319 -317h-142l263 261h-572v111h573l-264 262h142z" />
    <glyph glyph-name="arrowdown" unicode="&#x2193;" horiz-adv-x="720" 
d="M416 128l261 263v-142l-317 -319l-317 319v142l262 -264v573h111v-572z" />
    <glyph glyph-name="uni2196" unicode="&#x2196;" horiz-adv-x="698" 
d="M655 187l-81 -81l-416 416v-361l-97 98v441h441l98 -98h-360z" />
    <glyph glyph-name="uni2197" unicode="&#x2197;" horiz-adv-x="698" 
d="M196 700h441v-441l-97 -98v361l-416 -416l-81 81l415 415h-360z" />
    <glyph glyph-name="uni2198" unicode="&#x2198;" horiz-adv-x="698" 
d="M540 539l97 -98v-441h-441l-98 98h360l-415 415l81 81l416 -416v361z" />
    <glyph glyph-name="uni2199" unicode="&#x2199;" horiz-adv-x="698" 
d="M655 513l-415 -415h360l-98 -98h-441v441l97 98v-361l416 416z" />
    <glyph glyph-name="partialdiff" unicode="&#x2202;" horiz-adv-x="541" 
d="M287 730q115 -95 164.5 -202.5t49.5 -260.5v-33q0 -116 -61 -181.5t-169 -65.5q-107 0 -169.5 66t-62.5 180v30q0 101 60.5 163.5t159.5 62.5q57 0 104 -26q-49 130 -224 267h148zM389 237v20q0 53 -5 85q-40 43 -113 43q-57 0 -88.5 -33.5t-31.5 -94.5v-20
q0 -145 119 -145t119 145z" />
    <glyph glyph-name="emptyset" unicode="&#x2205;" horiz-adv-x="674" 
d="M542 501q79 -82 79 -197q0 -118 -83 -201t-201 -83q-87 0 -160 49l-61 -73l-49 34l65 77q-79 82 -79 197q0 118 83 201t201 83q88 0 159 -49l61 72l49 -34zM135 304q0 -76 49 -135l261 309q-50 32 -108 32q-84 0 -143 -60t-59 -146zM337 98q84 0 142.5 60t58.5 146
q0 78 -49 135l-260 -309q50 -32 108 -32z" />
    <glyph glyph-name="product" unicode="&#x220f;" horiz-adv-x="742" 
d="M153 -130v720h-100v110h636v-110h-100v-720h-114v720h-208v-720h-114z" />
    <glyph glyph-name="summation" unicode="&#x2211;" horiz-adv-x="596" 
d="M53 -130v105l238 310l-238 310v105h491v-110h-344l206 -262v-85l-206 -263h344v-110h-491z" />
    <glyph glyph-name="minus" unicode="&#x2212;" 
d="M71 302v90h418v-90h-418z" />
    <glyph glyph-name="radical" unicode="&#x221a;" horiz-adv-x="663" 
d="M647 700v-110h-111l-192 -690h-175l-138 428h124l102 -330l187 702h203z" />
    <glyph glyph-name="infinity" unicode="&#x221e;" horiz-adv-x="779" 
d="M202 128q-67 0 -115 45t-48 111q0 69 48.5 114t121.5 45q91 0 184 -102q31 33 52.5 51t58 34.5t76.5 16.5q71 0 115 -43t44 -111v-1q0 -71 -49.5 -115.5t-116.5 -44.5q-46 0 -87.5 23.5t-94.5 78.5q-45 -49 -89 -75.5t-100 -26.5zM209 198q26 0 53 14.5t42 28.5t39 40
q-27 32 -41 47t-42 31t-57 16q-38 0 -60 -26t-22 -66q0 -37 25 -61t63 -24zM576 198q37 0 59 26t22 60q0 44 -22.5 67.5t-59.5 23.5q-33 0 -62 -19.5t-72 -67.5q44 -50 73 -70t62 -20z" />
    <glyph glyph-name="integral" unicode="&#x222b;" 
d="M458 740q50 0 76 -13v-99q-19 8 -52 8q-34 0 -53.5 -19t-29.5 -65l-130 -582q-19 -85 -58 -124t-109 -39q-50 0 -76 13v99q19 -8 51 -8q35 0 54.5 18.5t29.5 63.5l130 584q19 85 58 124t109 39z" />
    <glyph glyph-name="approxequal" unicode="&#x2248;" 
d="M400 355q-40 0 -120 28t-120 28q-52 0 -90 -39v90q31 33 90 33q40 0 120 -28t120 -28q52 0 90 39v-90q-31 -33 -90 -33zM400 178q-40 0 -120 28t-120 28q-52 0 -90 -39v90q31 33 90 33q40 0 120 -28t120 -28q52 0 90 39v-90q-31 -33 -90 -33z" />
    <glyph glyph-name="notequal" unicode="&#x2260;" 
d="M489 391h-153l-44 -88h197v-89h-242l-42 -84h-67l42 84h-109v89h154l44 88h-198v89h242l42 84h67l-42 -84h109v-89z" />
    <glyph glyph-name="lessequal" unicode="&#x2264;" 
d="M489 537v-99l-298 -96l298 -95v-99l-418 150v89zM71 4v90h418v-90h-418z" />
    <glyph glyph-name="greaterequal" unicode="&#x2265;" 
d="M71 537l418 -150v-89l-418 -150v99l298 95l-298 96v99zM71 4v90h418v-90h-418z" />
    <glyph glyph-name="lozenge" unicode="&#x25ca;" 
d="M225 0l-202 350l202 350h110l202 -350l-202 -350h-110zM280 103l141 247l-141 247l-141 -247z" />
    <glyph glyph-name="i.loclTRK" horiz-adv-x="265" 
d="M132 592q-28 0 -48.5 20t-20.5 48t20.5 48t48.5 20q29 0 49 -20t20 -48t-20 -48t-49 -20zM77 0v507h110v-507h-110z" />
    <glyph glyph-name="zero.dnom" horiz-adv-x="363" 
d="M182 430q153 0 153 -205v-30q0 -205 -153 -205q-80 0 -117 55.5t-37 149.5v30q0 94 37 149.5t117 55.5zM109 226v-32v-9l131 131q-18 39 -58 39q-73 0 -73 -129zM254 194v32v11l-132 -131q18 -41 60 -41q72 0 72 129z" />
    <glyph glyph-name="one.dnom" horiz-adv-x="363" 
d="M244 68h101v-68h-290v68h105v254l-100 -27v78l142 46h42v-351z" />
    <glyph glyph-name="two.dnom" horiz-adv-x="363" 
d="M191 137q-48 -38 -59 -60h190v-77h-289v28q0 46 21.5 82t76.5 79l34 27q30 24 41 33.5t21.5 25.5t10.5 32q0 42 -68 42q-65 0 -116 -44v85q42 40 125 40q68 0 105.5 -35t37.5 -86q0 -40 -21 -71.5t-79 -76.5z" />
    <glyph glyph-name="three.dnom" horiz-adv-x="363" 
d="M211 253q52 -6 83.5 -38t31.5 -85q0 -61 -45 -100.5t-118 -39.5q-75 0 -126 30v84q53 -33 124 -33q38 0 59.5 16.5t21.5 41.5q0 23 -18.5 37t-52.5 14q-30 0 -47 -7l-38 53l117 117h-162v77h263v-75z" />
    <glyph glyph-name="four.dnom" horiz-adv-x="363" 
d="M294 155h58v-78h-58v-77h-83v77h-194v74l153 269h124v-265zM103 155h108v189z" />
    <glyph glyph-name="five.dnom" horiz-adv-x="363" 
d="M186 265q65 0 104.5 -34.5t39.5 -95.5q0 -65 -45 -105t-121 -40q-72 0 -123 30v84q54 -33 123 -33q41 0 61.5 16.5t20.5 43.5q0 54 -71 54q-32 0 -59 -12l-66 24l28 223h233v-77h-163l-12 -85q28 7 50 7z" />
    <glyph glyph-name="six.dnom" horiz-adv-x="363" 
d="M198 277q70 0 105 -35.5t35 -100.5q0 -63 -39.5 -107t-111.5 -44q-74 0 -115 41.5t-41 109.5v18q0 79 46 149t102 112h119q-112 -84 -152 -153q27 10 52 10zM187 69q33 0 50.5 18t17.5 50q0 64 -70 64q-43 0 -70 -27q-1 -6 -1 -18v-12q0 -35 19 -55t54 -20z" />
    <glyph glyph-name="seven.dnom" horiz-adv-x="363" 
d="M40 420h290v-76q-119 -161 -144 -344h-96q7 78 47.5 172t96.5 171h-194v77z" />
    <glyph glyph-name="eight.dnom" horiz-adv-x="363" 
d="M285 223q58 -37 58 -102q0 -58 -42 -94.5t-119 -36.5t-119 36.5t-42 94.5q0 66 58 102q-42 31 -42 84q0 52 39 87.5t106 35.5t106 -35.5t39 -87.5q0 -51 -42 -84zM182 356q-30 0 -46 -14.5t-16 -35.5t16 -35.5t46 -14.5t45.5 14.5t15.5 35.5t-15.5 35.5t-45.5 14.5z
M182 64q37 0 57 16.5t20 42.5q0 60 -77 60q-38 0 -58 -16.5t-20 -43.5q0 -26 20 -42.5t58 -16.5z" />
    <glyph glyph-name="nine.dnom" horiz-adv-x="363" 
d="M178 430q72 0 113 -41.5t41 -109.5v-18q0 -79 -46 -148.5t-102 -112.5h-116q109 81 150 153q-28 -10 -58 -10q-61 0 -98 37t-37 99q0 64 38.5 107.5t114.5 43.5zM177 219q44 0 71 26q1 6 1 19v12q0 35 -19 55t-54 20q-68 0 -68 -68q0 -64 69 -64z" />
    <glyph glyph-name="zero.numr" horiz-adv-x="363" 
d="M182 713q153 0 153 -205v-30q0 -205 -153 -205q-80 0 -117 55.5t-37 149.5v30q0 94 37 149.5t117 55.5zM109 509v-32v-9l131 131q-18 39 -58 39q-73 0 -73 -129zM254 477v32v11l-132 -131q18 -41 60 -41q72 0 72 129z" />
    <glyph glyph-name="one.numr" horiz-adv-x="363" 
d="M244 351h101v-68h-290v68h105v254l-100 -27v78l142 46h42v-351z" />
    <glyph glyph-name="two.numr" horiz-adv-x="363" 
d="M191 420q-48 -38 -59 -60h190v-77h-289v28q0 46 21.5 82t76.5 79l34 27q30 24 41 33.5t21.5 25.5t10.5 32q0 42 -68 42q-65 0 -116 -44v85q43 40 125 40q68 0 105.5 -35t37.5 -86q0 -40 -21 -71.5t-79 -76.5z" />
    <glyph glyph-name="three.numr" horiz-adv-x="363" 
d="M211 536q52 -6 83.5 -38t31.5 -85q0 -61 -45 -100.5t-118 -39.5q-75 0 -126 30v84q53 -33 124 -33q38 0 59.5 16.5t21.5 41.5q0 23 -18.5 37t-52.5 14q-30 0 -47 -7l-38 53l117 117h-162v77h263v-75z" />
    <glyph glyph-name="four.numr" horiz-adv-x="363" 
d="M294 438h58v-78h-58v-77h-83v77h-194v74l153 269h124v-265zM103 438h108v189z" />
    <glyph glyph-name="five.numr" horiz-adv-x="363" 
d="M186 548q65 0 104.5 -34.5t39.5 -95.5q0 -65 -45 -105t-121 -40q-72 0 -123 30v84q54 -33 123 -33q41 0 61.5 16.5t20.5 43.5q0 54 -71 54q-32 0 -59 -12l-66 24l28 223h233v-77h-163l-12 -85q28 7 50 7z" />
    <glyph glyph-name="six.numr" horiz-adv-x="363" 
d="M198 560q70 0 105 -35t35 -101q0 -63 -39.5 -107t-111.5 -44q-74 0 -115 41.5t-41 109.5v18q0 79 46 149t102 112h119q-112 -84 -152 -153q27 10 52 10zM187 352q33 0 50.5 18t17.5 50q0 64 -70 64q-43 0 -70 -27q-1 -6 -1 -18v-12q0 -35 19 -55t54 -20z" />
    <glyph glyph-name="seven.numr" horiz-adv-x="363" 
d="M40 703h290v-76q-119 -161 -144 -344h-96q7 78 47.5 172t96.5 171h-194v77z" />
    <glyph glyph-name="eight.numr" horiz-adv-x="363" 
d="M285 506q58 -37 58 -102q0 -58 -42 -94.5t-119 -36.5t-119 36.5t-42 94.5q0 66 58 102q-42 32 -42 84t39 87.5t106 35.5t106 -35.5t39 -87.5q0 -51 -42 -84zM182 639q-30 0 -46 -14.5t-16 -35.5t16 -35.5t46 -14.5t45.5 14.5t15.5 35.5t-15.5 35.5t-45.5 14.5zM182 347
q37 0 57 16.5t20 42.5q0 60 -77 60q-38 0 -58 -16.5t-20 -43.5q0 -26 20 -42.5t58 -16.5z" />
    <glyph glyph-name="nine.numr" horiz-adv-x="363" 
d="M178 713q72 0 113 -41.5t41 -109.5v-18q0 -79 -46 -148.5t-102 -112.5h-116q109 81 150 153q-28 -10 -58 -10q-61 0 -98 37t-37 99q0 64 38.5 107.5t114.5 43.5zM177 502q44 0 71 26q1 6 1 19v12q0 35 -19 55t-54 20q-68 0 -68 -68q0 -64 69 -64z" />
    <glyph glyph-name="caroncomb.alt" horiz-adv-x="0" 
d="M-191 549l45 181h104l-58 -181h-91z" />
    <glyph glyph-name="uni0328.alt" horiz-adv-x="0" 
d="M-94 -205q-52 0 -83.5 27t-31.5 73q0 91 112 156l54 -25q-29 -19 -51.5 -49t-22.5 -59q0 -43 45 -43q16 0 28 3v-77q-18 -6 -50 -6z" />
    <glyph glyph-name="uni0308.case" horiz-adv-x="0" 
d="M-334 785q-27 0 -47 19.5t-20 46.5t20 46.5t47 19.5q28 0 48 -19.5t20 -46.5q0 -28 -20 -47t-48 -19zM-110 785q-28 0 -48 19t-20 47q0 27 20 46.5t48 19.5q27 0 47 -19.5t20 -46.5t-20 -46.5t-47 -19.5z" />
    <glyph glyph-name="uni030A.case" horiz-adv-x="0" 
d="M-169 696q-53 0 -89 35.5t-36 84.5t36 84.5t89 35.5t89.5 -35.5t36.5 -84.5t-36.5 -84.5t-89.5 -35.5zM-169 754q28 0 45.5 17.5t17.5 44.5t-17.5 44.5t-45.5 17.5q-27 0 -45 -18t-18 -44t18 -44t45 -18z" />
    <glyph glyph-name="uni0335.case" horiz-adv-x="0" 
d="M-388 308v102h345v-102h-345z" />
    <glyph glyph-name="uni0337.case" horiz-adv-x="0" 
d="M-369 294l327 170v-111l-327 -170v111z" />
    <glyph glyph-name="uni0338.case" horiz-adv-x="0" 
d="M-112 718l69 -48l-482 -688l-69 48z" />
    <glyph glyph-name="tonos.case" horiz-adv-x="231" 
d="M43 498l35 202h111l-58 -202h-88z" />
    <glyph glyph-name="brevecombcy" horiz-adv-x="0" 
d="M-209 584q-78 0 -120 40.5t-47 101.5h91q2 -29 19.5 -51t56.5 -22q69 0 76 73h91q-5 -61 -47 -101.5t-120 -40.5z" />
    </font>
</defs>
</svg>
