<?xml version="1.0" encoding="utf-8"?>
<!-- Generator: Adobe Illustrator 21.1.0, SVG Export Plug-In . SVG Version: 6.00 Build 0)  -->
<svg version="1.0" id="globe" xmlns="http://www.w3.org/2000/svg" xmlns:xlink="http://www.w3.org/1999/xlink" x="0px" y="0px"
	 viewBox="0 0 22 22" style="enable-background:new 0 0 22 22;" xml:space="preserve">
<path d="M11,0L11,0C11,0,11,0,11,0C11,0,11,0,11,0C4.9,0,0,4.9,0,11c0,6,4.8,10.9,10.8,11c0,0,0.1,0,0.1,0c0,0,0,0,0,0
	c0,0,0.1,0,0.1,0c6.1,0,11-4.9,11-11S17.1,0,11,0z M10.8,20.6C10,20.6,9.2,19,8.7,16.7c0.7-0.1,1.4-0.2,2.2-0.2
	c0.7,0,1.4,0.1,2.1,0.2C12.5,19,11.7,20.6,10.8,20.6C10.9,20.6,10.8,20.6,10.8,20.6z M11,1.4c0.8,0,1.6,1.5,2.1,3.9
	c-0.7,0.1-1.4,0.2-2.1,0.2c-0.8,0-1.5-0.1-2.2-0.2C9.4,2.9,10.2,1.4,11,1.4C11,1.4,11,1.4,11,1.4z M13.3,1.7C14.9,2,16.4,2.9,17.6,4
	c-0.3,0.2-0.7,0.3-1.1,0.5c-0.6,0.2-1.3,0.4-1.9,0.6C14.2,3.7,13.8,2.5,13.3,1.7z M10.9,15.2C10.9,15.2,10.9,15.2,10.9,15.2
	L10.9,15.2c-0.9,0-1.7,0.1-2.5,0.2c-0.2-1.1-0.3-2.4-0.3-3.7h5.5c0,1.3-0.1,2.6-0.3,3.7C12.5,15.3,11.8,15.2,10.9,15.2L10.9,15.2
	C11,15.2,10.9,15.2,10.9,15.2z M8.3,10.3c0-1.3,0.1-2.6,0.3-3.7c0.8,0.1,1.6,0.2,2.4,0.2c0.8,0,1.6-0.1,2.4-0.2
	c0.2,1.1,0.3,2.4,0.3,3.7H8.3z M7.5,5C6.8,4.9,6.2,4.7,5.6,4.5C5.2,4.3,4.8,4.1,4.5,4C5.6,2.9,7.1,2,8.7,1.7C8.2,2.5,7.8,3.7,7.5,5z
	 M5.1,5.8C5.8,6,6.5,6.2,7.2,6.4C7,7.6,6.9,8.9,6.9,10.3H1.4c0.1-2,0.9-3.8,2.1-5.3C3.9,5.2,4.4,5.5,5.1,5.8z M6.7,11.7
	c0,1.4,0.1,2.7,0.3,3.9c-0.7,0.2-1.4,0.4-2,0.6c-0.7,0.3-1.2,0.5-1.6,0.7c-1.2-1.5-1.9-3.3-2.1-5.3L6.7,11.7L6.7,11.7z M5.6,17.5
	c0.6-0.2,1.2-0.4,1.8-0.5c0.3,1.3,0.7,2.5,1.2,3.3c-1.6-0.4-3-1.2-4.1-2.3C4.8,17.8,5.2,17.7,5.6,17.5z M14.4,16.9
	c0.7,0.2,1.3,0.3,1.9,0.6c0.5,0.2,0.9,0.4,1.2,0.6c-1.2,1.1-2.7,2-4.4,2.3C13.6,19.5,14.1,18.3,14.4,16.9z M16.8,16.2
	c-0.7-0.3-1.4-0.5-2.1-0.6c0.2-1.2,0.3-2.5,0.3-3.9h5.6c-0.1,2-0.9,3.9-2.1,5.3C18.1,16.8,17.5,16.5,16.8,16.2z M15.1,10.3
	c0-1.4-0.1-2.7-0.3-3.9c0.7-0.2,1.5-0.4,2.2-0.6c0.7-0.3,1.2-0.5,1.6-0.7c1.2,1.5,1.9,3.3,2.1,5.3L15.1,10.3L15.1,10.3z"/>
</svg>
